<svg width="52" height="50" viewBox="0 0 52 50" fill="none" xmlns="http://www.w3.org/2000/svg">
<path fill-rule="evenodd" clip-rule="evenodd" d="M4.3335 12.4998C4.3335 10.2897 5.24659 8.17008 6.8719 6.60728C8.49722 5.04448 10.7016 4.1665 13.0002 4.1665H39.0002C41.2987 4.1665 43.5031 5.04448 45.1284 6.60728C46.7537 8.17008 47.6668 10.2897 47.6668 12.4998V37.4998C47.6668 39.71 46.7537 41.8296 45.1284 43.3924C43.5031 44.9552 41.2987 45.8332 39.0002 45.8332H13.0002C10.7016 45.8332 8.49722 44.9552 6.8719 43.3924C5.24659 41.8296 4.3335 39.71 4.3335 37.4998V12.4998ZM13.0002 8.33317C11.8509 8.33317 10.7487 8.77216 9.93603 9.55356C9.12338 10.335 8.66683 11.3948 8.66683 12.4998V37.4998C8.66683 38.6049 9.12338 39.6647 9.93603 40.4461C10.7487 41.2275 11.8509 41.6665 13.0002 41.6665H26.0002V27.0832H23.8335C23.2589 27.0832 22.7078 26.8637 22.3014 26.473C21.8951 26.0823 21.6668 25.5524 21.6668 24.9998C21.6668 24.4473 21.8951 23.9174 22.3014 23.5267C22.7078 23.136 23.2589 22.9165 23.8335 22.9165H26.0002V19.7915C26.0002 17.8576 26.7991 16.003 28.2213 14.6355C29.6434 13.2681 31.5723 12.4998 33.5835 12.4998H34.8835C35.4581 12.4998 36.0092 12.7193 36.4156 13.11C36.8219 13.5007 37.0502 14.0306 37.0502 14.5832C37.0502 15.1357 36.8219 15.6656 36.4156 16.0563C36.0092 16.447 35.4581 16.6665 34.8835 16.6665H33.5835C33.1567 16.6665 32.7341 16.7473 32.3398 16.9044C31.9455 17.0614 31.5872 17.2916 31.2854 17.5818C30.9836 17.872 30.7442 18.2165 30.5809 18.5956C30.4176 18.9748 30.3335 19.3811 30.3335 19.7915V22.9165H34.8835C35.4581 22.9165 36.0092 23.136 36.4156 23.5267C36.8219 23.9174 37.0502 24.4473 37.0502 24.9998C37.0502 25.5524 36.8219 26.0823 36.4156 26.473C36.0092 26.8637 35.4581 27.0832 34.8835 27.0832H30.3335V41.6665H39.0002C40.1494 41.6665 41.2516 41.2275 42.0643 40.4461C42.8769 39.6647 43.3335 38.6049 43.3335 37.4998V12.4998C43.3335 11.3948 42.8769 10.335 42.0643 9.55356C41.2516 8.77216 40.1494 8.33317 39.0002 8.33317H13.0002Z" fill="#F5F3E5"/>
</svg>
