<svg width="1918" height="308" viewBox="0 0 1918 308" fill="none" xmlns="http://www.w3.org/2000/svg">
<path d="M1604.8 112.093C1598.48 112.093 1596.22 165.067 1596.22 172.634H1633.26C1640.93 172.634 1635.51 126.687 1633.26 112.093C1631 97.4977 1611.13 112.093 1604.8 112.093Z" fill="#987676"/>
<path d="M1678.55 108.688C1686.81 90.3309 1664.28 67.5839 1621.1 69.5793C1570.06 61.2034 1565.15 77.1446 1558.78 97.88L1558.77 97.9132C1553.27 115.777 1590.68 128.243 1594.81 119.862C1598.94 111.482 1637.62 116.27 1641.75 119.862C1645.88 123.454 1670.5 126.563 1678.55 108.688Z" fill="#FBB0B0"/>
<ellipse cx="1587.72" cy="89.6464" rx="4.50063" ry="5.31972" fill="#987676"/>
<ellipse cx="1578.72" cy="104.542" rx="4.50063" ry="5.31972" fill="#987676"/>
<ellipse cx="1641.73" cy="100.286" rx="4.50063" ry="5.31972" fill="#987676"/>
<ellipse cx="1641.73" cy="84.327" rx="4.50063" ry="5.31972" fill="#987676"/>
<ellipse cx="1659.73" cy="99.2221" rx="4.50063" ry="5.31972" fill="#987676"/>
<ellipse cx="1614.72" cy="89.6464" rx="4.50063" ry="5.31972" fill="#987676"/>
<path d="M965.714 71.6624C959.391 71.6624 957.133 124.637 957.133 132.204H994.167C1001.84 132.204 996.425 86.2573 994.167 71.6624C991.909 57.0675 972.037 71.6624 965.714 71.6624Z" fill="#987676"/>
<path d="M1039.46 68.2585C1047.72 49.9013 1025.19 27.1542 982.008 29.1496C930.969 20.7737 926.066 36.7149 919.688 57.4503L919.677 57.4835C914.182 75.3476 951.594 87.8129 955.724 79.4324C959.854 71.0519 998.529 75.8408 1002.66 79.4324C1006.79 83.0241 1031.41 86.1328 1039.46 68.2585Z" fill="#FBB0B0"/>
<ellipse cx="948.632" cy="49.2167" rx="4.50063" ry="5.31972" fill="#987676"/>
<ellipse cx="939.63" cy="64.1117" rx="4.50063" ry="5.31972" fill="#987676"/>
<ellipse cx="1002.64" cy="59.8563" rx="4.50063" ry="5.31972" fill="#987676"/>
<ellipse cx="1002.64" cy="43.8969" rx="4.50063" ry="5.31972" fill="#987676"/>
<ellipse cx="1020.64" cy="58.7924" rx="4.50063" ry="5.31972" fill="#987676"/>
<ellipse cx="975.635" cy="49.2167" rx="4.50063" ry="5.31972" fill="#987676"/>
<path d="M375.264 66.059C369.131 67.6964 379.063 119.662 380.795 127.002L416.715 117.411C424.162 115.423 408.391 72.2616 402.861 58.6906C397.331 45.1195 381.397 64.4216 375.264 66.059Z" fill="#987676"/>
<path d="M446.009 43.6601C449.821 23.7158 422.764 7.48741 381.339 20.6052C329.919 25.6987 328.811 42.4302 327.37 64.1936L327.367 64.2284C326.126 82.9781 365.264 85.3801 367.352 76.1821C369.441 66.9841 408.048 61.6133 412.876 64.0272C417.704 66.4412 442.298 63.0797 446.009 43.6601Z" fill="#FBB0B0"/>
<ellipse cx="4.51815" cy="5.30135" rx="4.51815" ry="5.30135" transform="matrix(0.966155 -0.257964 0.229632 0.973277 347.976 44.7178)" fill="#987676"/>
<ellipse cx="4.51815" cy="5.30135" rx="4.51815" ry="5.30135" transform="matrix(0.966155 -0.257964 0.229632 0.973277 342.655 61.4961)" fill="#987676"/>
<ellipse cx="4.51815" cy="5.30135" rx="4.51815" ry="5.30135" transform="matrix(0.966155 -0.257964 0.229632 0.973277 402.794 41.0513)" fill="#987676"/>
<ellipse cx="4.51815" cy="5.30135" rx="4.51815" ry="5.30135" transform="matrix(0.966155 -0.257964 0.229632 0.973277 399.142 25.5723)" fill="#987676"/>
<ellipse cx="4.51815" cy="5.30135" rx="4.51815" ry="5.30135" transform="matrix(0.966155 -0.257964 0.229632 0.973277 420.011 35.3569)" fill="#987676"/>
<ellipse cx="4.51815" cy="5.30135" rx="4.51815" ry="5.30135" transform="matrix(0.966155 -0.257964 0.229632 0.973277 374.168 37.7246)" fill="#987676"/>
<path d="M85.7314 45.6042C79.4088 45.6727 77.6585 98.6686 77.731 106.236L114.763 105.834C122.441 105.751 116.581 59.8652 114.183 45.2956C111.785 30.7259 92.054 45.5356 85.7314 45.6042Z" fill="#87621A"/>
<path d="M159.438 41.4006C167.522 22.9547 144.777 0.453154 101.617 2.91671C50.5008 -4.90519 45.7503 11.0884 39.5712 31.8919L39.5613 31.9252C34.2378 49.848 71.7666 61.9069 75.8164 53.482C79.8662 45.0572 118.585 49.4263 122.75 52.973C126.914 56.5197 151.566 59.3612 159.438 41.4006Z" fill="#D39824"/>
<path d="M629.094 80.9899C622.771 81.0585 621.021 134.054 621.094 141.622L658.126 141.22C665.803 141.137 659.943 95.251 657.546 80.6813C655.148 66.1117 635.417 80.9213 629.094 80.9899Z" fill="#87621A"/>
<path d="M702.801 76.7858C710.885 58.3399 688.139 35.8384 644.98 38.302C593.863 30.4801 589.113 46.4736 582.934 67.2771L582.924 67.3105C577.6 85.2332 615.129 97.2921 619.179 88.8673C623.229 80.4424 661.948 84.8116 666.112 88.3583C670.277 91.9049 694.929 94.7464 702.801 76.7858Z" fill="#D39824"/>
<path d="M1198.44 67.4342C1192.11 67.5028 1190.36 120.499 1190.44 128.066L1227.47 127.664C1235.15 127.581 1229.29 81.6953 1226.89 67.1257C1224.49 52.556 1204.76 67.3657 1198.44 67.4342Z" fill="#87621A"/>
<path d="M1256.44 60.6675C1264.52 42.2216 1257.48 22.2833 1214.32 24.7469C1173.93 21.3016 1165.43 37.7956 1165.43 52.1559C1165.43 70.952 1184.47 83.737 1188.52 75.3122C1192.57 66.8873 1231.29 71.2565 1235.46 74.8031C1239.62 78.3498 1248.57 78.6281 1256.44 60.6675Z" fill="#D39824"/>
<path d="M1838.53 72.7541C1832.2 72.8226 1830.45 125.818 1830.53 133.386L1867.56 132.984C1875.24 132.901 1869.38 87.0151 1866.98 72.4455C1864.58 57.8758 1844.85 72.6855 1838.53 72.7541Z" fill="#87621A"/>
<path d="M1896.53 65.9873C1904.61 47.5414 1897.57 27.6031 1854.41 30.0667C1814.02 26.6214 1805.52 43.1155 1805.52 57.4757C1805.51 76.2718 1824.56 89.0568 1828.61 80.632C1832.66 72.2071 1871.38 76.5763 1875.54 80.1229C1879.71 83.6696 1888.66 83.9479 1896.53 65.9873Z" fill="#D39824"/>
<path d="M1357.77 112.093C1351.45 112.093 1349.19 165.067 1349.19 172.634H1386.22C1393.9 172.634 1388.48 126.687 1386.22 112.093C1383.96 97.4977 1364.09 112.093 1357.77 112.093Z" fill="#987676"/>
<path d="M1431.51 108.688C1439.77 90.3309 1417.24 67.5839 1374.06 69.5793C1323.02 61.2034 1318.12 77.1446 1311.74 97.88L1311.73 97.9132C1306.24 115.777 1343.65 128.243 1347.78 119.862C1351.91 111.482 1390.58 116.27 1394.71 119.862C1398.84 123.454 1423.47 126.563 1431.51 108.688Z" fill="#FBB0B0"/>
<ellipse cx="1340.69" cy="89.6464" rx="4.50063" ry="5.31972" fill="#987676"/>
<ellipse cx="1331.69" cy="104.542" rx="4.50063" ry="5.31972" fill="#987676"/>
<ellipse cx="1394.69" cy="100.286" rx="4.50063" ry="5.31972" fill="#987676"/>
<ellipse cx="1394.69" cy="84.327" rx="4.50063" ry="5.31972" fill="#987676"/>
<ellipse cx="1412.7" cy="99.2221" rx="4.50063" ry="5.31972" fill="#987676"/>
<ellipse cx="1367.69" cy="89.6464" rx="4.50063" ry="5.31972" fill="#987676"/>
<path d="M269.537 135.391C269.537 135.391 128.518 44.5107 0 135.391V308H1916.27C1916.27 244.797 1920.17 134.542 1916.27 131.141C1857.76 80.1435 1799.75 146.505 1782.75 135.392C1723.74 96.8163 1572.38 172.332 1554.22 146.505C1483.41 45.8193 1380.23 154.885 1367.69 146.506C1210.17 41.2434 1124.57 151.763 1112.65 146.506C931.129 66.4134 811.073 155.333 799.111 146.506C698.097 71.9709 551.885 150.564 546.076 146.506C400.056 44.5107 269.537 135.391 269.537 135.391Z" fill="#809671"/>
</svg>
