<?xml version="1.0" encoding="UTF-8"?>
<svg id="Layer_1" data-name="Layer 1" xmlns="http://www.w3.org/2000/svg" viewBox="0 0 637.68 530.16">
  <defs>
    <style>
      .cls-1 {
        fill: #006838;
      }

      .cls-1, .cls-2 {
        stroke: #006838;
        stroke-width: 5px;
      }

      .cls-1, .cls-2, .cls-3 {
        stroke-miterlimit: 10;
      }

      .cls-2 {
        fill: none;
      }

      .cls-3 {
        fill: #f5f2e3;
        stroke: #f5f2e3;
      }

      .cls-4 {
        fill: #2d9045;
      }

      .cls-4, .cls-5, .cls-6, .cls-7, .cls-8, .cls-9, .cls-10, .cls-11, .cls-12, .cls-13, .cls-14 {
        stroke-width: 0px;
      }

      .cls-5 {
        fill: #3b2314;
      }

      .cls-6 {
        fill: #5a4a42;
      }

      .cls-7 {
        fill: #227541;
      }

      .cls-8 {
        fill: #231f20;
      }

      .cls-9 {
        fill: #a87c4f;
      }

      .cls-10 {
        fill: #d1c9aa;
      }

      .cls-11 {
        fill: #be1e2d;
      }

      .cls-12 {
        fill: #c3996b;
      }

      .cls-13 {
        fill: #8ec669;
      }

      .cls-14 {
        fill: #306849;
      }
    </style>
  </defs>
  <rect class="cls-3" x=".5" y=".5" width="636.68" height="528.93"/>
  <line class="cls-2" x1="549.08" y1="320.79" x2="549.08" y2="496.22"/>
  <line class="cls-1" x1="86.62" y1="358.23" x2="86.62" y2="473.06"/>
  <path class="cls-13" d="M121.7,344.8c-28.19,26.99-73.55,14.85-91.27-13.61-29.41-47.26,13.29-146.05,52.51-148.2,24.22-1.33,46.84,34.21,55.01,63.51,7.12,25.54,10.6,72.59-16.25,98.29Z"/>
  <path class="cls-7" d="M516.27,253.15c-.86-1.58-13.34-25.34-2.05-43.86,14.09-23.13,57.1-24.79,72.96-2.77,12.77,17.73,1.97,42.55,1.27,44.11,23.71-1.09,40.01,8.41,40.52,16.38.48,7.55-12.94,17.84-32.92,21.42,15.31,2.43,27.26,11.16,30.39,22.68,3.7,13.63-6.33,26.07-8.86,28.99-16.15,18.62-44.6,15.95-93.7,11.34-20.14-1.89-31.42-4.65-39.25-13.86-1.07-1.26-10.23-12.38-7.6-26.47,2.61-13.98,15.8-25.37,32.92-27.73-16.83-7.91-24.27-20.6-21.53-26.47,2.48-5.29,14.35-7.34,27.86-3.78Z"/>
  <path class="cls-12" d="M500.59,422.41c-8.01,1.5-43.51,8.14-48.97-2.45-5.49-10.66,16.59-44.27,47.81-51.47,32.75-7.55,57.95,18.02,59.47,19.61,9.5,9.96,19.61,27,15.16,33.09-5.26,7.18-25.35-8.35-58.3-2.45-7.11,1.27-6.36,2.03-15.16,3.68Z"/>
  <path class="cls-12" d="M537.93,498.97c-6.18,20.45-42.46,21.32-49.68.02-2.79-8.23,1.32-12.19,5.2-48.47,2.82-26.43,1.93-36.48,7.22-42.14,5.15-5.51,13.08-3.55,18.15,1.88,5.96,6.4,6.09,15.6,11.03,42.12,6.73,36.13,10.28,39.35,8.09,46.59Z"/>
  <path class="cls-12" d="M73.98,468.09c-3.98,13.38-27.34,13.94-31.99.01-1.8-5.38.85-7.97,3.35-31.7,1.82-17.28,1.25-23.86,4.65-27.55,3.32-3.6,8.42-2.32,11.68,1.23,3.84,4.18,3.92,10.2,7.1,27.54,4.33,23.63,6.62,25.73,5.21,30.47Z"/>
  <path class="cls-9" d="M453.78,420.86c-.89-5.59,25.23-14.37,43.61-18.44,16.86-3.74,54.31-12,67.01,5.27,3.05,4.14,5.38,10.72,2.94,14.01-4.25,5.74-18.1-5.05-40.3-4.81-19.79.21-23.14,9.06-46.67,9.25-8.43.07-25.89-.86-26.59-5.27Z"/>
  <path class="cls-4" d="M133.46,496.17c-14.8-.62-29.77-1.24-35.18-11.67-3.22-6.22-2.15-14.2.61-19.73,3.84-7.72,11.81-12.41,20.58-12.11-8.17-1.9-14.57-8.17-16.33-16.17-.34-1.54-1.92-9.54,3.03-16.44,5.73-8,15.05-7.3,15.76-7.23-7.07-1.13-11.97-6.42-12.12-11.84-.16-5.5,4.64-9.23,5.45-9.86,6.72-5.23,15.03-1.64,15.76-1.32.45-2.55,1.86-8.59,6.75-13.06,7.36-6.71,18.95-6.54,26.37-.29,4.92,4.14,6.66,9.8,7.27,12.26,6.2-2.52,12.77-1.08,16.42,3.5.51.64,4.54,5.88,2.58,12.05-1.58,5-5.92,6.93-6.62,7.22,3.83.25,15.12,1.56,22.6,11.1,1.93,2.46,5.05,6.43,4.84,11.68-.26,6.75-5.89,13.12-14.26,16.06,7.91-3.03,16.4-1.6,21.92,3.92,8.71,8.72,6.96,24.62.69,31.99-2.61,3.07-5.52,4.08-28.56,6.15-13.46,1.21-22.58,1.77-35.76,2.63-17.9,1.17-18.63,1.28-21.79,1.15Z"/>
  <path class="cls-11" d="M14.98,417.68c-7.6-9.91,8.27-43.26,34.28-51.66,23.49-7.58,41.56,18.09,42.64,19.68,6.81,9.99,14.07,27.1,10.87,33.21-.36.68-.84,1.04-1.15,1.34-8.1,8.01-25.59-.18-43.7-2.89-27.21-4.07-37.9,6.9-42.95.32Z"/>
  <path class="cls-10" d="M33.17,384.36c-3.35,3.11-8.62,3.1-9.5,1.51-1.4-2.56,7.29-11.49,10.27-10.68,1.97.53,2.95,5.71-.78,9.18Z"/>
  <path class="cls-10" d="M50.55,373.03c-4.38,1.25-9.09-1.16-9.14-2.99-.09-2.92,11.66-6.92,13.96-4.85,1.52,1.37.07,6.44-4.82,7.83Z"/>
  <path class="cls-10" d="M38.75,398.18c-4.38,1.25-9.09-1.16-9.14-2.99-.09-2.92,11.66-6.92,13.96-4.85,1.52,1.37.07,6.44-4.82,7.83Z"/>
  <path class="cls-10" d="M61.65,390.41c-3.33,3.9-9.75,2.62-11.19-.01-2.31-4.21,6.14-15.63,9.95-13.69,2.52,1.28,4.95,9.36,1.24,13.71Z"/>
  <path class="cls-10" d="M73.43,383.89c1.56.13,1.72-2.37,1-3.67-1.15-2.08-5.59-2.89-5.31-1.04.19,1.23,2.57,4.55,4.31,4.7Z"/>
  <path class="cls-10" d="M79.06,399.14c2.54-.15,3.33-3.65,2.42-5.3-1.47-2.64-8.62-2.82-8.54-.31.05,1.66,3.29,5.77,6.12,5.61Z"/>
  <path class="cls-10" d="M60.46,408.29c4.09-1.02,6.5-5.43,5.58-7.07-1.47-2.63-12.79-.48-13.49,2.47-.46,1.95,3.35,5.73,7.91,4.6Z"/>
  <path class="cls-10" d="M86.2,380c-2.53-.25-3.85,3.09-3.21,4.86,1.04,2.83,8.08,4.13,8.39,1.64.21-1.65-2.36-6.21-5.18-6.49Z"/>
  <path class="cls-10" d="M92.14,406.45c1.84,2.88,6.44.87,7.75-1.6,2.1-3.95-2.38-12.56-5.26-10.36-1.9,1.46-4.55,8.74-2.5,11.95Z"/>
  <path class="cls-6" d="M578.32,438.05c-5.54,1.23-30.09,6.69-33.86-2.01-3.8-8.76,11.47-36.39,33.05-42.31,22.64-6.21,40.07,14.81,41.12,16.12,6.57,8.19,13.56,22.2,10.48,27.2-3.64,5.9-17.53-6.86-40.31-2.01-4.92,1.05-4.4,1.67-10.48,3.02Z"/>
  <path class="cls-6" d="M607.88,485.86c-4.27,13.52-29.36,14.09-34.35.01-1.93-5.44.92-8.06,3.59-32.04,1.95-17.47,1.34-24.11,4.99-27.85,3.56-3.64,9.04-2.35,12.55,1.24,4.12,4.23,4.21,10.31,7.63,27.84,4.65,23.88,7.11,26.01,5.59,30.8Z"/>
  <path class="cls-5" d="M549.14,439.74c-.93-3.04,11.1-13.15,24.91-18.55,3.51-1.38,33.13-12.52,46.33,4.33,2.75,3.51,5.54,9.2,4.11,11.76-2.09,3.74-10.51-4-25.05-3.44-5.53.21-5.21,1.37-27.29,5.64-.45.09-4.46.85-9.87,1.2-7.66.49-12.61.81-13.14-.94Z"/>
  <path class="cls-14" d="M0,530.16v-62.45c20.84-3.78,49.49-6.47,82.99-1.99,23.36,3.12,43.3,8.95,59.15,14.92.71-12.9,4.68-20.38,8.32-24.87,18.1-22.33,66.52-17.82,119.22,14.92,1.47-11.55,6.22-34.67,23.1-46.75,26.27-18.78,75.16-5.99,109.05,41.77,5.6-5.04,27.24-23.28,58.22-21.88,45.43,2.06,69.4,44.5,71.16,47.74,6.64-4.92,24.6-16.83,49.9-16.91,30.29-.1,50.83,16.8,56.57,21.88v33.61H0Z"/>
  <path class="cls-8" d="M542.02,326.7c.94-.38,2.15-.15,2.84.64.91,1.03.73,2.77-.5,3.57-1.17.76-2.86.41-3.59-.73-.8-1.27-.06-2.95,1.24-3.48Z"/>
  <path class="cls-8" d="M555.67,337.04c-.6.86-2.3,3.07-5.29,4.08-.57.19-4.45,1.44-8.27-.98-2.34-1.48-3.48-3.59-3.94-4.55,5.83.48,11.67.96,17.5,1.44Z"/>
  <path class="cls-8" d="M551.49,327.78c.94-.38,2.15-.15,2.84.64.91,1.03.73,2.77-.5,3.57-1.17.76-2.86.41-3.59-.73-.8-1.27-.06-2.95,1.24-3.48Z"/>
  <path class="cls-8" d="M145,391.66c.65-.45,1.6-.38,2.23.25.82.83.93,2.42.11,3.29-.77.83-2.1.71-2.8-.25-.77-1.05-.45-2.67.46-3.29Z"/>
  <path class="cls-8" d="M156.69,399.45c-.33.85-1.31,3.04-3.42,4.31-.4.24-3.15,1.82-6.36.07-1.96-1.07-3.11-2.85-3.59-3.67,4.45-.24,8.91-.48,13.36-.71Z"/>
  <path class="cls-8" d="M152.27,391.54c.65-.45,1.6-.38,2.23.25.82.83.93,2.42.11,3.29-.77.83-2.1.71-2.8-.25-.77-1.05-.45-2.67.46-3.29Z"/>
  <path class="cls-8" d="M77.83,329.31c.65-.45,1.6-.38,2.23.25.82.83.93,2.42.11,3.29-.77.83-2.1.71-2.8-.25-.77-1.05-.45-2.67.46-3.29Z"/>
  <path class="cls-8" d="M89.52,337.09c-.33.85-1.31,3.04-3.42,4.31-.4.24-3.15,1.82-6.36.07-1.96-1.07-3.11-2.85-3.59-3.67,4.45-.24,8.91-.48,13.36-.71Z"/>
  <path class="cls-8" d="M85.1,329.19c.65-.45,1.6-.38,2.23.25.82.83.93,2.42.11,3.29-.77.83-2.1.71-2.8-.25-.77-1.05-.45-2.67.46-3.29Z"/>
</svg>