<?xml version="1.0" encoding="UTF-8"?>
<svg id="Layer_1" data-name="Layer 1" xmlns="http://www.w3.org/2000/svg" viewBox="0 0 597.07 680.95">
  <defs>
    <style>
      .cls-1 {
        fill: #006838;
        stroke: #006838;
      }

      .cls-1, .cls-2 {
        stroke-width: 5px;
      }

      .cls-1, .cls-2, .cls-3 {
        stroke-miterlimit: 10;
      }

      .cls-2 {
        fill: none;
        stroke: #063c22;
      }

      .cls-3 {
        fill: #f5f2e3;
        stroke: #f5f2e3;
      }

      .cls-4 {
        fill: #2d9045;
      }

      .cls-4, .cls-5, .cls-6, .cls-7, .cls-8, .cls-9, .cls-10, .cls-11, .cls-12, .cls-13, .cls-14 {
        stroke-width: 0px;
      }

      .cls-5 {
        fill: #3b2314;
      }

      .cls-6 {
        fill: #5a4a42;
      }

      .cls-7 {
        fill: #227541;
      }

      .cls-8 {
        fill: #231f20;
      }

      .cls-9 {
        fill: #a87c4f;
      }

      .cls-10 {
        fill: #d1c9aa;
      }

      .cls-11 {
        fill: #be1e2d;
      }

      .cls-12 {
        fill: #c3996b;
      }

      .cls-13 {
        fill: #8ec669;
      }

      .cls-14 {
        fill: #306849;
      }
    </style>
  </defs>
  <rect class="cls-3" x=".52" y=".5" width="596.05" height="679.17"/>
  <line class="cls-2" x1="489.06" y1="394.1" x2="489.06" y2="641.14"/>
  <line class="cls-1" x1="84.87" y1="429.41" x2="84.87" y2="600.51"/>
  <path class="cls-13" d="M135.1,416.16c-36.86,37.05-96.16,20.39-119.32-18.68-38.46-64.87,17.37-200.48,68.65-203.42,31.66-1.82,61.23,46.95,71.92,87.18,9.31,35.05,13.85,99.64-21.25,134.92Z"/>
  <path class="cls-7" d="M449.88,283.86c-.99-2.22-15.41-35.68-2.37-61.76,16.27-32.57,65.95-34.91,84.27-3.9,14.75,24.97,2.28,59.91,1.46,62.11,27.38-1.53,46.21,11.85,46.8,23.07.56,10.63-14.94,25.12-38.02,30.17,17.69,3.42,31.49,15.72,35.1,31.94,4.27,19.19-7.31,36.71-10.24,40.82-18.65,26.21-51.52,22.46-108.22,15.97-23.26-2.66-36.29-6.54-45.34-19.52-1.24-1.78-11.81-17.43-8.77-37.27,3.01-19.69,18.25-35.72,38.02-39.04-19.44-11.14-28.03-29.01-24.86-37.27,2.86-7.46,16.58-10.34,32.17-5.32Z"/>
  <path class="cls-12" d="M430.6,496.21c-11.12,2.11-60.41,11.47-67.99-3.45-7.62-15.01,23.02-62.34,66.37-72.48,45.47-10.64,80.45,25.38,82.55,27.61,13.18,14.02,27.23,38.03,21.04,46.59-7.3,10.11-35.2-11.76-80.94-3.45-9.87,1.79-8.83,2.86-21.04,5.18Z"/>
  <path class="cls-12" d="M488.21,610.01c-7.12,28.8-48.94,30.02-57.27.02-3.22-11.59,1.53-17.16,5.99-68.26,3.25-37.21,2.23-51.37,8.32-59.33,5.94-7.76,15.08-5,20.92,2.65,6.88,9.01,7.02,21.97,12.72,59.31,7.76,50.88,11.85,55.41,9.32,65.61Z"/>
  <path class="cls-12" d="M85.33,593.13c-4.24,19.93-29.16,20.77-34.12.02-1.92-8.02.91-11.88,3.57-47.23,1.94-25.75,1.33-35.55,4.96-41.06,3.54-5.37,8.98-3.46,12.46,1.83,4.1,6.23,4.18,15.2,7.58,41.04,4.62,35.2,7.06,38.34,5.55,45.4Z"/>
  <path class="cls-9" d="M365.62,494.03c-1.24-7.88,35.02-20.23,60.54-25.97,23.4-5.26,75.39-16.9,93.03,7.42,4.23,5.84,7.46,15.09,4.08,19.73-5.9,8.08-25.13-7.11-55.94-6.78-27.47.29-32.13,12.76-64.79,13.02-11.7.09-35.94-1.21-36.92-7.42Z"/>
  <path class="cls-4" d="M195.93,610.65c-20.47-.92-41.18-1.85-48.65-17.39-4.45-9.27-2.97-21.15.84-29.39,5.31-11.5,16.33-18.49,28.46-18.04-11.3-2.83-20.15-12.17-22.59-24.09-.47-2.3-2.65-14.21,4.19-24.49,7.93-11.91,20.82-10.88,21.79-10.78-9.77-1.69-16.55-9.57-16.76-17.64-.22-8.2,6.42-13.76,7.54-14.7,9.3-7.79,20.79-2.45,21.79-1.96.62-3.8,2.57-12.8,9.34-19.46,10.18-10,26.21-9.74,36.48-.44,6.8,6.16,9.21,14.61,10.05,18.27,8.58-3.76,17.67-1.6,22.7,5.22.7.95,6.27,8.76,3.57,17.95-2.19,7.45-8.19,10.32-9.16,10.76,5.3.38,20.91,2.32,31.27,16.53,2.68,3.67,6.98,9.58,6.7,17.4-.36,10.05-8.15,19.54-19.73,23.93,10.94-4.51,22.69-2.39,30.32,5.84,12.04,13,9.62,36.69.95,47.67-3.61,4.58-7.63,6.08-39.51,9.16-18.62,1.8-31.24,2.63-49.46,3.92-24.76,1.75-25.76,1.91-30.14,1.72Z"/>
  <path class="cls-11" d="M5.15,537.01c-10.88-14.76,11.85-64.46,49.11-76.97,33.64-11.29,59.53,26.95,61.09,29.32,9.75,14.89,20.15,40.38,15.57,49.48-.51,1.02-1.21,1.55-1.64,2-11.61,11.93-36.65-.27-62.6-4.31-38.98-6.07-54.29,10.28-61.52.47Z"/>
  <path class="cls-10" d="M26.44,490.74c-4.36,4.19-9.93,3.54-10.43,1.08-.8-3.95,10.74-16.07,13.68-14.53,1.94,1.02,1.61,8.78-3.25,13.45Z"/>
  <path class="cls-10" d="M40.41,477.04c-5.12.84-8.8-3.66-7.99-6.29,1.31-4.23,15.36-7.42,16.72-3.93.9,2.3-3.03,9.29-8.74,10.23Z"/>
  <path class="cls-10" d="M19.93,516.18c-4.68,1.86-9.69-1.73-9.75-4.45-.1-4.35,12.44-10.31,14.89-7.22,1.62,2.04.07,9.6-5.14,11.67Z"/>
  <path class="cls-10" d="M61.4,494.39c-3.55,5.81-10.4,3.9-11.94-.02-2.46-6.28,6.55-23.29,10.62-20.4,2.69,1.9,5.28,13.94,1.32,20.42Z"/>
  <path class="cls-10" d="M69.8,466.09c1.66.2,1.83-3.53,1.07-5.46-1.23-3.09-5.96-4.31-5.66-1.54.2,1.83,2.75,6.79,4.6,7.01Z"/>
  <path class="cls-10" d="M90.92,522.14c2.71-.22,3.55-5.44,2.58-7.89-1.56-3.93-9.19-4.2-9.11-.46.05,2.47,3.51,8.6,6.53,8.35Z"/>
  <path class="cls-10" d="M60.9,520.1c4.36-1.51,6.93-8.09,5.95-10.53-1.57-3.92-13.64-.72-14.39,3.67-.49,2.9,3.58,8.54,8.44,6.86Z"/>
  <path class="cls-10" d="M88.05,471.65c-2.7-.38-4.11,4.6-3.42,7.23,1.11,4.22,8.61,6.16,8.95,2.44.22-2.46-2.52-9.26-5.53-9.68Z"/>
  <path class="cls-10" d="M109.94,504.15c2.49,4.12,7,.74,7.93-3.02,1.5-6.03-4.86-18.42-7.5-14.91-1.74,2.32-3.2,13.35-.43,17.93Z"/>
  <path class="cls-6" d="M521.89,556.65c-7.8,1.73-42.37,9.43-47.69-2.84-5.35-12.34,16.15-51.24,46.55-59.58,31.89-8.74,56.44,20.86,57.91,22.7,9.25,11.53,19.1,31.26,14.76,38.3-5.12,8.31-24.69-9.67-56.77-2.84-6.93,1.47-6.19,2.35-14.76,4.26Z"/>
  <path class="cls-6" d="M553.84,621.78c-4.93,19.04-33.84,19.84-39.59.01-2.22-7.66,1.06-11.34,4.14-45.11,2.25-24.6,1.54-33.95,5.75-39.21,4.1-5.13,10.42-3.31,14.46,1.75,4.75,5.95,4.86,14.52,8.79,39.2,5.36,33.63,8.19,36.62,6.45,43.36Z"/>
  <path class="cls-5" d="M480.79,559.03c-1.31-4.28,15.63-18.51,35.09-26.13,4.95-1.94,46.66-17.63,65.26,6.1,3.88,4.95,7.8,12.96,5.79,16.56-2.94,5.27-14.8-5.63-35.28-4.85-7.78.3-7.34,1.92-38.44,7.94-.64.12-6.28,1.2-13.9,1.69-10.79.7-17.75,1.15-18.51-1.32Z"/>
  <path class="cls-14" d="M0,680.95v-93.6c19.51-5.67,46.33-9.69,77.69-2.98,21.87,4.68,40.54,13.42,55.37,22.36.67-19.33,4.38-30.55,7.79-37.27,16.95-33.46,62.27-26.7,111.61,22.36,1.38-17.31,5.82-51.97,21.63-70.06,24.59-28.15,70.37-8.98,102.09,62.61,5.24-7.55,25.5-34.9,54.51-32.79,42.53,3.08,64.97,66.69,66.62,71.55,6.21-7.37,23.03-25.22,46.72-25.34,28.35-.15,47.59,25.18,52.96,32.79v50.37H0Z"/>
  <path class="cls-8" d="M485.92,383.44c1.08-.53,2.48-.21,3.28.9,1.05,1.45.84,3.9-.58,5.03-1.34,1.07-3.3.58-4.14-1.03-.92-1.78-.07-4.15,1.43-4.89Z"/>
  <path class="cls-8" d="M501.65,397.99c-.69,1.21-2.65,4.32-6.1,5.75-.65.27-5.13,2.02-9.53-1.37-2.69-2.08-4.02-5.05-4.54-6.4,6.72.68,13.45,1.35,20.17,2.03Z"/>
  <path class="cls-8" d="M496.83,384.95c1.08-.53,2.48-.21,3.28.9,1.05,1.45.84,3.9-.58,5.03-1.34,1.07-3.3.58-4.14-1.03-.92-1.78-.07-4.15,1.43-4.89Z"/>
  <path class="cls-8" d="M215.06,463.73c.7-.67,1.7-.57,2.38.37.88,1.23.99,3.61.12,4.91-.82,1.23-2.24,1.05-2.99-.37-.82-1.57-.48-3.97.49-4.91Z"/>
  <path class="cls-8" d="M227.52,475.34c-.36,1.27-1.4,4.54-3.65,6.42-.43.36-3.36,2.71-6.78.11-2.09-1.59-3.32-4.24-3.82-5.47,4.75-.35,9.5-.71,14.25-1.06Z"/>
  <path class="cls-8" d="M222.81,463.56c.7-.67,1.7-.57,2.38.37.88,1.23.99,3.61.12,4.91-.82,1.23-2.24,1.05-2.99-.37-.82-1.57-.48-3.97.49-4.91Z"/>
  <path class="cls-8" d="M76.71,394.61c1.2-.58,2.86-.36,3.9.67,1.36,1.34,1.36,3.72-.17,4.91-1.45,1.12-3.78.77-4.91-.74-1.24-1.67-.5-4.02,1.18-4.83Z"/>
  <path class="cls-8" d="M96.45,407.73c-.68,1.22-2.65,4.35-6.52,5.95-.73.3-5.76,2.28-11.22-.74-3.34-1.85-5.17-4.64-5.91-5.92,7.88.24,15.76.47,23.65.71Z"/>
  <path class="cls-8" d="M89.55,395.4c1.2-.58,2.86-.36,3.9.67,1.36,1.34,1.36,3.72-.17,4.91-1.45,1.12-3.78.77-4.91-.74-1.24-1.67-.5-4.02,1.18-4.83Z"/>
  <path class="cls-10" d="M115.13,537.17c2.71-.22,3.55-5.44,2.58-7.89-1.56-3.93-9.19-4.2-9.11-.46.05,2.47,3.51,8.6,6.53,8.35Z"/>
</svg>