<?xml version="1.0" encoding="UTF-8"?>
<svg id="Layer_1" data-name="Layer 1" xmlns="http://www.w3.org/2000/svg" viewBox="0 0 637.68 348.54">
  <defs>
    <style>
      .cls-1 {
        fill: #006838;
      }

      .cls-1, .cls-2 {
        stroke: #006838;
        stroke-width: 5px;
      }

      .cls-1, .cls-2, .cls-3 {
        stroke-miterlimit: 10;
      }

      .cls-2 {
        fill: none;
      }

      .cls-3 {
        fill: #f5f2e3;
        stroke: #f5f2e3;
      }

      .cls-4 {
        fill: #2d9045;
      }

      .cls-4, .cls-5, .cls-6, .cls-7, .cls-8, .cls-9, .cls-10, .cls-11, .cls-12, .cls-13, .cls-14 {
        stroke-width: 0px;
      }

      .cls-5 {
        fill: #3b2314;
      }

      .cls-6 {
        fill: #5a4a42;
      }

      .cls-7 {
        fill: #227541;
      }

      .cls-8 {
        fill: #231f20;
      }

      .cls-9 {
        fill: #a87c4f;
      }

      .cls-10 {
        fill: #d1c9aa;
      }

      .cls-11 {
        fill: #be1e2d;
      }

      .cls-12 {
        fill: #c3996b;
      }

      .cls-13 {
        fill: #8ec669;
      }

      .cls-14 {
        fill: #306849;
      }
    </style>
  </defs>
  <rect class="cls-3" x=".5" y=".5" width="636.68" height="347.4"/>
  <line class="cls-2" x1="549.08" y1="162.47" x2="549.08" y2="318.38"/>
  <line class="cls-1" x1="86.62" y1="195.75" x2="86.62" y2="306"/>
  <path class="cls-13" d="M121.7,183.81c-28.19,23.99-73.55,13.2-91.27-12.1C1.02,129.72,43.72,41.92,82.94,40.01c24.22-1.18,46.84,30.4,55.01,56.44,7.12,22.7,10.6,64.51-16.25,87.35Z"/>
  <path class="cls-7" d="M516.27,102.36c-.86-1.4-13.34-22.52-2.05-38.98,14.09-20.55,57.1-22.03,72.96-2.46,12.77,15.76,1.97,37.81,1.27,39.2,23.71-.97,40.01,7.48,40.52,14.56.48,6.71-12.94,15.85-32.92,19.04,15.31,2.16,27.26,9.92,30.39,20.16,3.7,12.11-6.33,23.17-8.86,25.76-16.15,16.54-44.6,14.17-93.7,10.08-20.14-1.68-31.42-4.13-39.25-12.32-1.07-1.12-10.23-11-7.6-23.52,2.61-12.43,15.8-22.55,32.92-24.64-16.83-7.03-24.27-18.31-21.53-23.52,2.48-4.71,14.35-6.52,27.86-3.36Z"/>
  <path class="cls-12" d="M500.59,252.78c-8.01,1.33-43.51,7.24-48.97-2.18-5.49-9.47,16.59-39.34,47.81-45.74,32.75-6.71,57.95,16.02,59.47,17.43,9.5,8.85,19.61,24,15.16,29.4-5.26,6.38-25.35-7.42-58.3-2.18-7.11,1.13-6.36,1.8-15.16,3.27Z"/>
  <path class="cls-12" d="M537.93,320.82c-6.18,18.18-42.46,18.95-49.68.01-2.79-7.31,1.32-10.83,5.2-43.08,2.82-23.49,1.93-32.42,7.22-37.45,5.15-4.9,13.08-3.16,18.15,1.67,5.96,5.68,6.09,13.86,11.03,37.43,6.73,32.11,10.28,34.97,8.09,41.41Z"/>
  <path class="cls-12" d="M73.98,297.38c-3.98,11.89-27.34,12.39-31.99,0-1.8-4.78.85-7.08,3.35-28.17,1.82-15.36,1.25-21.2,4.65-24.49,3.32-3.2,8.42-2.06,11.68,1.09,3.84,3.72,3.92,9.07,7.1,24.48,4.33,21,6.62,22.87,5.21,27.08Z"/>
  <path class="cls-9" d="M453.78,251.41c-.89-4.97,25.23-12.77,43.61-16.39,16.86-3.32,54.31-10.67,67.01,4.68,3.05,3.68,5.38,9.53,2.94,12.45-4.25,5.1-18.1-4.49-40.3-4.28-19.79.19-23.14,8.05-46.67,8.22-8.43.06-25.89-.76-26.59-4.68Z"/>
  <path class="cls-4" d="M133.46,318.34c-14.8-.55-29.77-1.1-35.18-10.37-3.22-5.53-2.15-12.62.61-17.53,3.84-6.86,11.81-11.03,20.58-10.76-8.17-1.69-14.57-7.26-16.33-14.37-.34-1.37-1.92-8.48,3.03-14.61,5.73-7.11,15.05-6.49,15.76-6.43-7.07-1.01-11.97-5.71-12.12-10.52-.16-4.89,4.64-8.21,5.45-8.77,6.72-4.64,15.03-1.46,15.76-1.17.45-2.26,1.86-7.64,6.75-11.61,7.36-5.97,18.95-5.81,26.37-.26,4.92,3.68,6.66,8.71,7.27,10.9,6.2-2.24,12.77-.96,16.42,3.11.51.57,4.54,5.23,2.58,10.71-1.58,4.44-5.92,6.15-6.62,6.42,3.83.22,15.12,1.38,22.6,9.86,1.93,2.19,5.05,5.71,4.84,10.38-.26,6-5.89,11.66-14.26,14.27,7.91-2.69,16.4-1.42,21.92,3.48,8.71,7.75,6.96,21.88.69,28.43-2.61,2.73-5.52,3.63-28.56,5.46-13.46,1.07-22.58,1.57-35.76,2.34-17.9,1.04-18.63,1.14-21.79,1.02Z"/>
  <path class="cls-11" d="M14.98,248.58c-7.6-8.8,8.27-38.45,34.28-45.91,23.49-6.74,41.56,16.07,42.64,17.49,6.81,8.88,14.07,24.09,10.87,29.51-.36.61-.84.92-1.15,1.19-8.1,7.12-25.59-.16-43.7-2.57-27.21-3.62-37.9,6.13-42.95.28Z"/>
  <path class="cls-10" d="M33.17,218.97c-3.35,2.77-8.62,2.76-9.5,1.34-1.4-2.28,7.29-10.21,10.27-9.5,1.97.47,2.95,5.08-.78,8.16Z"/>
  <path class="cls-10" d="M50.55,208.9c-4.38,1.11-9.09-1.03-9.14-2.65-.09-2.6,11.66-6.15,13.96-4.31,1.52,1.22.07,5.72-4.82,6.96Z"/>
  <path class="cls-10" d="M38.75,231.25c-4.38,1.11-9.09-1.03-9.14-2.65-.09-2.6,11.66-6.15,13.96-4.31,1.52,1.22.07,5.72-4.82,6.96Z"/>
  <path class="cls-10" d="M61.65,224.35c-3.33,3.47-9.75,2.33-11.19,0-2.31-3.75,6.14-13.89,9.95-12.17,2.52,1.14,4.95,8.32,1.24,12.18Z"/>
  <path class="cls-10" d="M73.43,218.55c1.56.12,1.72-2.11,1-3.26-1.15-1.85-5.59-2.57-5.31-.92.19,1.09,2.57,4.05,4.31,4.18Z"/>
  <path class="cls-10" d="M79.06,232.1c2.54-.13,3.33-3.25,2.42-4.71-1.47-2.34-8.62-2.51-8.54-.27.05,1.48,3.29,5.13,6.12,4.98Z"/>
  <path class="cls-10" d="M60.46,240.24c4.09-.9,6.5-4.82,5.58-6.28-1.47-2.34-12.79-.43-13.49,2.19-.46,1.73,3.35,5.1,7.91,4.09Z"/>
  <path class="cls-10" d="M86.2,215.09c-2.53-.22-3.85,2.75-3.21,4.32,1.04,2.52,8.08,3.67,8.39,1.46.21-1.46-2.36-5.52-5.18-5.77Z"/>
  <path class="cls-10" d="M92.14,238.61c1.84,2.56,6.44.77,7.75-1.42,2.1-3.51-2.38-11.16-5.26-9.2-1.9,1.29-4.55,7.77-2.5,10.62Z"/>
  <path class="cls-6" d="M578.32,266.68c-5.54,1.09-30.09,5.95-33.86-1.79-3.8-7.79,11.47-32.34,33.05-37.6,22.64-5.52,40.07,13.16,41.12,14.32,6.57,7.27,13.56,19.73,10.48,24.17-3.64,5.24-17.53-6.1-40.31-1.79-4.92.93-4.4,1.48-10.48,2.69Z"/>
  <path class="cls-6" d="M607.88,309.17c-4.27,12.01-29.36,12.52-34.35,0-1.93-4.83.92-7.16,3.59-28.47,1.95-15.52,1.34-21.43,4.99-24.75,3.56-3.24,9.04-2.09,12.55,1.1,4.12,3.76,4.21,9.16,7.63,24.74,4.65,21.22,7.11,23.11,5.59,27.37Z"/>
  <path class="cls-5" d="M549.14,268.18c-.93-2.7,11.1-11.68,24.91-16.49,3.51-1.22,33.13-11.13,46.33,3.85,2.75,3.12,5.54,8.18,4.11,10.45-2.09,3.33-10.51-3.56-25.05-3.06-5.53.19-5.21,1.21-27.29,5.01-.45.08-4.46.76-9.87,1.07-7.66.44-12.61.72-13.14-.83Z"/>
  <path class="cls-14" d="M0,348.54v-49.38c20.84-2.99,49.49-5.11,82.99-1.57,23.36,2.47,43.3,7.08,59.15,11.8.71-10.2,4.68-16.12,8.32-19.66,18.1-17.65,66.52-14.09,119.22,11.8,1.47-9.13,6.22-27.42,23.1-36.96,26.27-14.85,75.16-4.74,109.05,33.03,5.6-3.98,27.24-18.41,58.22-17.3,45.43,1.63,69.4,35.18,71.16,37.75,6.64-3.89,24.6-13.3,49.9-13.37,30.29-.08,50.83,13.28,56.57,17.3v26.57H0Z"/>
  <path class="cls-8" d="M542.02,167.73c.94-.33,2.15-.13,2.84.57.91.91.73,2.46-.5,3.17-1.17.68-2.86.37-3.59-.65-.8-1.12-.06-2.62,1.24-3.09Z"/>
  <path class="cls-8" d="M555.67,176.91c-.6.77-2.3,2.72-5.29,3.63-.57.17-4.45,1.28-8.27-.87-2.34-1.31-3.48-3.19-3.94-4.04,5.83.43,11.67.85,17.5,1.28Z"/>
  <path class="cls-8" d="M551.49,168.69c.94-.33,2.15-.13,2.84.57.91.91.73,2.46-.5,3.17-1.17.68-2.86.37-3.59-.65-.8-1.12-.06-2.62,1.24-3.09Z"/>
  <path class="cls-8" d="M145,225.45c.65-.4,1.6-.34,2.23.22.82.73.93,2.15.11,2.93-.77.73-2.1.63-2.8-.22-.77-.94-.45-2.37.46-2.93Z"/>
  <path class="cls-8" d="M156.69,232.38c-.33.76-1.31,2.71-3.42,3.83-.4.21-3.15,1.61-6.36.06-1.96-.95-3.11-2.53-3.59-3.26,4.45-.21,8.91-.42,13.36-.63Z"/>
  <path class="cls-8" d="M152.27,225.35c.65-.4,1.6-.34,2.23.22.82.73.93,2.15.11,2.93-.77.73-2.1.63-2.8-.22-.77-.94-.45-2.37.46-2.93Z"/>
  <path class="cls-8" d="M77.83,170.04c.65-.4,1.6-.34,2.23.22.82.73.93,2.15.11,2.93-.77.73-2.1.63-2.8-.22-.77-.94-.45-2.37.46-2.93Z"/>
  <path class="cls-8" d="M89.52,176.96c-.33.76-1.31,2.71-3.42,3.83-.4.21-3.15,1.61-6.36.06-1.96-.95-3.11-2.53-3.59-3.26,4.45-.21,8.91-.42,13.36-.63Z"/>
  <path class="cls-8" d="M85.1,169.94c.65-.4,1.6-.34,2.23.22.82.73.93,2.15.11,2.93-.77.73-2.1.63-2.8-.22-.77-.94-.45-2.37.46-2.93Z"/>
</svg>