<svg width="55" height="50" viewBox="0 0 55 50" fill="none" xmlns="http://www.w3.org/2000/svg">
<path fill-rule="evenodd" clip-rule="evenodd" d="M4.5835 12.4998C4.5835 10.2897 5.54927 8.17008 7.26835 6.60728C8.98743 5.04448 11.319 4.1665 13.7502 4.1665H41.2502C43.6813 4.1665 46.0129 5.04448 47.732 6.60728C49.4511 8.17008 50.4168 10.2897 50.4168 12.4998V37.4998C50.4168 39.71 49.4511 41.8296 47.732 43.3924C46.0129 44.9552 43.6813 45.8332 41.2502 45.8332H13.7502C11.319 45.8332 8.98743 44.9552 7.26835 43.3924C5.54927 41.8296 4.5835 39.71 4.5835 37.4998V12.4998ZM13.7502 8.33317C12.5346 8.33317 11.3688 8.77216 10.5093 9.55356C9.64971 10.335 9.16683 11.3948 9.16683 12.4998V37.4998C9.16683 38.6049 9.64971 39.6647 10.5093 40.4461C11.3688 41.2275 12.5346 41.6665 13.7502 41.6665H41.2502C42.4657 41.6665 43.6315 41.2275 44.4911 40.4461C45.3506 39.6647 45.8335 38.6049 45.8335 37.4998V12.4998C45.8335 11.3948 45.3506 10.335 44.4911 9.55356C43.6315 8.77216 42.4657 8.33317 41.2502 8.33317H13.7502ZM27.5002 18.7498C25.6768 18.7498 23.9281 19.4083 22.6388 20.5804C21.3495 21.7525 20.6252 23.3422 20.6252 24.9998C20.6252 26.6574 21.3495 28.2472 22.6388 29.4193C23.9281 30.5914 25.6768 31.2498 27.5002 31.2498C29.3235 31.2498 31.0722 30.5914 32.3615 29.4193C33.6508 28.2472 34.3752 26.6574 34.3752 24.9998C34.3752 23.3422 33.6508 21.7525 32.3615 20.5804C31.0722 19.4083 29.3235 18.7498 27.5002 18.7498ZM16.0418 24.9998C16.0418 22.2372 17.249 19.5876 19.3979 17.6341C21.5468 15.6806 24.4612 14.5832 27.5002 14.5832C30.5391 14.5832 33.4536 15.6806 35.6024 17.6341C37.7513 19.5876 38.9585 22.2372 38.9585 24.9998C38.9585 27.7625 37.7513 30.412 35.6024 32.3655C33.4536 34.319 30.5391 35.4165 27.5002 35.4165C24.4612 35.4165 21.5468 34.319 19.3979 32.3655C17.249 30.412 16.0418 27.7625 16.0418 24.9998V24.9998ZM40.1043 16.6665C41.016 16.6665 41.8903 16.3373 42.535 15.7512C43.1797 15.1652 43.5418 14.3703 43.5418 13.5415C43.5418 12.7127 43.1797 11.9178 42.535 11.3318C41.8903 10.7457 41.016 10.4165 40.1043 10.4165C39.1926 10.4165 38.3183 10.7457 37.6736 11.3318C37.029 11.9178 36.6668 12.7127 36.6668 13.5415C36.6668 14.3703 37.029 15.1652 37.6736 15.7512C38.3183 16.3373 39.1926 16.6665 40.1043 16.6665Z" fill="#F5F3E5"/>
</svg>
