<svg xmlns="http://www.w3.org/2000/svg" xmlns:xlink="http://www.w3.org/1999/xlink" width="1080" zoomAndPan="magnify" viewBox="0 0 810 809.999993" height="1080" preserveAspectRatio="xMidYMid meet" version="1.0"><defs><clipPath id="4ede8b6a31"><path d="M 104.824219 201 L 704.824219 201 L 704.824219 609 L 104.824219 609 Z M 104.824219 201 " clip-rule="nonzero"/></clipPath></defs><g clip-path="url(#4ede8b6a31)"><path fill="#493847" d="M 661.070312 360.792969 L 255.933594 360.792969 C 255.933594 360.792969 341.285156 276.0625 343.539062 273.164062 C 349.394531 265.65625 352.910156 256.242188 352.910156 245.996094 C 352.910156 234.671875 348.632812 224.378906 341.644531 216.53125 L 338.054688 212.941406 C 330.21875 205.953125 319.914062 201.660156 308.589844 201.660156 C 296.953125 201.660156 286.375 206.210938 278.464844 213.558594 C 278.464844 213.558594 115 376.769531 114.167969 377.84375 C 108.382812 385.335938 104.910156 394.679688 104.910156 404.882812 C 104.910156 415.058594 108.382812 424.414062 114.152344 431.894531 C 116.492188 434.921875 280.503906 598.230469 280.503906 598.230469 C 288.109375 604.402344 297.796875 608.105469 308.359375 608.105469 C 332.832031 608.105469 352.679688 588.269531 352.679688 563.800781 C 352.679688 553.066406 348.863281 543.21875 342.519531 535.554688 L 255.933594 448.972656 L 661.070312 448.972656 C 685.425781 448.972656 705.160156 429.222656 705.160156 404.882812 C 705.160156 380.527344 685.425781 360.792969 661.070312 360.792969 " fill-opacity="1" fill-rule="nonzero"/></g></svg>