<svg xmlns="http://www.w3.org/2000/svg" xmlns:xlink="http://www.w3.org/1999/xlink" width="1080" zoomAndPan="magnify" viewBox="0 0 810 809.999993" height="1080" preserveAspectRatio="xMidYMid meet" version="1.0"><defs><clipPath id="5b556decd2"><path d="M 20.757812 20.757812 L 789.242188 20.757812 L 789.242188 789.242188 L 20.757812 789.242188 Z M 20.757812 20.757812 " clip-rule="nonzero"/></clipPath><clipPath id="302b379edf"><path d="M 405 20.757812 C 192.789062 20.757812 20.757812 192.789062 20.757812 405 C 20.757812 617.210938 192.789062 789.242188 405 789.242188 C 617.210938 789.242188 789.242188 617.210938 789.242188 405 C 789.242188 192.789062 617.210938 20.757812 405 20.757812 Z M 405 20.757812 " clip-rule="nonzero"/></clipPath><clipPath id="450492a97f"><path d="M 232.824219 114.886719 L 551.574219 114.886719 L 551.574219 695.386719 L 232.824219 695.386719 Z M 232.824219 114.886719 " clip-rule="nonzero"/></clipPath></defs><g clip-path="url(#5b556decd2)"><g clip-path="url(#302b379edf)"><path fill="#493847" d="M 20.757812 20.757812 L 789.242188 20.757812 L 789.242188 789.242188 L 20.757812 789.242188 Z M 20.757812 20.757812 " fill-opacity="1" fill-rule="nonzero"/></g></g><g clip-path="url(#450492a97f)"><path fill="#ffffff" d="M 494.597656 682.726562 L 331.328125 682.726562 L 331.328125 626.273438 L 494.597656 626.273438 Z M 255.332031 499.21875 C 255.332031 499.214844 255.332031 499.207031 255.332031 499.199219 L 245.273438 425.996094 C 245.253906 418.230469 247.3125 410.851562 251.148438 404.457031 C 252.558594 402.3125 254.222656 400.332031 256.144531 398.515625 C 265.785156 389.40625 281.34375 385.035156 299.992188 386.164062 L 369.953125 407.570312 C 377.855469 409.984375 384.328125 415.335938 388.191406 422.640625 C 392.046875 429.941406 392.824219 438.304688 390.371094 446.195312 L 386.84375 457.550781 C 382.402344 471.84375 361.875 468.636719 352.949219 466.496094 L 290.910156 445.269531 C 287.691406 444.175781 284.199219 445.886719 283.097656 449.101562 C 282.003906 452.3125 283.714844 455.8125 286.925781 456.90625 L 349.238281 478.226562 C 349.410156 478.285156 349.59375 478.335938 349.773438 478.378906 C 356.097656 479.921875 361.988281 480.675781 367.339844 480.675781 C 383.390625 480.675781 394.640625 473.886719 398.585938 461.199219 L 402.117188 449.84375 C 405.546875 438.808594 404.460938 427.109375 399.0625 416.894531 C 393.660156 406.679688 384.601562 399.191406 373.550781 395.808594 L 365.605469 393.378906 C 366.332031 392.371094 366.769531 391.140625 366.769531 389.800781 L 366.769531 152.226562 C 366.769531 138.449219 377.980469 127.238281 391.757812 127.238281 L 392.382812 127.238281 C 406.160156 127.238281 417.367188 138.449219 417.367188 152.226562 L 417.367188 377.679688 C 417.367188 381.070312 420.121094 383.828125 423.519531 383.828125 C 426.914062 383.828125 429.667969 381.070312 429.667969 377.679688 L 429.667969 199.792969 C 429.667969 186.015625 440.875 174.808594 454.652344 174.808594 L 455.28125 174.808594 C 469.058594 174.808594 480.265625 186.015625 480.265625 199.792969 L 480.265625 402.71875 C 480.265625 406.113281 483.019531 408.867188 486.417969 408.867188 C 489.8125 408.867188 492.566406 406.113281 492.566406 402.71875 L 492.566406 268.492188 C 492.566406 254.710938 503.773438 243.503906 517.550781 243.503906 L 518.179688 243.503906 C 531.132812 243.503906 538.117188 258.980469 538.117188 273.539062 L 538.117188 376.738281 C 538.0625 377.070312 538.023438 377.40625 538.023438 377.757812 C 538.058594 380.1875 538.085938 382.820312 538.117188 385.617188 L 538.117188 389.800781 C 538.117188 389.957031 538.148438 390.097656 538.164062 390.25 C 538.417969 417.828125 538.59375 458.289062 538.707031 486.421875 L 538.761719 498.753906 C 538.910156 532.574219 505.945312 598.363281 498.019531 613.683594 L 328.449219 613.972656 C 294.460938 563.476562 257.953125 507.128906 255.332031 499.21875 Z M 328.855469 157.359375 L 329.488281 157.359375 C 343.269531 157.359375 354.46875 168.566406 354.46875 182.347656 L 354.46875 389.800781 C 354.46875 389.863281 354.488281 389.921875 354.488281 389.976562 L 303.875 374.488281 L 303.875 182.347656 C 303.875 168.566406 315.082031 157.359375 328.855469 157.359375 Z M 551.058594 498.699219 L 551.003906 486.367188 C 550.878906 456.632812 550.699219 413.117188 550.414062 385.5625 L 550.414062 273.539062 C 550.414062 253.015625 539.121094 231.207031 518.179688 231.207031 L 517.550781 231.207031 C 507.949219 231.207031 499.183594 234.859375 492.566406 240.84375 L 492.566406 199.792969 C 492.566406 179.234375 475.84375 162.511719 455.28125 162.511719 L 454.652344 162.511719 C 445.050781 162.511719 436.285156 166.160156 429.667969 172.148438 L 429.667969 152.226562 C 429.667969 131.667969 412.945312 114.941406 392.382812 114.941406 L 391.757812 114.941406 C 371.199219 114.941406 354.46875 131.667969 354.46875 152.226562 L 354.46875 154.699219 C 347.855469 148.714844 339.09375 145.0625 329.488281 145.0625 L 328.855469 145.0625 C 308.300781 145.0625 291.578125 161.789062 291.578125 182.347656 L 291.578125 371.996094 C 278.5 370.84375 265.496094 374.480469 254.660156 382.585938 C 248.601562 387.113281 243.683594 392.691406 240.070312 398.980469 C 235.300781 406.800781 232.863281 416.105469 232.96875 426.441406 C 232.972656 426.699219 232.992188 426.957031 233.027344 427.21875 L 243.101562 500.527344 C 243.214844 503.367188 245.105469 509.589844 282.089844 566.273438 C 298.359375 591.207031 314.800781 615.710938 319.03125 622.003906 L 319.03125 688.875 C 319.03125 692.269531 321.785156 695.023438 325.179688 695.023438 L 500.746094 695.023438 C 504.136719 695.023438 506.894531 692.269531 506.894531 688.875 L 506.894531 623.160156 C 506.988281 623.015625 507.078125 622.882812 507.160156 622.734375 C 508.960938 619.375 551.242188 540.058594 551.058594 498.699219 " fill-opacity="1" fill-rule="nonzero"/></g><path fill="#ffffff" d="M 337.863281 508.917969 C 417.949219 516.746094 413.917969 576.773438 413.703125 579.386719 C 413.410156 582.765625 415.902344 585.742188 419.28125 586.046875 C 419.46875 586.066406 419.652344 586.074219 419.839844 586.074219 C 422.984375 586.074219 425.671875 583.667969 425.953125 580.472656 C 426.027344 579.699219 427.535156 561.324219 417.429688 541.75 C 408.148438 523.773438 387.023438 501.367188 339.054688 496.679688 C 335.667969 496.34375 332.671875 498.820312 332.339844 502.199219 C 332.007812 505.582031 334.480469 508.585938 337.863281 508.917969 " fill-opacity="1" fill-rule="nonzero"/></svg>