<?xml version="1.0" encoding="UTF-8"?><svg id="Layer_1" xmlns="http://www.w3.org/2000/svg" width="463.33" height="449.2" viewBox="0 0 463.33 449.2"><defs><style>.cls-1,.cls-2,.cls-3,.cls-4,.cls-5,.cls-6,.cls-7,.cls-8,.cls-9,.cls-10,.cls-11,.cls-12{stroke-miterlimit:10;}.cls-1,.cls-2,.cls-4,.cls-5,.cls-13{fill:#fff;}.cls-1,.cls-10,.cls-11{stroke:#231f20;}.cls-2,.cls-8{stroke:#be1e2d;}.cls-3{fill:#ed1c24;}.cls-3,.cls-4{stroke:#ed1c24;}.cls-5{stroke:#fff;}.cls-6,.cls-7{stroke:#e0ceb9;}.cls-6,.cls-14{fill:#e0ceb9;}.cls-7{fill:#e1ceb9;}.cls-8,.cls-15{fill:#be1e2d;}.cls-9,.cls-12{stroke:#594a42;}.cls-9,.cls-16{fill:#c2b59b;}.cls-10{fill:#9b8579;}.cls-11,.cls-12{fill:none;}.cls-17{fill:#d2c9aa;}.cls-17,.cls-14,.cls-15,.cls-16,.cls-13{stroke-width:0px;}</style></defs><path class="cls-11" d="M33.09,280.51c-.89,3.7-1.94,9.26-2.19,16.19-.17,4.58.06,8.55.36,11.66"/><ellipse class="cls-5" cx="455.28" cy="394.96" rx="2.21" ry="2.37"/><ellipse class="cls-5" cx="451.48" cy="388.63" rx=".4" ry=".43"/><path class="cls-9" d="M305.87,235.88c-3.7-10.43-.97-20.14-.09-23.33,3.51-12.68,3.14-26.74,2.4-54.85-.95-36.17-22.35-63.87-30.12-73.85-3.98-5.11-22.14-27.74-54.68-43.3-10.76-5.15-32.03-15.03-60.58-14.74-16.72.17-29.02,3.76-32.75,4.91,0,0-22.71,7.03-39.95,22.59-.92.83-2.22,1.93-3.72,3.66-3.6,4.15-5.9,9.09-11.94,19.98-11.42,20.59-11.53,17.95-18.07,30.53-2.25,4.33-4.2,8.4-5.94,12.36-6.82,15.51-12.13,33.92-12.13,33.92-10.66,31.97-9.99,46.73-17.99,61.66-2.95,5.51-8.27,13.51-18.3,21.59C5.85,148.5,35.48,91.59,53.79,63.02c20.58-32.12,35.71-42.27,42.17-46.18C144.08-12.31,212.91.16,257.4,33.63c0,0,72.78,54.71,64.4,159.71-1.37,17.14-4.93,36.39-4.93,36.39-.32,2.81-.89,6.09-1.92,9.66-.79,2.76-1.72,5.22-2.65,7.34-1.95-2.23-4.66-5.85-6.43-10.84Z"/><path class="cls-9" d="M5.16,229.45c10.62-23.14,60.39-25.91,93.18-27.43,42.5-1.97,82.13,2.22,93.18,3.39,9.96,1.05,38.32,4.36,58.87,4.3,3.31,0,7.56.13,16.07.41,15.68.52,19.48.99,24.02,2.53,4.22,1.43,9.56,3.24,14.09,8.3,5.01,5.61,6.28,12,6.91,15.65.34,1.95.34,6.38.33,15.24,0,0,0,2.82-.43,7.76-.38,4.47-.71,5.44-1.05,6.09-.15.3-.89,1.68-1.53,3.67-.04.12-.07.22-.09.28,0,0-.15,5.1-.3,10.6-.14,5.13.23,8.06-.37,12.94-.25,2-.43,2.74-.88,5.3-1.33,7.64-1.78,13.32-1.97,15.05-.72,6.77-5.32,27.92-16.1,51.25-4.82,10.43-13.16,26.1-26.33,42.68-9.11,11.47-16.45,18.18-22.32,22.88-6.6,5.28-13.29,10.53-23.57,14.04-8.06,2.75-14.73,3.2-20.72,3.6-10.04.67-15.06-.39-26.25-1.09-13.77-.86-21.59-.21-29.53-.15-29.8.25-55.85.48-76.18-12.46-22.34-14.21-30.44-39.98-40.41-71.52-4.7-14.87-7.27-28.83-10.17-44.59-3.7-20.09-5.7-37.03-6.86-49.11-1.3-1.95-3.39-5.49-4.73-10.26,0,0-3.95-13.91,3.13-29.34Z"/><path class="cls-11" d="M52.22,347.65c-1.35,3.84-2.72,8.94-3.28,15.04-.7,7.66.13,14.12,1.09,18.67"/><path class="cls-12" d="M6.61,269c-8.01-11.41-7.72-28.17-1.6-39.6,6.78-12.68,20.89-18.94,48.19-24.1,34.45-6.51,53.51-3.92,104.82-2.41,36.21,1.06,72.21,7.1,108.43,7.23,12.23.04,30.95.01,39.76,12.05,8.13,11.11,6.01,30.07,5.33,36.11-.84,7.49-2.38,10.3-2.98,11.32-6.1,10.3-20.25,12.28-26.8,13.1-72.59,9.15-107.8,7.74-107.8,7.74-42.57-1.7-27.79-2-82.19-4.76-3.46-.18-21.45.78-44.8-2.45-31.75-4.4-38.1-10.99-40.37-14.22Z"/><path class="cls-12" d="M6.61,269c2.95,28.37,8.84,67.64,21.29,108.59,6.29,20.69,14.98,44.2,36.14,56.63,3.62,2.13,6.71,3.4,9.87,4.71,21.59,8.91,39.44,7.95,58.88,7.78,56.59-.52,62.3,6.17,83.93-2.39,12.24-4.84,21.24-11.26,26.81-15.81,14.43-14.01,39.23-41.91,53.78-84.63,10.22-30.01,11.71-56.53,11.25-74.28"/><path class="cls-10" d="M38.75,225.79c-1.42.62-5.72,2.49-8.31,6.89-3.51,5.95-2.06,13.42-.6,16.68,5.42,12.05,31.27,11.47,48.67,11.38,57.43-.29,95.39-.49,132.53,4.82,10.06,1.44,34.09,5.28,58.82-3.69,17.05-6.19,20.49-13.41,21.44-17.27,0,0,1.54-6.3-2.38-13.7-10.95-20.65-67.85-5.65-150.17-14.74,0,0-62.16-6.86-100,9.64Z"/><path class="cls-12" d="M134.81,320.12c44.71.57,89.36-3.25,133.69-8.85,12.65-1.6,25.29-3.35,37.91-5.19"/><path class="cls-12" d="M11.06,303.11c26.6,5.41,52.6,13.41,80.14,14.82"/><path class="cls-12" d="M18.15,340.45c15.17,3.74,36.56,8.27,62.45,11.34,8.78,1.04,40.27,4.54,99.66,2.37,30.38-1.11,70.22-3.79,117.06-10.28"/><path class="cls-12" d="M27.9,377.59c36.2,7.35,66.77,10.2,89.08,11.37,43.04,2.25,77.37-.63,107.57-3.16,23.62-1.98,43.18-4.42,56.82-6.31"/><path class="cls-12" d="M39.44,407.24c23.41,4.16,49.08,7.52,76.75,9.4,54,3.67,102.19.77,142.6-4.55"/><path class="cls-12" d="M64.82,285.32c-.89,3.85-1.94,9.62-2.19,16.83-.17,4.76.06,8.89.36,12.12"/><path class="cls-11" d="M288.82,307.88c.41-3.45.74-8.58.1-14.84-.42-4.13-1.14-7.67-1.85-10.41"/><path class="cls-12" d="M257.39,312.91c.37-3.74.63-9.32-.08-16.13-.47-4.5-1.24-8.35-1.98-11.34"/><path class="cls-12" d="M222.16,316.54c.37-3.75.63-9.33-.08-16.16-.47-4.51-1.24-8.37-1.98-11.37"/><path class="cls-12" d="M97.91,286c-2.37,7.02-4.61,15.46-5.98,25.13-2.38,16.77-1.3,31.22.39,41.85"/><path class="cls-12" d="M133.43,288.17c1.07,10.3,1.62,22.34.94,35.73-.59,11.48-1.97,21.83-3.66,30.86"/><path class="cls-12" d="M175.08,319.52c.85-4.61,1.47-10.67.87-17.71-.37-4.33-1.13-8.15-1.98-11.37"/><path class="cls-9" d="M202.96,352.97c-2.36,6.7-4.6,14.83-5.98,24.19-2.39,16.23-1.28,30.18.39,40.29,11.27-.75,22.54-1.5,33.81-2.25,3.34-5.43,8.75-15.83,10.24-30.03,1.68-15.94-2.44-28.43-4.89-34.46-11.19.75-22.38,1.51-33.57,2.26Z"/><path class="cls-12" d="M152.4,354.86c-1.5,3.65-3.14,8.75-3.8,15.02-.89,8.47.41,15.45,1.61,19.89"/><path class="cls-12" d="M102.31,353.34c-1.66,3.33-3.93,8.91-4.53,16.18-.67,8.16,1.07,14.66,2.35,18.32"/><path class="cls-12" d="M267.13,381.36c1.78-3.71,4.19-9.89,4.79-17.88.56-7.44-.67-13.51-1.76-17.35"/><path class="cls-12" d="M211.05,446.28c2.39-3.73,5.59-9.8,7.03-17.87.83-4.63.86-8.73.63-11.98"/><path class="cls-12" d="M171.19,448.13c2.39-3.73,5.59-9.8,7.03-17.87.83-4.63.86-8.73.63-11.98"/><path class="cls-12" d="M75.71,412.61c-.89,3.5-1.94,8.74-2.19,15.3-.17,4.33.06,8.08.36,11.01"/><path class="cls-12" d="M122.1,417.43c-.89,3.91-1.94,9.77-2.19,17.09-.17,4.83.06,9.02.36,12.3"/><path class="cls-7" d="M77.66,216.27c-1.81,3.51-4.48,9.71-5.35,17.98-.65,6.25-1.28,12.27,1.72,17.05,5.06,8.06,18.51,9.51,24.05,2.51,3.88-4.91,2.78-12.62,1.72-20.06-1.25-8.72-4.29-15.23-6.44-19.05-5.23.53-10.46,1.05-15.69,1.58Z"/><path class="cls-3" d="M72.46,217.17s-3.93.4-15.38,0c-6.04-.21-8.19-.54-9.49-3.01-2.9-5.51,1.02-16.74,1.31-17.55,4.65-12.97,14.56-16.91,19.96-19.05,16.05-6.38,29.12,1.75,33.38,4.51,2.05,1.33,16.59,10.75,15.71,19.55-.37,3.74-3.53,5.93-6.54,8.02-5.72,3.97-9.88,3.72-18,4.51-9.67.94-8.44,1.74-20.94,3.01Z"/><ellipse class="cls-5" cx="75.13" cy="187.11" rx="3.36" ry="3.93"/><ellipse class="cls-5" cx="61.28" cy="196.81" rx="3.17" ry="3.7"/><ellipse class="cls-5" cx="72.73" cy="197.93" rx=".97" ry="1.13"/><ellipse class="cls-5" cx="60.04" cy="209.21" rx="3.23" ry="3.77"/><ellipse class="cls-4" cx="95.21" cy="196.34" rx="4.08" ry="4.17"/><ellipse class="cls-4" cx="88.04" cy="207.1" rx="3.49" ry="4.07"/><ellipse class="cls-5" cx="101.56" cy="204.41" rx="2.27" ry="2.69"/><ellipse class="cls-4" cx="108.89" cy="199.92" rx="2.67" ry="3.11"/><ellipse class="cls-4" cx="83.91" cy="192.88" rx="2.38" ry="2.77"/><ellipse class="cls-5" cx="92.27" cy="184.49" rx="2.24" ry="2.62"/><ellipse class="cls-5" cx="104.84" cy="192.07" rx="1.01" ry="1.04"/><ellipse class="cls-5" cx="80.81" cy="180.09" rx=".72" ry=".84"/><ellipse class="cls-5" cx="72.4" cy="208.47" rx="2.73" ry="3.19"/><ellipse class="cls-5" cx="54.43" cy="203.03" rx=".68" ry=".8"/><path class="cls-6" d="M221.6,234.93c-3.14,2.86-7.89,8.01-10.16,15.4-1.71,5.58-3.36,10.96.6,15.91,6.68,8.34,26.8,12.26,35.96,6.92,6.42-3.74,5.66-11,4.93-17.99-.86-8.21-4.7-14.74-7.49-18.65-7.95-.53-15.9-1.05-23.84-1.58Z"/><path class="cls-3" d="M213.66,234.75s-5.97-.39-23.19-2.96c-9.08-1.35-12.28-2.06-13.96-4.58-3.73-5.6,3.49-15.1,4.02-15.78,8.52-10.95,23.92-12.65,32.32-13.57,24.94-2.74,43.7,7.21,49.8,10.55,2.94,1.61,23.75,13.02,21.4,20.89-1,3.35-6.01,4.74-10.8,6.07-9.08,2.52-15.33,1.5-27.66.66-14.69-1-12.93-.04-31.93-1.28Z"/><ellipse class="cls-4" cx="221.19" cy="207.8" rx="3.62" ry="5.11" transform="translate(-12.94 400.9) rotate(-82.73)"/><ellipse class="cls-5" cx="199.18" cy="213.99" rx="3.41" ry="4.81" transform="translate(-38.31 384.48) rotate(-82.73)"/><ellipse class="cls-5" cx="216.32" cy="217.23" rx="1.04" ry="1.47" transform="translate(-26.55 404.3) rotate(-82.73)"/><ellipse class="cls-4" cx="195.86" cy="225.09" rx="3.47" ry="4.91" transform="translate(-52.22 390.88) rotate(-82.73)"/><ellipse class="cls-5" cx="253.76" cy="218.81" rx="2.13" ry="3.02" transform="translate(4.58 442.82) rotate(-82.73)"/><ellipse class="cls-4" cx="238.33" cy="228.55" rx="3.75" ry="5.3" transform="translate(-18.56 436.02) rotate(-82.73)"/><ellipse class="cls-5" cx="256.68" cy="226.51" rx=".6" ry=".85" transform="translate(-.5 452.44) rotate(-82.73)"/><ellipse class="cls-4" cx="270.6" cy="226" rx="2.87" ry="4.05" transform="translate(12.15 465.81) rotate(-82.73)"/><ellipse class="cls-4" cx="233.75" cy="214.76" rx="2.55" ry="3.61" transform="translate(-8.89 419.44) rotate(-82.73)"/><ellipse class="cls-4" cx="247.34" cy="208.7" rx="2.41" ry="3.41" transform="translate(9 427.63) rotate(-82.73)"/><ellipse class="cls-5" cx="264.66" cy="217.52" rx=".52" ry=".74" transform="translate(15.38 452.5) rotate(-82.73)"/><ellipse class="cls-5" cx="230.57" cy="202.48" rx=".78" ry="1.1" transform="translate(.52 405.56) rotate(-82.73)"/><ellipse class="cls-4" cx="214.58" cy="226.79" rx="2.94" ry="4.15" transform="translate(-37.56 410.93) rotate(-82.73)"/><ellipse class="cls-5" cx="188.12" cy="218.36" rx=".73" ry="1.04" transform="translate(-52.3 377.32) rotate(-82.73)"/><path class="cls-6" d="M150.09,222.78c-3.28,3.75-8.41,10.53-11.84,20.36-2.6,7.43-5.1,14.59-2.68,21.3,4.08,11.31,20.6,17.03,29.56,10.11,6.28-4.86,7.09-14.58,7.86-23.96.91-11.01-1.08-19.83-2.69-25.13-6.73-.89-13.47-1.79-20.2-2.68Z"/><path class="cls-8" d="M143.29,222.35s-5.06-.67-19.36-4.51c-7.54-2.03-10.15-3.06-11.09-6.45-2.09-7.58,6.04-20.12,6.64-21.02,9.54-14.45,23.13-16.35,30.54-17.38,22.01-3.07,36.16,10.68,40.73,15.3,2.21,2.23,17.83,17.98,14.21,28.46-1.53,4.45-6.13,6.2-10.52,7.86-8.32,3.16-13.5,1.64-23.94.22-12.44-1.69-11.12-.36-27.22-2.48Z"/><ellipse class="cls-2" cx="155.2" cy="186.47" rx="4.92" ry="4.35" transform="translate(-61.63 295.3) rotate(-76.88)"/><ellipse class="cls-5" cx="135.01" cy="194.24" rx="4.63" ry="4.09" transform="translate(-84.8 281.64) rotate(-76.88)"/><ellipse class="cls-5" cx="149.11" cy="198.98" rx="1.41" ry="1.25" transform="translate(-78.52 299.03) rotate(-76.88)"/><ellipse class="cls-5" cx="129.92" cy="209" rx="4.72" ry="4.17" transform="translate(-103.12 288.1) rotate(-76.88)"/><ellipse class="cls-2" cx="181.02" cy="201.98" rx="2.9" ry="2.57" transform="translate(-56.78 332.43) rotate(-76.88)"/><ellipse class="cls-2" cx="165.77" cy="214.65" rx="5.1" ry="4.51" transform="translate(-80.9 327.37) rotate(-76.88)"/><ellipse class="cls-5" cx="181.98" cy="212.35" rx=".82" ry=".73" transform="translate(-66.13 341.38) rotate(-76.88)"/><ellipse class="cls-2" cx="194.06" cy="212" rx="3.9" ry="3.45" transform="translate(-56.46 352.88) rotate(-76.88)"/><ellipse class="cls-5" cx="164.61" cy="196.09" rx="3.47" ry="3.07" transform="translate(-63.73 311.89) rotate(-76.88)"/><ellipse class="cls-5" cx="177.53" cy="188.31" rx="3.28" ry="2.9" transform="translate(-46.16 318.46) rotate(-76.88)"/><ellipse class="cls-5" cx="190.65" cy="200.52" rx=".71" ry=".63" transform="translate(-47.9 340.68) rotate(-76.88)"/><ellipse class="cls-5" cx="164.34" cy="179.58" rx="1.06" ry=".93" transform="translate(-47.85 298.88) rotate(-76.88)"/><ellipse class="cls-5" cx="145.69" cy="211.73" rx="4" ry="3.53" transform="translate(-93.58 305.55) rotate(-76.88)"/><ellipse class="cls-5" cx="124.61" cy="199.82" rx="1" ry=".88" transform="translate(-98.28 275.83) rotate(-76.88)"/><path class="cls-16" d="M97.14,266.78c7.4-2.18,18.13-4.75,31.28-5.77,3.98-.31,9.98-.61,29.11.43,29.12,1.57,27.11,2.91,45.65,3.49.04,0-.03,0,0,0,5.88.79,10.89.3,12.76.15,2.97-.24,1.16.15,16.21.58,5.6.16,8.41.24,9.86.22,2.99-.03,7.61.1,16.84.36,2.18.06,4.06.15,5.36,1.5.79.81,1.08,1.77,1.75,6.36.51,3.52.77,5.28.74,5.62-.28,3.38-39.01,4.52-164.5-.39-1.69-4.18-3.37-8.36-5.06-12.54Z"/><path class="cls-13" d="M128.42,261.01c9.7.14,19.41.28,29.11.43"/><path class="cls-1" d="M126.29,260.64c15.62.41,31.24.83,46.86,1.24"/><path class="cls-1" d="M202.04,264.37c10.64.75,21.81,1.24,33.47,1.37,7.15.08,14.1.03,20.86-.14"/><path class="cls-17" d="M317.21,352.76c-2.79,3.62-7.99,4.49-9.12,3.05-1.8-2.3,5.29-12.53,8.36-12.24,2.03.2,3.86,5.14.75,9.18Z"/><path class="cls-6" d="M401.22,380.62c-2.56,4.04-6.67,11.26-9.96,21.36-2.49,7.63-4.89,14.99-3.98,21.42,1.54,10.86,11.92,14.98,18.58,7.25,4.67-5.42,6.21-15.16,7.69-24.56,1.74-11.03,1.33-19.61.8-24.73-4.38-.25-8.76-.5-13.14-.75Z"/><path class="cls-8" d="M396.75,380.84s-3.29-.18-12.39-2.65c-4.8-1.3-6.43-2.08-6.7-5.37-.61-7.34,6.08-20.57,6.57-21.52,7.82-15.27,17.04-18.44,22.07-20.17,14.93-5.14,22.91,7.2,25.47,11.35,1.24,2,9.98,16.19,6.5,26.94-1.48,4.57-4.71,6.74-7.79,8.81-5.85,3.93-9.13,2.91-15.92,2.49-8.08-.5-7.35.7-17.82.12Z"/><ellipse class="cls-2" cx="402" cy="342.95" rx="5.03" ry="4.21" transform="translate(-54.68 608.78) rotate(-70.67)"/><ellipse class="cls-2" cx="392.77" cy="352.35" rx="4.74" ry="4" transform="translate(-71.19 603.65) rotate(-70.34)"/><ellipse class="cls-2" cx="404.51" cy="358.58" rx="2.62" ry="3.16" transform="translate(-2.4 714.43) rotate(-82.73)"/><ellipse class="cls-2" cx="388.78" cy="370.65" rx="2.96" ry="2.65" transform="translate(-104.98 582.15) rotate(-66.82)"/><ellipse class="cls-2" cx="422.36" cy="356.69" rx="3.21" ry="2.95"/><ellipse class="cls-2" cx="413.78" cy="365.58" rx="4.59" ry="4.22"/><ellipse class="cls-2" cx="424.18" cy="369.1" rx="2.73" ry="2.51"/><ellipse class="cls-2" cx="431.04" cy="367.63" rx="2.21" ry="2.03"/><ellipse class="cls-2" cx="412.46" cy="348.02" rx="3.84" ry="3.53"/><ellipse class="cls-2" cx="423.91" cy="342.95" rx="2.57" ry="2.36"/><ellipse class="cls-2" cx="430.11" cy="355.81" rx="1.95" ry="1.87" transform="translate(-122.26 436.31) rotate(-47.89)"/><ellipse class="cls-2" cx="417.99" cy="339.26" rx="3.34" ry="4.1" transform="translate(25.15 707.35) rotate(-82.2)"/><ellipse class="cls-2" cx="401.01" cy="372.94" rx="3.62" ry="4.5" transform="translate(-24.78 717.31) rotate(-81.89)"/><ellipse class="cls-2" cx="388.71" cy="359.84" rx="2.47" ry="3.13" transform="translate(-24.99 690.64) rotate(-81.44)"/><path class="cls-6" d="M429.36,407.4c-1.5,2.67-3.72,7.39-4.44,13.68-.54,4.75-1.06,9.34,1.43,12.98,4.2,6.13,15.37,7.24,19.96,1.91,3.22-3.74,2.31-9.61,1.43-15.27-1.03-6.64-3.56-11.59-5.35-14.5-4.34.4-8.68.8-13.03,1.2Z"/><path class="cls-3" d="M425.04,408.09s-3.26.3-12.77,0c-5.01-.16-6.8-.41-7.88-2.29-2.41-4.2.85-12.74,1.09-13.36,3.86-9.87,12.08-12.87,16.57-14.5,13.32-4.85,24.17,1.33,27.7,3.43,1.7,1.01,13.77,8.18,13.04,14.88-.31,2.85-2.93,4.51-5.43,6.11-4.75,3.02-8.2,2.83-14.94,3.43-8.03.71-7.01,1.32-17.38,2.29Z"/><ellipse class="cls-5" cx="427.26" cy="385.21" rx="2.79" ry="2.99"/><ellipse class="cls-5" cx="415.77" cy="392.59" rx="2.63" ry="2.82"/><ellipse class="cls-5" cx="425.27" cy="393.45" rx=".8" ry=".86"/><ellipse class="cls-5" cx="414.73" cy="402.04" rx="2.68" ry="2.87"/><ellipse class="cls-5" cx="445.67" cy="390.83" rx="1.65" ry="1.76"/><ellipse class="cls-5" cx="437.98" cy="400.43" rx="2.89" ry="3.1"/><ellipse class="cls-5" cx="447.78" cy="396.83" rx=".47" ry=".5"/><ellipse class="cls-5" cx="434.54" cy="389.61" rx="1.97" ry="2.11"/><ellipse class="cls-5" cx="441.49" cy="383.22" rx="1.86" ry="1.99"/><ellipse class="cls-5" cx="431.97" cy="379.87" rx=".6" ry=".64"/><ellipse class="cls-5" cx="424.99" cy="401.47" rx="2.27" ry="2.43"/><ellipse class="cls-5" cx="410.07" cy="397.33" rx=".57" ry=".61"/><path class="cls-14" d="M371.3,428.6c-1.71,13.85-24.66,18.27-31.55,5.3-2.66-5.01-.48-8-1.94-31.82-1.07-17.34-2.71-23.73.03-27.94,2.67-4.1,7.92-3.68,11.73-.72,4.48,3.49,5.55,9.41,11.56,25.99,8.18,22.59,10.78,24.29,10.17,29.19Z"/><path class="cls-15" d="M304.78,388.62c-9.13-8.52,1.01-44.03,25.28-56.61,21.91-11.36,43.98,10.97,45.31,12.36,8.37,8.73,18.35,24.41,16.21,30.96-.24.73-.66,1.17-.91,1.51-6.67,9.24-25.26,4.05-43.58,4.37-27.51.48-36.24,13.07-42.31,7.41Z"/><path class="cls-17" d="M332.48,338.71c-4.12,1.96-9.15.35-9.51-1.43-.58-2.87,10.36-8.75,12.97-7.09,1.72,1.1,1.13,6.34-3.46,8.52Z"/><path class="cls-17" d="M325,365.46c-4.12,1.96-9.15.35-9.51-1.43-.58-2.87,10.36-8.75,12.97-7.09,1.72,1.1,1.13,6.34-3.46,8.52Z"/><path class="cls-17" d="M346.3,354.02c-2.64,4.4-9.19,4.19-11.04,1.84-2.97-3.78,3.47-16.43,7.55-15.15,2.7.84,6.43,8.41,3.49,13.31Z"/><path class="cls-17" d="M356.85,345.64c1.56-.13,1.3-2.62.38-3.78-1.48-1.86-5.99-1.93-5.41-.15.39,1.18,3.29,4.07,5.03,3.93Z"/><path class="cls-17" d="M364.92,359.75c2.48-.57,2.68-4.15,1.51-5.62-1.88-2.36-8.96-1.36-8.47,1.11.32,1.63,4.2,5.15,6.96,4.52Z"/><path class="cls-17" d="M348.09,371.85c3.87-1.68,5.51-6.43,4.33-7.89-1.89-2.35-12.69,1.64-12.9,4.66-.13,2,4.25,5.1,8.56,3.23Z"/><path class="cls-17" d="M368.8,339.69c-2.54.17-3.29,3.68-2.36,5.32,1.5,2.62,8.65,2.74,8.54.23-.07-1.66-3.36-5.74-6.19-5.55Z"/><path class="cls-17" d="M379.03,364.8c2.29,2.54,6.5-.21,7.38-2.86,1.42-4.24-4.43-11.99-6.9-9.35-1.63,1.75-3.04,9.38-.49,12.2Z"/></svg>