<?xml version="1.0" encoding="UTF-8"?><svg id="Layer_1" xmlns="http://www.w3.org/2000/svg" width="192.01" height="135.34" viewBox="0 0 192.01 135.34"><defs><style>.cls-1,.cls-2,.cls-3,.cls-4,.cls-5{stroke-miterlimit:10;}.cls-1,.cls-3{fill:#fff;}.cls-1,.cls-5{stroke:#be1e2d;}.cls-2{fill:#ed1c24;stroke:#ed1c24;}.cls-3{stroke:#fff;}.cls-4{stroke:#e0ceb9;}.cls-4,.cls-6{fill:#e0ceb9;}.cls-5,.cls-7{fill:#be1e2d;}.cls-8{fill:#d2c9aa;}.cls-8,.cls-6,.cls-7{stroke-width:0px;}</style></defs><path class="cls-4" d="M37.53,66.38c-1.14,5.51-2.77,15.2-2.9,28.05-.1,9.71-.19,19.07,2.37,26.39,4.32,12.35,14.54,14.19,18.27,3.15,2.61-7.74,1.3-19.66.03-31.16-1.49-13.49-4.19-23.49-6.05-29.36-3.91.98-7.81,1.95-11.72,2.93Z"/><path class="cls-2" d="M34.71,66.08s-4.57.81-17.99.73c-7.08-.04-9.61-.44-11.29-4.22-3.74-8.42.14-26.02.43-27.29C10.47,14.97,21.82,8.39,28,4.8c18.37-10.66,34.18,1.34,39.33,5.41,2.49,1.97,20.08,15.89,19.61,29.59-.2,5.82-3.76,9.37-7.15,12.76-6.44,6.42-11.33,6.25-20.77,7.86-11.25,1.92-9.77,3.1-24.31,5.66Z"/><ellipse class="cls-3" cx="38.62" cy="19.21" rx="3.73" ry="6.1" transform="translate(-.75 1.58) rotate(-2.32)"/><ellipse class="cls-3" cx="23.9" cy="34.88" rx="3.51" ry="5.74" transform="translate(-1.4 1) rotate(-2.32)"/><ellipse class="cls-3" cx="36.65" cy="36.11" rx="1.07" ry="1.75" transform="translate(-1.43 1.52) rotate(-2.32)"/><ellipse class="cls-3" cx="23.31" cy="54.18" rx="3.58" ry="5.85" transform="translate(-2.18 .99) rotate(-2.32)"/><ellipse class="cls-3" cx="63.65" cy="29.66" rx="2.2" ry="3.6" transform="translate(-1.15 2.61) rotate(-2.32)"/><ellipse class="cls-3" cx="54.18" cy="49.65" rx="3.86" ry="6.32" transform="translate(-1.97 2.24) rotate(-2.32)"/><ellipse class="cls-3" cx="66.96" cy="41.78" rx=".62" ry="1.02" transform="translate(-1.64 2.75) rotate(-2.32)"/><ellipse class="cls-3" cx="48.7" cy="27.78" rx="2.63" ry="4.31" transform="translate(-1.09 2) rotate(-2.32)"/><ellipse class="cls-3" cx="57.44" cy="14.38" rx="2.49" ry="4.07" transform="translate(-.54 2.34) rotate(-2.32)"/><ellipse class="cls-3" cx="44.47" cy="8.07" rx=".8" ry="1.31" transform="translate(-.29 1.81) rotate(-2.32)"/><ellipse class="cls-3" cx="36.94" cy="52.47" rx="3.03" ry="4.96" transform="translate(-2.1 1.54) rotate(-2.32)"/><ellipse class="cls-3" cx="16.7" cy="44.84" rx=".76" ry="1.24" transform="translate(-1.81 .71) rotate(-2.32)"/><path class="cls-4" d="M136.28,67.98c-2.56,4.4-6.67,12.27-9.96,23.28-2.49,8.31-4.89,16.33-3.98,23.35,1.54,11.84,11.92,16.33,18.58,7.91,4.67-5.91,6.21-16.52,7.69-26.76,1.74-12.02,1.33-21.37.8-26.94-4.38-.27-8.76-.55-13.14-.82Z"/><path class="cls-5" d="M131.81,68.23s-3.29-.2-12.39-2.89c-4.8-1.42-6.43-2.26-6.7-5.85-.61-7.99,6.08-22.42,6.57-23.46,7.82-16.64,17.04-20.1,22.07-21.98,14.93-5.6,22.91,7.84,25.47,12.37,1.24,2.18,9.98,17.64,6.5,29.36-1.48,4.98-4.71,7.35-7.79,9.6-5.85,4.28-9.13,3.17-15.92,2.71-8.08-.55-7.35.76-17.82.13Z"/><ellipse class="cls-1" cx="137.06" cy="26.94" rx="5.45" ry="4.24" transform="translate(79.84 154.37) rotate(-76.94)"/><ellipse class="cls-1" cx="127.84" cy="37.18" rx="5.13" ry="4.03" transform="translate(62.74 153.31) rotate(-76.94)"/><ellipse class="cls-1" cx="139.57" cy="43.97" rx="2.85" ry="3.17" transform="translate(64.76 169.73) rotate(-76.74)"/><ellipse class="cls-1" cx="123.85" cy="57.12" rx="3.2" ry="2.67" transform="translate(40.26 164.89) rotate(-76.96)"/><circle class="cls-1" cx="157.43" cy="41.91" r="3.21"/><ellipse class="cls-1" cx="148.84" cy="51.6" rx="4.59" ry="4.6"/><circle class="cls-1" cx="159.25" cy="55.44" r="2.73"/><circle class="cls-1" cx="166.1" cy="53.83" r="2.21"/><ellipse class="cls-1" cx="147.53" cy="32.47" rx="3.84" ry="3.85"/><circle class="cls-1" cx="158.98" cy="26.94" r="2.57"/><ellipse class="cls-1" cx="165.17" cy="40.95" rx="2.1" ry="1.9" transform="translate(88.19 192.72) rotate(-77.03)"/><ellipse class="cls-1" cx="153.06" cy="22.92" rx="3.63" ry="4.11" transform="translate(95.69 166.66) rotate(-76.76)"/><ellipse class="cls-1" cx="136.07" cy="59.62" rx="3.93" ry="4.51" transform="translate(46.9 178.43) rotate(-76.77)"/><ellipse class="cls-1" cx="123.77" cy="45.35" rx="2.68" ry="3.14" transform="translate(51.33 155.48) rotate(-76.79)"/><path class="cls-4" d="M158.04,102.85c-1.5,2.67-3.72,7.39-4.44,13.68-.54,4.75-1.06,9.34,1.43,12.98,4.2,6.13,15.37,7.24,19.96,1.91,3.22-3.74,2.31-9.61,1.43-15.27-1.03-6.64-3.56-11.59-5.35-14.5-4.34.4-8.68.8-13.03,1.2Z"/><path class="cls-2" d="M153.72,103.54s-3.26.3-12.77,0c-5.01-.16-6.8-.41-7.88-2.29-2.41-4.2.85-12.74,1.09-13.36,3.86-9.87,12.08-12.87,16.57-14.5,13.32-4.85,24.17,1.33,27.7,3.43,1.7,1.01,13.77,8.18,13.04,14.88-.31,2.85-2.93,4.51-5.43,6.11-4.75,3.02-8.2,2.83-14.94,3.43-8.03.71-7.01,1.32-17.38,2.29Z"/><ellipse class="cls-3" cx="155.94" cy="80.66" rx="2.79" ry="2.99"/><ellipse class="cls-3" cx="144.45" cy="88.04" rx="2.63" ry="2.82"/><ellipse class="cls-3" cx="153.95" cy="88.9" rx=".8" ry=".86"/><ellipse class="cls-3" cx="143.42" cy="97.48" rx="2.68" ry="2.87"/><ellipse class="cls-3" cx="174.35" cy="86.28" rx="1.65" ry="1.76"/><ellipse class="cls-3" cx="166.66" cy="95.88" rx="2.89" ry="3.1"/><ellipse class="cls-3" cx="176.46" cy="92.28" rx=".47" ry=".5"/><ellipse class="cls-3" cx="163.22" cy="85.05" rx="1.97" ry="2.11"/><ellipse class="cls-3" cx="170.17" cy="78.67" rx="1.86" ry="1.99"/><ellipse class="cls-3" cx="160.65" cy="75.32" rx=".6" ry=".64"/><ellipse class="cls-3" cx="153.67" cy="96.92" rx="2.27" ry="2.43"/><ellipse class="cls-3" cx="138.76" cy="92.78" rx=".57" ry=".61"/><path class="cls-6" d="M116.02,118.7c-1.71,13.85-24.66,18.27-31.55,5.3-2.66-5.01-.48-8-1.94-31.82-1.07-17.34-2.71-23.73.03-27.94,2.67-4.1,7.92-3.68,11.73-.72,4.48,3.49,5.55,9.41,11.56,25.99,8.18,22.59,10.78,24.29,10.17,29.19Z"/><path class="cls-7" d="M49.51,78.73c-9.13-8.52,1.01-44.03,25.28-56.61,21.91-11.36,43.98,10.97,45.31,12.36,8.37,8.73,18.35,24.41,16.21,30.96-.24.73-.66,1.17-.91,1.51-6.67,9.24-25.26,4.05-43.58,4.37-27.51.48-36.24,13.07-42.31,7.41Z"/><path class="cls-8" d="M77.21,28.81c-4.12,1.96-9.15.35-9.51-1.43-.58-2.87,10.36-8.75,12.97-7.09,1.72,1.1,1.13,6.34-3.46,8.52Z"/><path class="cls-8" d="M69.73,55.57c-4.12,1.96-9.15.35-9.51-1.43-.58-2.87,10.36-8.75,12.97-7.09,1.72,1.1,1.13,6.34-3.46,8.52Z"/><path class="cls-8" d="M91.03,44.13c-2.64,4.4-9.19,4.19-11.04,1.84-2.97-3.78,3.47-16.43,7.55-15.15,2.7.84,6.43,8.41,3.49,13.31Z"/><path class="cls-8" d="M101.57,35.75c1.56-.13,1.3-2.62.38-3.78-1.48-1.86-5.99-1.93-5.41-.15.39,1.18,3.29,4.07,5.03,3.93Z"/><path class="cls-8" d="M109.64,49.86c2.48-.57,2.68-4.15,1.51-5.62-1.88-2.36-8.96-1.36-8.47,1.11.32,1.63,4.2,5.15,6.96,4.52Z"/><path class="cls-8" d="M92.81,61.95c3.87-1.68,5.51-6.43,4.33-7.89-1.89-2.35-12.69,1.64-12.9,4.66-.13,2,4.25,5.1,8.56,3.23Z"/><path class="cls-8" d="M113.52,29.8c-2.54.17-3.29,3.68-2.36,5.32,1.5,2.62,8.65,2.74,8.54.23-.07-1.66-3.36-5.74-6.19-5.55Z"/><path class="cls-8" d="M123.75,54.91c2.29,2.54,6.5-.21,7.38-2.86,1.42-4.24-4.43-11.99-6.9-9.35-1.63,1.75-3.04,9.38-.49,12.2Z"/><path class="cls-4" d="M19.78,109.42c-1.12,1.82-2.78,5.03-3.31,9.31-.4,3.24-.79,6.36,1.06,8.83,3.13,4.18,11.47,4.93,14.89,1.3,2.4-2.55,1.72-6.54,1.06-10.39-.77-4.52-2.66-7.89-3.99-9.87-3.24.27-6.48.54-9.72.82Z"/><path class="cls-2" d="M16.57,109.89s-2.43.21-9.53,0c-3.74-.11-5.07-.28-5.88-1.56-1.8-2.86.63-8.67.81-9.09,2.88-6.72,9.02-8.76,12.36-9.87,9.94-3.3,18.04.91,20.68,2.34,1.27.69,10.28,5.57,9.73,10.13-.23,1.94-2.19,3.07-4.05,4.16-3.54,2.05-6.12,1.93-11.15,2.34-5.99.49-5.23.9-12.97,1.56Z"/><ellipse class="cls-3" cx="18.22" cy="94.32" rx="2.08" ry="2.03"/><ellipse class="cls-3" cx="9.64" cy="99.34" rx="1.96" ry="1.92"/><ellipse class="cls-3" cx="16.74" cy="99.93" rx=".6" ry=".59"/><ellipse class="cls-3" cx="8.87" cy="105.77" rx="2" ry="1.95"/><ellipse class="cls-3" cx="31.96" cy="98.14" rx="1.23" ry="1.2"/><ellipse class="cls-3" cx="26.22" cy="104.68" rx="2.16" ry="2.11"/><ellipse class="cls-3" cx="33.53" cy="102.23" rx=".35" ry=".34"/><ellipse class="cls-3" cx="23.66" cy="97.31" rx="1.47" ry="1.44"/><ellipse class="cls-3" cx="28.84" cy="92.96" rx="1.39" ry="1.36"/><ellipse class="cls-3" cx="21.74" cy="90.68" rx=".45" ry=".44"/><ellipse class="cls-3" cx="16.53" cy="105.38" rx="1.69" ry="1.65"/><ellipse class="cls-3" cx="5.4" cy="102.57" rx=".42" ry=".41"/></svg>