<svg xmlns="http://www.w3.org/2000/svg" xmlns:xlink="http://www.w3.org/1999/xlink" width="1080" zoomAndPan="magnify" viewBox="0 0 810 809.999993" height="1080" preserveAspectRatio="xMidYMid meet" version="1.0"><path fill="#7ed5e8" d="M 506.957031 520.054688 C 495.109375 520.054688 495.128906 502.628906 506.957031 502.628906 C 518.808594 502.628906 518.789062 520.054688 506.957031 520.054688 Z M 444.070312 633.679688 C 455.917969 633.679688 455.898438 651.109375 444.070312 651.109375 C 432.222656 651.109375 432.238281 633.679688 444.070312 633.679688 Z M 324.140625 295.394531 C 312.296875 295.394531 312.3125 277.964844 324.140625 277.964844 C 335.988281 277.964844 335.96875 295.394531 324.140625 295.394531 Z M 304.519531 514.449219 C 286.75 514.449219 286.78125 488.304688 304.519531 488.304688 C 322.292969 488.304688 322.265625 514.449219 304.519531 514.449219 Z M 299.28125 702.425781 C 287.429688 702.425781 287.449219 684.988281 299.28125 684.988281 C 311.128906 684.988281 311.105469 702.425781 299.28125 702.425781 Z M 160.335938 667.058594 C 148.492188 667.058594 148.511719 649.628906 160.335938 649.628906 C 172.183594 649.628906 172.164062 667.058594 160.335938 667.058594 Z M 120.257812 516.175781 C 112.039062 523.207031 101.847656 520.972656 107.933594 509.410156 C 114.484375 502.628906 124.753906 510.96875 120.257812 516.175781 Z M 170.097656 366.082031 C 168.820312 366.082031 167.851562 365.675781 167.023438 365.140625 C 164.957031 364.738281 163.699219 363.347656 163.140625 361.730469 C 163.117188 361.664062 163.085938 361.609375 163.0625 361.542969 C 162.960938 361.21875 162.929688 360.890625 162.890625 360.550781 C 162.417969 357.601562 164.132812 354.277344 168.199219 354.277344 L 168.953125 354.277344 C 171.101562 354.277344 172.535156 355.25 173.417969 356.5625 C 177.003906 359.25 175.953125 366.082031 170.097656 366.082031 Z M 460.15625 352.160156 C 472.007812 352.160156 471.988281 369.589844 460.15625 369.589844 C 448.308594 369.589844 448.328125 352.160156 460.15625 352.160156 Z M 516.667969 490.378906 C 491.007812 486.328125 465.3125 515.425781 441.078125 497.671875 C 448.835938 493.746094 469.90625 493.46875 468.121094 481.214844 C 466.65625 471.210938 450.941406 474.5 443.578125 476.089844 C 411.054688 483.136719 379.621094 505.042969 344.878906 494.304688 C 357.871094 462.617188 400.851562 463.226562 428.867188 448.75 C 437.027344 444.53125 459.328125 427.101562 438.925781 422.195312 C 425.433594 418.953125 413.617188 433.632812 401.132812 435.3125 C 415.222656 415.660156 438.335938 404.4375 459.042969 391.382812 C 473.824219 382.058594 498.25 365.308594 481.546875 347.734375 C 469.464844 335.015625 444.003906 335.230469 433.613281 349.652344 C 426.742188 359.175781 430.171875 371.292969 424.769531 381.269531 C 419.359375 391.25 403.71875 408.304688 393.332031 413.300781 C 391.0625 405.785156 398.523438 379.027344 387.027344 376.824219 C 373.394531 374.21875 371.320312 391.898438 369.703125 399.773438 C 364.695312 424.179688 359.191406 456.023438 330.261719 466.644531 C 323.765625 431.578125 347.007812 402.480469 365.882812 374.042969 C 370.5625 366.992188 380.457031 350.234375 362.988281 350.320312 C 351.054688 350.375 340.960938 375.140625 332.058594 380.1875 C 330.082031 357.070312 338.117188 325.84375 342.832031 304.589844 C 345.894531 290.789062 351.597656 266.117188 330.425781 260.964844 C 311.207031 256.296875 298.808594 278.359375 297.960938 292.21875 C 296.726562 312.371094 308.507812 331.859375 311.949219 351.488281 C 313.1875 358.542969 314.441406 390.488281 297.742188 383.136719 C 288.542969 379.078125 290.320312 363.710938 280.386719 360.183594 C 264.089844 354.40625 267.761719 377.929688 270.378906 384.824219 C 275.058594 397.132812 283.761719 407.390625 290.953125 418.515625 C 296.667969 427.359375 307.832031 446.292969 296.550781 455.582031 C 288.105469 462.53125 274.613281 455.199219 268.851562 448.640625 C 254.226562 431.976562 261.617188 406.34375 259.335938 386.902344 C 258.464844 379.488281 255.824219 362.507812 244.445312 363.195312 C 229.742188 364.085938 239.527344 383.480469 235.039062 390.5 C 220.464844 413.273438 198.300781 356.28125 193.28125 350.894531 C 182.304688 339.128906 144.117188 329.5 140.242188 352.285156 C 135.671875 379.113281 178.539062 377.683594 197.644531 410.175781 C 189.339844 412.957031 162.761719 409.125 166.402344 420.445312 C 168.976562 428.453125 181.648438 430.1875 189.210938 432.433594 C 214.890625 440.066406 241.601562 450.132812 259.984375 468.757812 C 266.113281 474.964844 273.941406 484.40625 268.621094 492.820312 C 261.898438 503.449219 245.054688 500.539062 235.324219 495.75 C 219.472656 487.945312 208.335938 466.363281 188.363281 466.285156 C 161.085938 466.167969 196.183594 490.40625 183.148438 500.140625 C 170.496094 509.59375 135.574219 494.867188 122.601562 492.039062 C 104.09375 488 83.144531 493.859375 80.890625 513.332031 C 78.730469 532.027344 96.382812 544.101562 115.773438 541.945312 C 138.800781 539.375 158.214844 522.347656 181.730469 522.375 C 210.96875 522.402344 176.265625 542.386719 184.027344 550.757812 C 190.976562 558.261719 212.964844 546.445312 218.945312 542.488281 C 230.277344 535 244.910156 520.667969 260.0625 520.578125 C 278.144531 520.46875 273.503906 535.117188 263.75 542.285156 C 253.273438 549.980469 239.871094 555.09375 226.914062 558.242188 C 212.589844 561.722656 189.363281 564.429688 186.53125 581.460938 C 184.882812 591.378906 220.148438 591.746094 203.371094 606.425781 C 196.234375 612.675781 185.023438 623.890625 176.800781 628.382812 C 162.355469 636.257812 138.710938 638.105469 133.992188 655.601562 C 129.523438 672.195312 148.988281 692.875 168.328125 688.359375 C 187.527344 683.886719 186.125 661.066406 191.515625 647.566406 C 199.273438 628.128906 216.917969 613.402344 236.019531 602.792969 C 237.035156 604.183594 236.867188 617.355469 248.328125 609.832031 C 254.714844 605.644531 259.761719 597.242188 262.199219 590.109375 C 265.410156 572.523438 270.445312 555.210938 288.898438 546.25 C 293.65625 560.25 285.316406 574.066406 279.066406 586.457031 C 276.375 591.800781 258.121094 607.339844 251.78125 623.246094 C 248.773438 630.800781 253.503906 639.6875 261.917969 640.957031 C 269.734375 642.136719 278.601562 622.304688 286.339844 614.707031 C 288.640625 626 290.222656 654.972656 286.5 666.355469 C 283.339844 676.027344 274.042969 683.117188 271.828125 693.125 C 268.160156 709.773438 284.253906 728.585938 304.015625 723.671875 C 322.261719 719.136719 323.597656 699.753906 323.132812 685.570312 C 322.296875 659.609375 312.261719 633.648438 319.683594 607.765625 C 326.570312 614.429688 329.003906 629.15625 341.207031 629.898438 C 354.382812 630.699219 351.511719 617.695312 348.011719 610.566406 C 341.789062 597.882812 328.800781 589.222656 323.550781 575.984375 C 317.949219 561.855469 320.519531 546.03125 325.664062 532.117188 C 342.824219 542.9375 361.132812 557.835938 366.363281 576.945312 C 369.6875 589.105469 365.613281 602.953125 371.488281 614.609375 C 374.152344 619.890625 378.558594 621.0625 382.242188 621.921875 C 392.652344 617.539062 385.238281 596.09375 397.503906 607.339844 C 397.875 607.679688 414.199219 618.707031 417.894531 627.414062 C 418.96875 629.949219 415.730469 651.074219 418.144531 658.652344 C 428.085938 689.855469 477.042969 658.203125 475.097656 636.253906 C 473.792969 621.542969 454.847656 619.53125 443.015625 614.175781 C 437.90625 611.863281 416.566406 594.382812 416.730469 589.671875 C 416.902344 584.789062 419.527344 582.371094 424.128906 582.808594 C 441.59375 584.472656 458.65625 563.613281 434.992188 553.539062 C 434.945312 553.519531 422.960938 549.695312 416.695312 549.773438 C 411.730469 549.84375 391.632812 546.550781 383.226562 542.253906 C 383.140625 542.210938 383.089844 542.144531 383.019531 542.089844 C 381.582031 541.84375 370.394531 532.167969 367.117188 526.179688 C 378.265625 520.769531 402.519531 536 408.40625 537.609375 C 416.78125 539.445312 440.480469 535.976562 429.285156 524.585938 C 403.90625 498.75 484.023438 534.828125 507.660156 533.253906 C 535.714844 531.375 551.394531 495.867188 516.667969 490.378906 " fill-opacity="1" fill-rule="nonzero"/><path fill="#7ed5e8" d="M 514.960938 173.757812 C 514.832031 160.417969 514.742188 147.078125 514.570312 133.734375 C 514.445312 123.984375 509.492188 106.089844 520.800781 101.222656 C 545.511719 90.574219 538.066406 167.824219 538.289062 179.636719 C 549.132812 176.046875 558.460938 151.023438 566.808594 143.289062 C 572.1875 138.304688 581.34375 127.433594 589.328125 133.003906 C 605.859375 144.527344 566.355469 179.046875 559.765625 187.503906 C 569.03125 191.941406 580.445312 190.128906 590.621094 191.542969 C 599.46875 192.773438 613.449219 189.664062 621.421875 193.671875 C 628.925781 197.441406 628.613281 206.179688 623.3125 212.042969 C 616.050781 220.0625 602.929688 217.128906 593.292969 216.683594 C 583.398438 216.226562 569.195312 212.675781 559.574219 215.109375 C 554.960938 216.277344 552 216.261719 553.636719 222.691406 C 554.746094 227.039062 561.871094 232.269531 564.851562 235.492188 C 573.484375 244.820312 602.699219 266.050781 594.0625 280.625 C 579.59375 305.039062 556.363281 240.269531 543.699219 238.875 C 533.324219 237.738281 545.695312 304.808594 533.554688 312.886719 C 512.359375 326.992188 517.039062 282.171875 516.386719 271.542969 C 515.695312 260.203125 516.605469 247.238281 514.472656 236.136719 C 513.472656 230.917969 513.957031 228.445312 507.742188 230.992188 C 504.324219 232.386719 500.785156 238.496094 498.5 241.097656 C 492.207031 248.261719 462.511719 291.492188 452.035156 276.046875 C 446.222656 267.472656 458.328125 255.96875 463.585938 249.761719 C 471.8125 240.039062 489.769531 231.148438 495.109375 219.527344 C 480.085938 215.464844 454.023438 216.328125 438.652344 214.355469 C 428.539062 213.0625 409.703125 210.304688 415.542969 195.398438 C 420.523438 182.6875 437.300781 187.699219 447.425781 188.925781 C 455.296875 189.878906 472.203125 191.574219 480.179688 191.179688 C 488.242188 190.78125 491.148438 191.484375 488.808594 183.207031 C 485.59375 171.828125 431.019531 136.371094 457.117188 127.605469 C 469.929688 123.296875 480.4375 139.574219 487.589844 147.476562 C 496.210938 157.011719 505.121094 165.554688 514.960938 173.757812 " fill-opacity="1" fill-rule="nonzero"/><path fill="#7ed5e8" d="M 614.910156 392.886719 C 611.847656 386.160156 588.53125 371.394531 597.097656 364.484375 C 606.785156 356.667969 624.640625 376.71875 631.410156 381.945312 C 634.230469 370.9375 631.945312 358.71875 631.332031 347.417969 C 630.972656 340.855469 625.625 316.476562 637.054688 315.636719 C 649.683594 314.707031 647.945312 335.46875 648.253906 342.484375 C 648.789062 354.464844 648.726562 371.4375 650.855469 383.269531 C 656.199219 374.71875 672.375 360.222656 676.484375 369.164062 C 680.375 377.632812 659.4375 386.492188 659.960938 392.726562 C 660.480469 398.878906 686.832031 395.3125 692.8125 394.765625 C 697.480469 394.339844 729.003906 391.074219 721.582031 403.523438 C 718.976562 407.898438 709.707031 406.59375 705.5625 406.519531 C 698.945312 406.394531 692.949219 406.570312 686.410156 407.816406 C 682.496094 408.566406 670.824219 409.4375 667.761719 411.945312 C 663.511719 415.421875 668.550781 419.402344 671.734375 422.453125 C 675.609375 426.167969 680.777344 429.027344 681.894531 434.519531 C 682.773438 438.808594 680.988281 444.246094 675.742188 444.851562 C 667.785156 445.769531 654.109375 425.601562 650.335938 416.945312 C 650.195312 416.613281 649.714844 416.644531 649.613281 416.984375 C 645.65625 430.582031 649.394531 457.40625 649.339844 470.929688 C 649.320312 476.714844 649.027344 499.300781 637.328125 495.800781 C 627.300781 492.800781 631.769531 466.042969 631.914062 458.699219 C 632.035156 452.808594 635.695312 417.53125 629.734375 416.929688 C 626.09375 416.558594 625.054688 419.757812 620.0625 426.253906 C 615.679688 431.953125 612.03125 436.789062 606.691406 441.652344 C 603.757812 444.320312 593.527344 450.515625 591.257812 442.9375 C 589.71875 437.8125 598.074219 431.582031 601.1875 428.382812 C 605.019531 424.449219 609.082031 420.652344 611.332031 415.660156 C 613.046875 411.855469 612.929688 411.925781 609.363281 410.410156 C 606.273438 409.101562 602.234375 409.277344 598.941406 409.230469 C 584.238281 409.042969 568.703125 414.71875 554.167969 413.273438 C 549.582031 412.816406 541.722656 410.027344 545.144531 404.367188 C 547.945312 399.730469 559.789062 400.128906 564.582031 399.597656 C 573.554688 398.59375 582.550781 397.734375 591.539062 396.824219 C 599.058594 396.054688 608.421875 396.617188 614.910156 392.886719 " fill-opacity="1" fill-rule="nonzero"/><path fill="#7ed5e8" d="M 576.066406 356.367188 C 566.953125 355.445312 569.566406 342.746094 578.527344 343.546875 C 588.839844 344.476562 585.746094 357.34375 576.066406 356.367188 " fill-opacity="1" fill-rule="nonzero"/><path fill="#7ed5e8" d="M 702.289062 346.164062 C 702.003906 353.839844 689.320312 353.730469 688.34375 346.421875 C 687.167969 337.582031 702.609375 337.4375 702.289062 346.164062 " fill-opacity="1" fill-rule="nonzero"/><path fill="#7ed5e8" d="M 573.34375 464.050781 C 581.492188 464.097656 581.507812 476.285156 573.132812 475.902344 C 564.867188 475.527344 564.855469 464.003906 573.34375 464.050781 " fill-opacity="1" fill-rule="nonzero"/><path fill="#7ed5e8" d="M 703.492188 462.957031 C 695.332031 462.847656 694.746094 451.308594 703.347656 451.660156 C 711.613281 452 712.167969 463.074219 703.492188 462.957031 " fill-opacity="1" fill-rule="nonzero"/></svg>