<svg xmlns="http://www.w3.org/2000/svg" xmlns:xlink="http://www.w3.org/1999/xlink" width="1080" zoomAndPan="magnify" viewBox="0 0 810 809.999993" height="1080" preserveAspectRatio="xMidYMid meet" version="1.0"><defs><clipPath id="8e574a672d"><path d="M 467 81 L 476 81 L 476 589 L 467 589 Z M 467 81 " clip-rule="nonzero"/></clipPath><clipPath id="b789b6212e"><path d="M 218.410156 329 L 726 329 L 726 338 L 218.410156 338 Z M 218.410156 329 " clip-rule="nonzero"/></clipPath><clipPath id="871641ca9e"><path d="M 234 323 L 412 323 L 412 689.882812 L 234 689.882812 Z M 234 323 " clip-rule="nonzero"/></clipPath></defs><g clip-path="url(#8e574a672d)"><path fill="#000000" d="M 467.226562 79.476562 L 475.226562 79.476562 L 475.226562 588.15625 L 467.226562 588.15625 Z M 467.226562 79.476562 " fill-opacity="1" fill-rule="nonzero"/></g><path fill="#000000" d="M 294.234375 151.109375 L 653.933594 510.808594 L 648.21875 516.523438 L 288.519531 156.824219 Z M 294.234375 151.109375 " fill-opacity="1" fill-rule="nonzero"/><path fill="#000000" d="M 653.933594 156.824219 L 294.234375 516.523438 L 288.519531 510.808594 L 648.21875 151.109375 Z M 653.933594 156.824219 " fill-opacity="1" fill-rule="nonzero"/><g clip-path="url(#b789b6212e)"><path fill="#000000" d="M 216.886719 329.816406 L 725.566406 329.816406 L 725.566406 337.816406 L 216.886719 337.816406 Z M 216.886719 329.816406 " fill-opacity="1" fill-rule="nonzero"/></g><path fill="#000000" d="M 475.226562 313.429688 C 475.226562 313.429688 474.847656 319.910156 482.085938 317.621094 L 489.707031 315.335938 L 487.421875 322.574219 C 487.421875 322.574219 485.515625 328.292969 488.945312 329.816406 L 497.707031 334.386719 L 488.183594 337.4375 C 488.183594 337.4375 483.992188 338.578125 484.371094 342.390625 L 484.753906 348.484375 L 479.039062 346.582031 C 479.039062 346.582031 475.609375 345.4375 474.464844 346.582031 L 471.417969 350.773438 L 468.367188 346.582031 C 468.367188 346.582031 467.226562 344.675781 464.941406 345.4375 L 458.84375 346.960938 L 459.984375 340.867188 C 459.984375 340.867188 460.367188 338.199219 458.84375 337.4375 L 452.367188 334.386719 L 458.082031 330.578125 C 458.082031 330.578125 460.367188 329.054688 459.605469 327.527344 L 456.558594 322.574219 L 462.652344 321.433594 C 462.652344 321.433594 467.226562 320.671875 467.988281 317.621094 L 468.367188 317.621094 C 467.988281 315.335938 467.988281 313.429688 467.988281 313.429688 L 475.988281 313.429688 Z M 478.65625 326.386719 C 475.609375 326.386719 473.703125 325.625 472.179688 324.863281 C 470.65625 326.386719 469.132812 327.148438 467.605469 327.910156 C 467.605469 330.195312 466.84375 332.101562 465.703125 333.625 C 466.464844 334.769531 466.84375 336.292969 467.226562 337.4375 C 468.75 337.816406 470.273438 338.199219 471.417969 338.960938 C 473.324219 338.199219 475.226562 337.816406 476.75 337.816406 C 477.515625 335.53125 479.039062 334.007812 480.179688 332.863281 C 479.039062 330.957031 478.65625 328.292969 478.65625 326.386719 Z M 478.65625 326.386719 " fill-opacity="1" fill-rule="nonzero"/><path fill="#000000" d="M 475.226562 307.335938 C 475.226562 307.335938 473.703125 316.097656 488.5625 311.144531 L 495.421875 308.859375 L 493.515625 316.097656 C 493.515625 316.097656 490.851562 325.625 498.851562 329.816406 L 505.710938 333.246094 L 498.851562 336.675781 C 498.851562 336.675781 491.613281 340.484375 491.613281 349.628906 L 491.613281 354.582031 L 486.660156 353.820312 C 486.660156 353.820312 477.132812 352.296875 473.703125 356.488281 L 471.035156 359.917969 L 467.988281 356.867188 C 467.988281 356.867188 462.273438 351.152344 456.175781 352.675781 L 450.460938 354.203125 L 451.222656 348.105469 C 451.222656 348.105469 452.367188 338.960938 447.792969 336.675781 L 440.933594 333.625 L 447.410156 329.816406 C 447.410156 329.816406 455.414062 325.242188 452.367188 320.289062 L 448.554688 314.191406 L 455.792969 314.191406 C 455.792969 314.191406 464.558594 314.191406 466.464844 308.476562 C 466.464844 306.953125 466.84375 305.808594 466.84375 305.808594 L 474.847656 307.335938 Z M 485.132812 320.289062 C 477.132812 321.8125 472.941406 320.289062 470.273438 317.621094 C 467.605469 319.910156 464.558594 321.050781 461.890625 321.8125 C 462.273438 326.765625 459.222656 330.957031 456.558594 333.625 C 459.222656 337.054688 459.984375 341.246094 459.984375 344.675781 C 464.558594 345.058594 468.75 347.34375 471.417969 348.867188 C 475.609375 346.199219 480.5625 345.4375 484.371094 345.820312 C 485.132812 340.101562 488.183594 336.292969 490.851562 333.625 C 486.660156 329.433594 485.515625 324.480469 485.515625 320.289062 Z M 485.132812 320.289062 " fill-opacity="1" fill-rule="nonzero"/><path fill="#000000" d="M 474.847656 297.808594 C 474.847656 297.808594 474.847656 298.191406 474.847656 298.953125 L 475.226562 298.953125 C 475.226562 299.332031 475.226562 299.714844 474.847656 300.09375 C 474.847656 303.523438 477.894531 309.238281 496.945312 303.144531 L 503.804688 300.855469 L 501.898438 307.714844 C 501.898438 307.714844 498.089844 322.574219 511.808594 329.816406 L 518.664062 333.246094 L 511.808594 336.675781 C 511.808594 336.675781 499.613281 342.769531 499.996094 358.394531 L 499.996094 362.964844 L 495.421875 362.585938 C 495.421875 362.585938 479.800781 360.679688 473.703125 368.300781 L 471.035156 371.347656 L 467.988281 368.679688 C 467.988281 368.679688 456.9375 359.535156 446.648438 362.203125 L 440.554688 363.726562 L 441.316406 357.632812 C 441.316406 357.632812 443.984375 340.484375 435.601562 336.675781 L 428.359375 333.246094 L 435.21875 329.433594 C 435.21875 329.433594 449.699219 321.050781 443.984375 312.289062 L 439.410156 305.429688 L 447.792969 306.191406 C 447.792969 306.191406 462.273438 307.714844 465.703125 298.191406 C 465.703125 296.285156 466.082031 295.140625 466.082031 295.140625 L 473.703125 297.046875 Z M 493.515625 312.289062 C 479.417969 315.71875 472.179688 313.050781 469.132812 309.238281 C 464.558594 313.050781 458.460938 314.574219 454.269531 314.957031 C 455.792969 323.335938 449.699219 330.195312 444.746094 334.007812 C 450.078125 339.722656 450.460938 348.867188 450.460938 354.582031 C 458.84375 354.582031 466.464844 358.394531 470.65625 361.441406 C 477.132812 356.105469 487.039062 354.964844 492.375 354.964844 C 493.136719 344.675781 498.851562 337.816406 503.042969 334.007812 C 495.042969 327.527344 493.515625 318.765625 493.515625 312.667969 Z M 493.515625 312.289062 " fill-opacity="1" fill-rule="nonzero"/><path fill="#000000" d="M 474.847656 279.898438 C 477.132812 289.425781 482.085938 293.234375 488.183594 294 C 494.660156 295.140625 502.660156 292.855469 508.757812 290.949219 L 515.234375 289.042969 L 513.710938 295.902344 C 513.710938 295.902344 508.378906 318.765625 530.476562 330.195312 L 537.335938 333.625 L 530.476562 337.4375 C 530.476562 337.4375 511.808594 347.34375 512.570312 371.730469 L 512.570312 376.300781 L 507.996094 375.921875 C 507.996094 375.921875 483.609375 373.253906 473.703125 385.828125 L 471.417969 388.875 L 468.367188 386.589844 C 468.367188 386.589844 449.699219 372.492188 432.933594 377.0625 L 426.835938 378.585938 L 427.597656 372.492188 C 427.597656 372.492188 432.171875 344.292969 418.074219 337.816406 L 411.214844 334.386719 L 418.074219 330.578125 C 418.074219 330.578125 442.078125 316.859375 432.550781 301.617188 L 427.597656 294 L 436.363281 295.523438 C 436.363281 295.523438 462.652344 300.09375 466.464844 281.804688 L 467.226562 281.804688 L 474.085938 280.28125 Z M 486.660156 302 C 480.5625 301.238281 474.847656 298.191406 471.035156 292.09375 C 464.175781 302.382812 450.839844 303.90625 442.457031 303.523438 C 445.886719 316.859375 434.457031 328.292969 427.21875 333.625 C 436.742188 342.390625 437.125 359.15625 436.363281 367.539062 C 450.460938 366.394531 464.175781 373.632812 469.894531 377.445312 C 480.179688 367.917969 496.566406 367.15625 504.1875 367.15625 C 504.949219 349.628906 514.472656 338.960938 520.953125 333.625 C 506.472656 323.335938 504.566406 308.476562 504.566406 300.09375 C 498.851562 301.617188 492.375 302.761719 486.277344 301.617188 Z M 486.660156 302 " fill-opacity="1" fill-rule="nonzero"/><path fill="#000000" d="M 474.847656 247.511719 C 481.703125 262.753906 488.945312 269.992188 497.707031 272.277344 C 506.472656 274.566406 517.523438 272.277344 531.238281 268.085938 L 537.71875 266.183594 L 536.191406 273.042969 C 536.191406 273.042969 527.429688 310.765625 565.152344 330.578125 L 571.628906 334.007812 L 565.152344 337.816406 C 565.152344 337.816406 535.050781 354.582031 536.574219 395.734375 L 536.574219 400.308594 L 532 399.925781 C 532 399.925781 490.851562 396.878906 474.085938 418.214844 L 471.796875 421.261719 L 468.75 418.976562 C 468.75 418.976562 435.601562 395.734375 407.402344 403.355469 L 401.6875 404.878906 L 402.449219 398.78125 C 402.449219 398.78125 409.691406 349.628906 384.921875 338.199219 L 377.683594 334.769531 L 384.921875 330.957031 C 384.921875 330.957031 428.742188 307.714844 411.976562 280.660156 L 407.023438 272.660156 L 416.167969 274.566406 C 416.167969 274.566406 460.367188 283.710938 467.226562 251.324219 L 467.605469 251.324219 L 474.847656 247.894531 Z M 495.421875 280.28125 C 486.660156 277.996094 479.417969 271.898438 472.558594 260.847656 C 462.652344 283.710938 435.601562 284.472656 422.265625 283.328125 C 430.644531 306.953125 406.261719 326.765625 394.449219 334.386719 C 412.738281 348.484375 411.976562 380.875 410.832031 394.210938 C 435.601562 390.398438 461.511719 404.878906 470.273438 410.214844 C 487.039062 393.066406 517.140625 391.542969 528.574219 391.542969 C 528.953125 359.917969 546.480469 342.007812 555.625 334.769531 C 527.808594 317.242188 526.285156 290.570312 527.046875 277.996094 C 514.855469 281.425781 504.566406 282.949219 495.042969 280.660156 Z M 495.421875 280.28125 " fill-opacity="1" fill-rule="nonzero"/><path fill="#000000" d="M 475.226562 263.132812 C 478.277344 277.234375 485.515625 282.566406 493.515625 283.328125 C 502.28125 284.472656 512.570312 281.425781 520.191406 279.136719 L 526.667969 277.234375 L 525.144531 284.089844 C 525.144531 284.089844 517.902344 315.335938 548.003906 330.578125 L 554.863281 334.007812 L 548.003906 337.816406 C 548.003906 337.816406 522.476562 351.152344 523.617188 383.921875 L 523.617188 388.496094 L 519.046875 388.113281 C 519.046875 388.113281 486.277344 384.683594 472.558594 401.449219 L 470.273438 404.5 L 467.226562 402.210938 C 467.226562 402.210938 442.078125 383.542969 419.597656 389.257812 L 413.5 390.78125 L 414.261719 384.683594 C 414.261719 384.683594 420.359375 346.582031 400.925781 337.816406 L 394.066406 334.386719 L 400.925781 330.578125 C 400.925781 330.578125 434.074219 311.90625 420.738281 290.570312 L 415.785156 282.949219 L 424.550781 284.472656 C 424.550781 284.472656 461.128906 291.332031 466.84375 265.800781 L 467.226562 265.800781 C 467.226562 265.421875 467.226562 265.039062 466.84375 264.660156 L 474.847656 263.132812 Z M 492.375 291.332031 C 483.992188 290.1875 476.371094 286.378906 471.417969 276.851562 C 462.273438 292.472656 442.078125 293.617188 431.027344 292.855469 C 437.125 311.527344 419.597656 327.148438 410.453125 333.625 C 424.167969 345.058594 424.167969 369.0625 423.40625 380.113281 C 442.839844 377.824219 461.890625 388.496094 469.132812 393.449219 C 482.46875 380.113281 506.089844 379.351562 515.617188 379.730469 C 516.378906 354.964844 530.476562 340.484375 538.480469 334.386719 C 517.523438 320.289062 515.617188 299.332031 516.378906 288.664062 C 509.140625 290.570312 500.375 292.472656 492.375 291.332031 Z M 492.375 291.332031 " fill-opacity="1" fill-rule="nonzero"/><path fill="#000000" d="M 474.847656 229.222656 C 474.847656 229.222656 487.039062 271.515625 543.8125 255.894531 L 550.292969 253.988281 L 548.765625 260.46875 C 545.335938 274.566406 547.625 288.28125 553.71875 299.714844 C 560.199219 312.289062 571.628906 322.957031 585.347656 329.816406 L 591.824219 333.246094 L 585.726562 337.054688 C 585.726562 337.054688 549.148438 358.011719 551.054688 409.453125 L 551.054688 414.023438 L 546.480469 413.644531 C 546.480469 413.644531 495.421875 410.214844 474.085938 436.886719 L 471.796875 439.933594 L 468.75 438.027344 C 468.75 438.027344 426.074219 408.6875 390.636719 417.835938 L 384.921875 419.359375 L 385.683594 413.261719 C 385.683594 413.261719 394.828125 351.914062 363.585938 337.4375 L 356.34375 334.007812 L 363.203125 330.195312 C 363.203125 330.195312 418.453125 299.714844 397.117188 265.800781 L 392.160156 257.800781 L 401.6875 260.085938 C 401.6875 260.085938 458.460938 273.421875 466.84375 232.652344 L 467.226562 232.652344 C 467.226562 232.269531 467.226562 232.269531 467.226562 232.269531 L 474.847656 229.984375 Z M 539.621094 265.039062 C 499.234375 273.804688 480.179688 255.132812 472.179688 242.175781 C 459.984375 271.515625 424.167969 270.375 407.785156 268.46875 C 419.597656 298.570312 386.828125 324.101562 372.730469 333.246094 C 396.351562 350.390625 395.210938 392.6875 393.6875 407.925781 C 425.3125 402.59375 459.605469 422.027344 469.894531 428.503906 C 490.46875 406.402344 529.335938 404.878906 542.289062 404.878906 C 542.289062 364.488281 564.769531 342.007812 575.441406 333.625 C 562.867188 326.003906 552.578125 315.335938 546.101562 303.144531 C 540.003906 291.710938 537.335938 278.757812 539.242188 264.660156 Z M 539.621094 265.039062 " fill-opacity="1" fill-rule="nonzero"/><path fill="#000000" d="M 475.226562 199.5 C 475.988281 207.503906 478.277344 214.363281 481.324219 219.695312 C 487.039062 229.984375 495.421875 235.699219 505.328125 239.128906 C 515.617188 242.175781 526.667969 242.558594 536.953125 241.414062 C 549.910156 239.890625 560.960938 236.082031 566.292969 233.414062 L 574.675781 228.839844 L 572.390625 237.984375 C 572.390625 237.984375 555.246094 298.570312 616.972656 330.195312 L 623.449219 333.625 L 616.972656 337.4375 C 616.972656 337.4375 569.722656 363.726562 572.011719 430.410156 L 572.011719 434.980469 L 567.4375 434.601562 C 567.4375 434.601562 502.28125 430.789062 474.464844 465.464844 L 472.179688 468.511719 L 469.132812 466.605469 C 469.132812 466.605469 414.644531 430.027344 368.539062 442.21875 L 362.824219 443.746094 L 363.585938 438.027344 C 363.585938 437.648438 373.871094 357.25 333.484375 338.578125 L 326.242188 335.148438 L 333.101562 331.339844 C 333.484375 331.339844 405.878906 291.710938 377.683594 247.132812 L 372.730469 239.128906 L 381.875 241.035156 C 382.253906 241.035156 455.792969 257.039062 467.226562 203.691406 C 467.226562 202.929688 467.226562 202.550781 466.84375 201.789062 L 474.847656 201.027344 Z M 474.085938 223.507812 C 472.941406 221.21875 471.796875 219.316406 471.035156 216.648438 C 454.652344 252.847656 407.402344 250.941406 388.734375 248.65625 C 406.261719 288.664062 360.15625 322.574219 343.007812 333.246094 C 375.398438 354.964844 373.492188 413.644531 371.96875 431.933594 C 413.5 424.3125 458.460938 449.460938 470.273438 456.699219 C 496.945312 426.980469 548.386719 425.453125 563.246094 425.453125 C 562.867188 371.730469 593.347656 343.152344 606.683594 333.625 C 559.054688 305.808594 559.816406 260.847656 562.484375 242.941406 C 556.007812 245.226562 547.242188 247.511719 537.71875 248.65625 C 526.285156 249.796875 514.09375 249.796875 502.660156 245.988281 C 490.851562 242.175781 480.5625 235.320312 474.085938 222.746094 Z M 474.085938 223.507812 " fill-opacity="1" fill-rule="nonzero"/><path fill="#000000" d="M 475.226562 161.015625 C 475.226562 161.398438 486.660156 245.605469 593.347656 205.980469 L 600.585938 203.3125 L 598.683594 210.550781 C 598.683594 210.933594 578.488281 287.902344 658.886719 329.433594 L 665.746094 332.863281 L 659.265625 336.675781 C 659.265625 336.675781 596.777344 370.585938 599.824219 457.460938 L 599.824219 461.652344 L 595.632812 461.652344 C 595.253906 461.652344 511.042969 460.128906 474.464844 505.851562 L 472.179688 508.902344 L 469.132812 506.617188 C 468.75 506.617188 397.117188 456.699219 337.292969 472.703125 L 331.578125 474.226562 L 332.339844 468.128906 C 332.339844 467.75 346.820312 361.824219 293.472656 337.054688 L 286.234375 333.625 L 293.09375 329.816406 C 293.472656 329.816406 388.351562 277.613281 351.390625 218.554688 L 346.058594 210.171875 L 355.582031 212.457031 C 355.964844 212.457031 452.746094 236.082031 467.605469 165.96875 L 468.367188 165.96875 C 467.605469 163.304688 467.605469 161.777344 467.605469 161.777344 L 475.609375 160.636719 Z M 589.539062 215.886719 C 510.28125 242.558594 481.703125 202.929688 472.179688 178.542969 C 452.746094 231.507812 386.066406 225.792969 362.058594 221.984375 C 386.828125 274.945312 323.195312 320.289062 302.617188 332.863281 C 346.820312 360.679688 342.628906 441.078125 340.339844 463.175781 C 395.210938 452.128906 456.175781 488.707031 470.273438 497.46875 C 505.328125 457.84375 573.914062 453.652344 591.441406 453.269531 C 590.300781 380.875 633.355469 344.292969 649.359375 333.246094 C 584.203125 296.285156 586.871094 236.082031 589.539062 215.503906 Z M 589.539062 215.886719 " fill-opacity="1" fill-rule="nonzero"/><path fill="#000000" d="M 475.226562 117.199219 C 475.226562 117.578125 475.226562 220.078125 626.5 173.210938 L 633.355469 170.925781 L 631.453125 177.78125 C 631.453125 178.164062 604.015625 276.089844 707.660156 329.433594 L 714.515625 333.246094 L 707.277344 336.675781 C 706.894531 336.675781 625.734375 376.300781 629.925781 487.945312 L 629.925781 492.136719 L 625.734375 492.136719 C 625.355469 492.136719 520.953125 492.136719 474.085938 550.433594 L 471.796875 553.484375 L 468.75 551.195312 C 468.367188 551.195312 377.683594 488.324219 300.714844 508.519531 L 295 510.042969 L 295.761719 504.328125 C 295.761719 503.949219 311.765625 369.0625 243.175781 337.054688 L 236.320312 334.007812 L 242.796875 330.195312 C 243.175781 329.816406 362.441406 258.941406 314.8125 182.355469 L 309.476562 173.589844 L 319.382812 176.257812 C 319.765625 176.257812 448.554688 213.21875 467.605469 122.53125 L 467.988281 122.53125 C 467.605469 119.101562 467.605469 116.816406 467.605469 116.816406 L 475.609375 116.816406 Z M 622.308594 183.117188 C 512.1875 215.125 480.179688 168.636719 471.035156 138.917969 C 445.507812 206.359375 355.203125 192.644531 325.863281 186.546875 C 359.773438 255.894531 275.945312 317.621094 252.703125 333.246094 C 311.382812 367.917969 306.429688 474.226562 304.144531 499.757812 C 375.015625 484.515625 453.890625 532.144531 470.273438 542.8125 C 514.855469 490.992188 602.113281 484.894531 621.925781 484.515625 C 620.019531 390.398438 677.9375 345.820312 697.371094 333.625 C 611.257812 285.234375 618.117188 206.359375 621.925781 183.117188 Z M 622.308594 183.117188 " fill-opacity="1" fill-rule="nonzero"/><path fill="#009656" d="M 283.320312 337.269531 C 305.550781 336.6875 310.160156 300.5625 310.160156 298.304688 C 310.160156 235.175781 341.625 217.523438 346.664062 214.164062 C 358.277344 206.398438 365.550781 210.945312 373.289062 222.546875 C 380.890625 233.9375 386.382812 247.890625 375.285156 255.753906 C 367.773438 260.957031 335.414062 260.425781 335.414062 298.304688 C 335.414062 300.097656 340.300781 336.6875 362.253906 337.269531 Z M 283.320312 337.269531 " fill-opacity="1" fill-rule="nonzero"/><path fill="#ff9800" d="M 247.03125 494.007812 C 247.03125 588.144531 272.285156 664.457031 209.152344 664.457031 C 146.023438 664.457031 82.894531 588.144531 82.894531 494.007812 C 82.894531 399.855469 146.023438 323.554688 209.152344 323.554688 C 272.285156 323.554688 247.03125 399.855469 247.03125 494.007812 Z M 247.03125 494.007812 " fill-opacity="1" fill-rule="nonzero"/><path fill="#ff9800" d="M 398.542969 494.007812 C 398.542969 588.144531 373.289062 664.457031 436.421875 664.457031 C 499.550781 664.457031 562.679688 588.144531 562.679688 494.007812 C 562.679688 399.855469 499.550781 323.554688 436.421875 323.554688 C 373.289062 323.554688 398.542969 399.855469 398.542969 494.007812 Z M 398.542969 494.007812 " fill-opacity="1" fill-rule="nonzero"/><path fill="#ff9800" d="M 310.160156 500.320312 C 310.160156 597.945312 310.160156 677.082031 247.03125 677.082031 C 183.902344 677.082031 146.023438 597.945312 146.023438 500.320312 C 146.023438 402.683594 183.902344 323.554688 247.03125 323.554688 C 310.160156 323.554688 310.160156 402.683594 310.160156 500.320312 Z M 335.414062 500.320312 C 335.414062 597.945312 335.414062 677.082031 398.542969 677.082031 C 461.671875 677.082031 499.550781 597.945312 499.550781 500.320312 C 499.550781 402.683594 461.671875 323.554688 398.542969 323.554688 C 335.414062 323.554688 335.414062 402.683594 335.414062 500.320312 Z M 335.414062 500.320312 " fill-opacity="1" fill-rule="nonzero"/><g clip-path="url(#871641ca9e)"><path fill="#ff9800" d="M 411.167969 506.632812 C 411.167969 607.753906 385.917969 689.707031 322.785156 689.707031 C 259.65625 689.707031 234.40625 607.753906 234.40625 506.632812 C 234.40625 405.523438 259.65625 323.554688 322.785156 323.554688 C 385.917969 323.554688 411.167969 405.523438 411.167969 506.632812 Z M 411.167969 506.632812 " fill-opacity="1" fill-rule="nonzero"/></g><path fill="#f57c00" d="M 283.320312 337.269531 C 277.019531 330.992188 196.527344 374.058594 196.527344 506.632812 C 196.527344 626.578125 268.863281 673.9375 276.046875 669.265625 C 246.878906 638.863281 234.40625 577.503906 234.40625 506.632812 C 234.40625 430.105469 248.898438 364.628906 283.320312 337.269531 Z M 283.320312 337.269531 " fill-opacity="1" fill-rule="nonzero"/><path fill="#f57c00" d="M 369.527344 669.265625 C 376.710938 673.9375 449.046875 626.578125 449.046875 506.632812 C 449.046875 374.058594 368.554688 330.992188 362.253906 337.269531 C 396.675781 364.628906 411.167969 430.105469 411.167969 506.632812 C 411.167969 577.503906 398.695312 638.863281 369.527344 669.265625 Z M 369.527344 669.265625 " fill-opacity="1" fill-rule="nonzero"/><path fill="#f57c00" d="M 440.296875 663.597656 C 459.375 660.847656 537.429688 613.953125 537.429688 500.320312 C 537.429688 336.183594 418.554688 324.339844 414.273438 325.5 C 467.871094 337.582031 499.550781 411.128906 499.550781 500.320312 C 499.550781 573.953125 477.972656 637.035156 440.296875 663.597656 Z M 440.296875 663.597656 " fill-opacity="1" fill-rule="nonzero"/><path fill="#f57c00" d="M 108.144531 500.320312 C 108.144531 613.953125 189.355469 663.648438 206.324219 664.230469 C 168.003906 638.09375 146.023438 574.625 146.023438 500.320312 C 146.023438 413.441406 176.074219 341.371094 227.15625 326.511719 C 222.121094 324.65625 108.144531 348.808594 108.144531 500.320312 Z M 108.144531 500.320312 " fill-opacity="1" fill-rule="nonzero"/></svg>