<svg xmlns="http://www.w3.org/2000/svg" xmlns:xlink="http://www.w3.org/1999/xlink" width="1080" zoomAndPan="magnify" viewBox="0 0 810 809.999993" height="1080" preserveAspectRatio="xMidYMid meet" version="1.0"><defs><clipPath id="e271d6f3f7"><path d="M 436.320312 175.636719 L 728.820312 175.636719 L 728.820312 479 L 436.320312 479 Z M 436.320312 175.636719 " clip-rule="nonzero"/></clipPath><clipPath id="b8bc27bee2"><path d="M 242 62.167969 L 457 62.167969 L 457 336 L 242 336 Z M 242 62.167969 " clip-rule="nonzero"/></clipPath><clipPath id="1280381039"><path d="M 109 268 L 394 268 L 394 499.5 L 109 499.5 Z M 109 268 " clip-rule="nonzero"/></clipPath><clipPath id="16b9d7db5d"><path d="M 98 403 L 339 403 L 339 660 L 98 660 Z M 98 403 " clip-rule="nonzero"/></clipPath><clipPath id="b2c59f4b27"><path d="M 49.367188 453.242188 L 247.96875 352.367188 L 394.695312 641.238281 L 196.097656 742.113281 Z M 49.367188 453.242188 " clip-rule="nonzero"/></clipPath><clipPath id="f42e1416d9"><path d="M 49.367188 453.242188 L 247.96875 352.367188 L 394.695312 641.238281 L 196.097656 742.113281 Z M 49.367188 453.242188 " clip-rule="nonzero"/></clipPath><clipPath id="048ae0604f"><path d="M 49.367188 453.242188 L 247.96875 352.367188 L 394.695312 641.238281 L 196.097656 742.113281 Z M 49.367188 453.242188 " clip-rule="nonzero"/></clipPath><clipPath id="0591892d21"><path d="M 132 432 L 307 432 L 307 687 L 132 687 Z M 132 432 " clip-rule="nonzero"/></clipPath><clipPath id="ccee66bc47"><path d="M 49.367188 453.242188 L 247.96875 352.367188 L 394.695312 641.238281 L 196.097656 742.113281 Z M 49.367188 453.242188 " clip-rule="nonzero"/></clipPath><clipPath id="6dd5570595"><path d="M 49.367188 453.242188 L 247.96875 352.367188 L 394.695312 641.238281 L 196.097656 742.113281 Z M 49.367188 453.242188 " clip-rule="nonzero"/></clipPath><clipPath id="77d006ca18"><path d="M 49.367188 453.242188 L 247.96875 352.367188 L 394.695312 641.238281 L 196.097656 742.113281 Z M 49.367188 453.242188 " clip-rule="nonzero"/></clipPath><clipPath id="434ca8287a"><path d="M 313 420 L 580 420 L 580 653 L 313 653 Z M 313 420 " clip-rule="nonzero"/></clipPath><clipPath id="81dd40402f"><path d="M 625.28125 463.824219 L 557.828125 690.242188 L 247.316406 597.738281 L 314.765625 371.320312 Z M 625.28125 463.824219 " clip-rule="nonzero"/></clipPath><clipPath id="54fe15ec9e"><path d="M 625.28125 463.824219 L 557.828125 690.242188 L 247.316406 597.738281 L 314.765625 371.320312 Z M 625.28125 463.824219 " clip-rule="nonzero"/></clipPath><clipPath id="cd74c14d62"><path d="M 625.28125 463.824219 L 557.828125 690.242188 L 247.316406 597.738281 L 314.765625 371.320312 Z M 625.28125 463.824219 " clip-rule="nonzero"/></clipPath><clipPath id="3e53b9ed1c"><path d="M 304 404 L 501 404 L 501 591 L 304 591 Z M 304 404 " clip-rule="nonzero"/></clipPath><clipPath id="5b15123867"><path d="M 625.28125 463.824219 L 557.828125 690.242188 L 247.316406 597.738281 L 314.765625 371.320312 Z M 625.28125 463.824219 " clip-rule="nonzero"/></clipPath><clipPath id="2cbce59d8a"><path d="M 625.28125 463.824219 L 557.828125 690.242188 L 247.316406 597.738281 L 314.765625 371.320312 Z M 625.28125 463.824219 " clip-rule="nonzero"/></clipPath><clipPath id="da552a51b8"><path d="M 625.28125 463.824219 L 557.828125 690.242188 L 247.316406 597.738281 L 314.765625 371.320312 Z M 625.28125 463.824219 " clip-rule="nonzero"/></clipPath><clipPath id="037b22cb36"><path d="M 421 523 L 481 523 L 481 597 L 421 597 Z M 421 523 " clip-rule="nonzero"/></clipPath><clipPath id="94d62d2494"><path d="M 625.28125 463.824219 L 557.828125 690.242188 L 247.316406 597.738281 L 314.765625 371.320312 Z M 625.28125 463.824219 " clip-rule="nonzero"/></clipPath><clipPath id="b9caf1eed1"><path d="M 625.28125 463.824219 L 557.828125 690.242188 L 247.316406 597.738281 L 314.765625 371.320312 Z M 625.28125 463.824219 " clip-rule="nonzero"/></clipPath><clipPath id="31b5999404"><path d="M 625.28125 463.824219 L 557.828125 690.242188 L 247.316406 597.738281 L 314.765625 371.320312 Z M 625.28125 463.824219 " clip-rule="nonzero"/></clipPath><clipPath id="312c08ec98"><path d="M 356 467 L 433 467 L 433 565 L 356 565 Z M 356 467 " clip-rule="nonzero"/></clipPath><clipPath id="1a496be234"><path d="M 625.28125 463.824219 L 557.828125 690.242188 L 247.316406 597.738281 L 314.765625 371.320312 Z M 625.28125 463.824219 " clip-rule="nonzero"/></clipPath><clipPath id="7099a5e859"><path d="M 625.28125 463.824219 L 557.828125 690.242188 L 247.316406 597.738281 L 314.765625 371.320312 Z M 625.28125 463.824219 " clip-rule="nonzero"/></clipPath><clipPath id="2360d59efe"><path d="M 625.28125 463.824219 L 557.828125 690.242188 L 247.316406 597.738281 L 314.765625 371.320312 Z M 625.28125 463.824219 " clip-rule="nonzero"/></clipPath></defs><g clip-path="url(#e271d6f3f7)"><path fill="#f5a653" d="M 550.300781 408.300781 C 550.253906 407.25 550.230469 406.175781 550.230469 405.125 C 527.921875 435.378906 479.117188 441.800781 448.105469 419.75 C 451.460938 383.507812 484.164062 352.132812 522.667969 349.324219 C 483.34375 348.636719 437.1875 315.253906 436.320312 263.21875 C 494.761719 252.09375 521.023438 256.523438 540.046875 295.441406 C 540.960938 297.703125 541.988281 299.964844 543.128906 302.203125 C 542.125 299.851562 541.097656 297.589844 540.046875 295.441406 C 524.722656 257.234375 543.402344 213.152344 607.300781 175.679688 C 607.300781 175.679688 687.347656 261.757812 611.4375 324.53125 C 671.203125 300.332031 698.058594 319.753906 728.820312 357.457031 C 686.664062 406.976562 648.683594 401.605469 599.425781 379.007812 C 625.847656 405.789062 640.050781 448.542969 613.925781 478.933594 C 573.457031 473.839844 551.535156 443.605469 550.300781 408.300781 Z M 566.925781 366.734375 C 567.632812 364.65625 568.34375 362.578125 569.003906 360.519531 C 567.566406 360.976562 566.105469 361.480469 564.644531 361.984375 C 565.417969 363.558594 566.195312 365.160156 566.925781 366.734375 Z M 566.925781 366.734375 " fill-opacity="1" fill-rule="nonzero"/></g><path fill="#ba5632" d="M 650.078125 350.167969 C 650.121094 348.730469 648.980469 347.519531 647.542969 347.472656 C 640.347656 347.242188 633.3125 347.632812 626.210938 348.113281 C 619.132812 348.636719 612.074219 349.4375 605.042969 350.441406 C 595.039062 351.859375 585.082031 353.800781 575.238281 356.203125 C 578.480469 345.210938 581.359375 334.105469 583.871094 322.929688 C 586.15625 312.511719 588.140625 302.023438 589.742188 291.464844 C 590.539062 286.1875 591.269531 280.90625 591.863281 275.605469 C 592.480469 270.304688 592.984375 264.957031 593.304688 259.65625 L 593.304688 259.609375 C 593.417969 257.851562 592.117188 256.34375 590.359375 256.183594 C 588.578125 256.023438 586.976562 257.347656 586.816406 259.128906 C 586.339844 264.386719 585.699219 269.550781 584.945312 274.738281 C 584.214844 279.925781 583.347656 285.113281 582.410156 290.277344 C 580.515625 300.605469 578.277344 310.863281 575.742188 321.035156 C 572.886719 332.230469 569.667969 343.3125 566.058594 354.257812 C 560.167969 345.210938 553.75 336.503906 546.625 328.324219 C 542.101562 323.136719 537.285156 318.175781 532.144531 313.5625 C 527.007812 308.96875 521.570312 304.648438 515.726562 300.992188 C 514.699219 300.355469 513.328125 300.492188 512.460938 301.40625 C 511.453125 302.433594 511.476562 304.101562 512.527344 305.105469 C 522.050781 314.339844 530.570312 324.371094 538.425781 334.972656 C 544.773438 343.519531 550.6875 352.386719 556.308594 361.457031 C 545.003906 364.976562 533.882812 369.179688 523.148438 374.390625 C 516.683594 377.542969 510.382812 381.039062 504.351562 385.015625 C 498.347656 389.015625 492.566406 393.402344 487.429688 398.5 C 486.5625 399.34375 486.378906 400.714844 487.066406 401.789062 C 487.839844 403 489.460938 403.34375 490.671875 402.566406 C 502.226562 395.046875 514.605469 389.128906 527.371094 384.078125 C 537.808594 379.945312 548.519531 376.402344 559.34375 373.226562 C 558.386719 375.785156 557.378906 378.320312 556.375 380.859375 C 548.589844 400.28125 539.382812 419.085938 528.695312 436.957031 C 523.332031 445.867188 517.621094 454.574219 511.523438 462.960938 C 505.402344 471.347656 498.894531 479.414062 492.019531 487.160156 L 491.972656 487.207031 C 491.929688 487.253906 491.90625 487.296875 491.859375 487.34375 C 489.394531 490.292969 489.78125 494.65625 492.707031 497.125 C 495.652344 499.589844 500.011719 499.203125 502.480469 496.277344 C 509.421875 487.984375 515.953125 479.367188 522.074219 470.480469 C 528.171875 461.566406 533.835938 452.402344 539.085938 443.011719 C 549.570312 424.230469 558.453125 404.621094 565.851562 384.535156 C 566.378906 383.144531 566.859375 381.726562 567.359375 380.332031 L 567.703125 380.925781 C 568.523438 382.367188 569.347656 383.804688 570.148438 385.269531 L 572.542969 389.632812 C 573.34375 391.070312 574.121094 392.558594 574.917969 394.019531 C 576.539062 396.921875 578.046875 399.890625 579.625 402.816406 C 585.835938 414.585938 591.863281 426.558594 597.871094 438.488281 L 597.894531 438.535156 C 598.417969 439.585938 599.605469 440.179688 600.816406 439.90625 C 602.234375 439.585938 603.101562 438.167969 602.78125 436.773438 C 601.226562 430.03125 599.128906 423.589844 596.933594 417.144531 C 594.671875 410.722656 592.207031 404.371094 589.488281 398.109375 C 586.773438 391.847656 583.871094 385.679688 580.742188 379.625 C 578.894531 376.035156 576.953125 372.496094 574.941406 368.976562 C 585.5625 366.210938 596.226562 363.695312 606.984375 361.320312 C 620.546875 358.347656 634.25 355.5625 647.929688 352.773438 L 647.976562 352.773438 C 649.140625 352.429688 650.03125 351.425781 650.078125 350.167969 Z M 650.078125 350.167969 " fill-opacity="1" fill-rule="nonzero"/><g clip-path="url(#b8bc27bee2)"><path fill="#f7ca6a" d="M 265.726562 62.167969 C 420.640625 65.789062 522.996094 259.15625 406.40625 324.828125 C 403.019531 326.328125 399.632812 327.664062 396.292969 328.832031 C 288.5 366.542969 199.117188 233.339844 265.726562 62.167969 Z M 265.726562 62.167969 " fill-opacity="1" fill-rule="nonzero"/></g><path fill="#b06d29" d="M 308.699219 120.164062 C 320.503906 138.421875 330.949219 157.539062 340.320312 177.132812 C 342.660156 182.019531 344.972656 187.027344 347.117188 191.839844 C 347.644531 193.058594 348.238281 194.25 348.835938 195.441406 C 349.429688 196.632812 350.027344 197.824219 350.625 199.0625 C 351.816406 201.519531 352.960938 204 354.105469 206.453125 C 358.660156 216.371094 362.835938 226.429688 366.769531 236.558594 C 370.679688 246.714844 374.351562 256.917969 377.882812 267.191406 C 381.410156 277.511719 384.605469 287.929688 387.515625 298.441406 C 388.972656 303.683594 390.332031 309 391.667969 314.21875 C 393 319.464844 394.3125 324.734375 395.578125 330.023438 C 398.105469 340.632812 400.371094 351.382812 402.015625 362.324219 C 402.613281 366.28125 399.894531 369.976562 395.933594 370.570312 C 391.976562 371.167969 388.28125 368.449219 387.683594 364.492188 C 387.683594 364.421875 387.660156 364.375 387.660156 364.300781 L 387.660156 364.253906 C 386.394531 353.8125 384.535156 343.398438 382.367188 332.933594 C 381.292969 327.710938 380.148438 322.46875 378.957031 317.222656 C 377.785156 311.957031 376.617188 306.757812 375.332031 301.585938 C 372.800781 291.242188 369.964844 280.945312 366.816406 270.742188 C 363.644531 260.515625 360.304688 250.3125 356.753906 240.230469 C 353.175781 230.148438 349.382812 220.160156 345.210938 210.339844 C 344.160156 207.882812 343.113281 205.429688 342.015625 203.019531 C 341.492188 201.804688 340.917969 200.566406 340.34375 199.324219 C 339.773438 198.085938 339.199219 196.847656 338.699219 195.582031 C 336.601562 190.507812 334.550781 185.644531 332.378906 180.734375 C 323.699219 161.164062 313.992188 142.023438 302.929688 123.714844 C 301.949219 122.117188 302.476562 120.019531 304.074219 119.042969 C 305.671875 118.160156 307.722656 118.636719 308.699219 120.164062 Z M 308.699219 120.164062 " fill-opacity="1" fill-rule="nonzero"/><path fill="#b06d29" d="M 288.285156 178.160156 C 293.4375 180.445312 298.421875 182.949219 303.453125 185.191406 C 308.460938 187.457031 313.421875 189.578125 318.453125 191.292969 C 323.460938 193.058594 328.539062 194.390625 333.667969 195.320312 C 334.933594 195.582031 336.242188 195.726562 337.53125 195.941406 C 338.820312 196.15625 340.105469 196.273438 341.417969 196.394531 C 342.707031 196.535156 344.019531 196.609375 345.355469 196.703125 L 347.285156 196.824219 C 346.640625 196.800781 346.761719 196.824219 346.808594 196.824219 L 347.167969 196.777344 L 347.761719 196.679688 L 348.214844 196.632812 C 348.382812 196.609375 348.667969 196.585938 349.167969 196.609375 L 343.566406 199.707031 C 346.1875 195.367188 348.789062 191.007812 351.316406 186.644531 C 353.84375 182.28125 356.300781 177.898438 358.636719 173.488281 C 360.972656 169.078125 363.167969 164.59375 365.195312 160.066406 C 367.222656 155.539062 368.9375 150.890625 370.488281 146.097656 L 370.511719 146.050781 C 370.964844 144.621094 372.515625 143.808594 373.972656 144.285156 C 375.140625 144.667969 375.878906 145.742188 375.878906 146.882812 C 375.878906 152.296875 374.996094 157.660156 373.757812 162.902344 C 372.492188 168.125 370.777344 173.222656 368.820312 178.160156 C 366.839844 183.09375 364.621094 187.90625 362.214844 192.582031 C 359.804688 197.277344 357.230469 201.828125 354.558594 206.308594 L 348.953125 209.410156 C 349.074219 209.410156 349.289062 209.410156 349.3125 209.410156 L 349.40625 209.410156 C 349.429688 209.410156 349.382812 209.410156 349.335938 209.410156 L 348.90625 209.457031 L 348.238281 209.527344 C 347.929688 209.550781 347.691406 209.625 346.714844 209.574219 L 344.472656 209.410156 L 342.277344 209.242188 C 341.539062 209.171875 340.796875 209.050781 340.058594 208.980469 C 338.582031 208.789062 337.078125 208.597656 335.625 208.3125 C 334.144531 208.050781 332.667969 207.789062 331.210938 207.40625 C 325.367188 206.070312 319.691406 204.070312 314.328125 201.613281 C 308.960938 199.136719 303.90625 196.226562 299.136719 193.03125 C 294.367188 189.816406 289.8125 186.429688 285.472656 182.808594 C 284.304688 181.828125 284.160156 180.113281 285.136719 178.945312 C 285.851562 177.945312 287.1875 177.683594 288.285156 178.160156 Z M 288.285156 178.160156 " fill-opacity="1" fill-rule="nonzero"/><path fill="#b06d29" d="M 311.035156 253.53125 C 316.449219 257.011719 321.839844 260.371094 327.394531 263.28125 C 332.953125 266.1875 338.628906 268.714844 344.421875 270.671875 C 350.21875 272.648438 356.132812 274.007812 362.09375 274.722656 C 365.074219 275.082031 368.058594 275.222656 371.039062 275.246094 C 372.539062 275.269531 374.019531 275.152344 375.496094 275.105469 C 376.976562 275.007812 378.476562 274.84375 379.957031 274.722656 L 376.1875 276.511719 L 377.835938 274.84375 L 379.457031 273.125 L 381.101562 271.410156 L 382.675781 269.667969 L 384.25 267.929688 L 385.753906 266.140625 L 387.253906 264.355469 L 388.660156 262.519531 C 392.453125 257.632812 395.769531 252.507812 398.628906 247.023438 C 401.46875 241.542969 403.78125 235.726562 405.832031 229.671875 C 407.929688 223.640625 409.625 217.394531 411.507812 211.101562 L 411.507812 211.078125 C 411.9375 209.625 413.464844 208.8125 414.917969 209.242188 C 416.132812 209.601562 416.898438 210.71875 416.875 211.9375 C 416.683594 218.609375 415.945312 225.285156 414.75 231.984375 C 413.511719 238.65625 411.675781 245.355469 408.980469 251.792969 C 407.621094 255.007812 406.09375 258.15625 404.378906 261.207031 C 403.496094 262.707031 402.636719 264.257812 401.660156 265.6875 L 400.226562 267.882812 C 399.726562 268.597656 399.203125 269.289062 398.703125 270.003906 L 397.152344 272.101562 L 395.53125 274.125 C 394.980469 274.792969 394.457031 275.484375 393.882812 276.152344 L 392.167969 278.082031 L 390.449219 280.015625 L 388.683594 281.875 L 386.921875 283.710938 L 385.085938 285.519531 L 384.964844 285.640625 C 383.964844 286.640625 382.652344 287.214844 381.339844 287.308594 C 379.597656 287.453125 377.835938 287.617188 376.09375 287.714844 C 374.328125 287.714844 372.589844 287.808594 370.824219 287.738281 C 367.316406 287.640625 363.8125 287.332031 360.355469 286.738281 C 353.4375 285.617188 346.738281 283.566406 340.417969 280.824219 C 334.097656 278.058594 328.183594 274.628906 322.699219 270.695312 C 317.214844 266.738281 312.132812 262.398438 307.53125 257.582031 C 306.480469 256.488281 306.527344 254.769531 307.601562 253.722656 C 308.53125 252.839844 309.941406 252.722656 310.964844 253.386719 Z M 311.035156 253.53125 " fill-opacity="1" fill-rule="nonzero"/><path fill="#fe8a3c" d="M 349.027344 436.488281 C 334.132812 431.222656 321.378906 436.84375 309.035156 444.515625 C 297.753906 451.507812 285.699219 454.066406 272.65625 450.746094 C 270.960938 450.296875 269.300781 449.8125 267.738281 449.082031 C 262.875 446.8125 262.398438 444.035156 265.882812 440.003906 C 271.1875 433.84375 276.011719 427.449219 279.5 420.132812 C 283.65625 411.347656 279.5625 405.613281 269.84375 406.507812 C 266.074219 406.808594 262.488281 407.957031 259.035156 409.492188 C 254.5625 411.40625 250.152344 413.515625 245.546875 415.28125 C 240.300781 417.222656 234.929688 417.867188 229.46875 415.949219 C 223.96875 414.03125 223.039062 411.253906 226.363281 406.554688 C 228.859375 403.007812 231.640625 399.714844 233.878906 396.027344 C 235.574219 393.339844 238.542969 389.8125 235.632812 387.109375 C 232.691406 384.316406 229.464844 387.730469 226.875 389.457031 C 221.953125 392.761719 217.253906 396.390625 211.980469 399.011719 C 205.078125 402.398438 197.914062 404.253906 190.175781 402.253906 C 183.910156 400.644531 182.855469 397.449219 186.914062 392.332031 C 190.753906 387.472656 194.875 382.792969 197.464844 377.089844 C 198.902344 373.992188 200.597656 370.636719 197.882812 367.359375 C 195.003906 363.941406 191.167969 364.566406 187.488281 365.585938 C 185.574219 366.144531 183.71875 367.007812 181.863281 367.789062 C 165.976562 374.691406 151.945312 370.285156 139.125 360.328125 C 133.371094 355.777344 133.976562 352.132812 140.179688 348.316406 C 144.625 345.535156 149.066406 342.945312 153.132812 339.640625 C 154.949219 338.160156 156.804688 336.511719 155.878906 333.890625 C 154.949219 331.253906 152.457031 331.046875 150.125 331.0625 C 145.167969 331.09375 140.4375 332.660156 135.578125 333.316406 C 123.875 334.90625 113.550781 331.875 104.949219 323.714844 C 100.476562 319.496094 100.792969 317.367188 105.785156 314.003906 C 109.007812 311.8125 111.34375 309.046875 112.082031 305.066406 C 113.324219 297.929688 111.375 294.777344 104.277344 293.390625 C 97.375 292.035156 91.585938 288.792969 86.761719 283.753906 C 82.476562 279.332031 77.617188 275.417969 73.683594 270.609375 C 70.492188 266.695312 70.96875 264.84375 76.050781 264.109375 C 88.171875 262.253906 99.996094 258.976562 111.859375 255.910156 C 125.921875 252.332031 139.542969 252.667969 152.488281 260.046875 C 153.476562 260.625 154.5625 261.074219 155.652344 261.457031 C 160.480469 263.246094 162.492188 261.746094 162.238281 256.664062 C 162.175781 255.496094 162.011719 254.367188 161.917969 253.21875 C 161.21875 245.609375 163.679688 243.101562 171.351562 244.105469 C 182.636719 245.59375 190.628906 252.03125 196.1875 261.652344 C 200.570312 269.273438 204.023438 277.371094 207.632812 285.363281 C 209.554688 289.71875 211.664062 293.988281 214.542969 297.824219 C 215.886719 299.574219 217.484375 301.273438 219.910156 300.796875 C 222.40625 300.28125 222.566406 297.9375 223.011719 296.046875 C 224.226562 290.808594 224.132812 285.507812 223.839844 280.121094 C 223.398438 270.804688 228.0625 267.183594 237.109375 269.703125 C 244.941406 271.90625 250.28125 277.164062 254.40625 283.824219 C 259.808594 292.59375 262.492188 302.246094 264.21875 312.261719 C 265.210938 317.824219 266.007812 323.398438 267.796875 328.769531 C 268.4375 330.621094 269.207031 332.601562 270.355469 334.152344 C 273.457031 338.371094 278.734375 338 281.386719 333.542969 C 284.167969 328.847656 285.097656 323.558594 285.863281 318.273438 C 286.054688 317.007812 286.085938 315.746094 286.246094 314.40625 C 287.203125 305.90625 289.476562 304.597656 297.5625 307.953125 C 308.847656 312.660156 316.328125 324.027344 316.101562 336.738281 C 315.976562 343.035156 315.082031 349.359375 314.667969 355.707031 C 314.28125 360.765625 313.898438 366.207031 319.234375 369.09375 C 324.382812 371.925781 328.988281 369.257812 333.207031 366.207031 C 340.851562 360.644531 346.636719 353.289062 352.355469 345.8125 C 357.726562 338.773438 361.113281 339.058594 365.660156 346.839844 C 372.308594 358.261719 373.425781 370.195312 368.695312 382.558594 C 367.480469 385.824219 366.296875 389.046875 364.730469 392.148438 C 358.019531 405.410156 355.136719 419.210938 358.589844 433.972656 C 356.195312 434.488281 354.722656 432.949219 353.449219 431.484375 C 349.769531 427.203125 345.550781 423.457031 341.167969 419.941406 C 338.996094 418.21875 338.226562 416.109375 337.96875 413.265625 C 337.109375 402.910156 338.800781 392.941406 341.523438 383.074219 C 338.578125 392.117188 337.046875 401.347656 337.875 410.902344 C 338 412.34375 338.484375 413.96875 336.917969 414.707031 C 335.574219 415.375 334.488281 414.097656 333.496094 413.328125 C 322.722656 404.382812 311.980469 395.472656 300.472656 387.511719 C 297.882812 385.703125 296.667969 382.910156 295.773438 379.957031 C 293.019531 370.835938 292.796875 361.484375 292.675781 352.105469 C 292.605469 350.632812 293.117188 349.054688 292.03125 346.558594 C 292.222656 357.75 292.289062 367.921875 295.066406 377.847656 C 295.296875 378.664062 295.613281 379.460938 295.742188 380.320312 C 295.964844 382.304688 295.230469 383.074219 293.28125 382.363281 C 291.90625 381.902344 290.726562 381.054688 289.542969 380.226562 C 278.546875 372.75 267.257812 365.84375 255.75 359.230469 C 252.9375 357.632812 251.050781 355.621094 249.804688 352.300781 C 245.261719 340.140625 243.378906 327.183594 238.328125 315.15625 C 238.523438 316.800781 239.03125 318.363281 239.609375 319.945312 C 243.121094 329.835938 245.425781 340.15625 248.941406 350.0625 C 249.355469 351.195312 250.378906 352.601562 248.8125 353.574219 C 247.503906 354.382812 246.351562 353.28125 245.261719 352.648438 C 234.425781 346.324219 224.136719 339.097656 213.394531 332.664062 C 210.578125 330.984375 208.59375 328.648438 207.636719 325.390625 C 205.082031 317.003906 199.933594 310.023438 195.007812 302.960938 C 191.074219 297.304688 187.335938 291.519531 182.894531 286.214844 C 188.332031 292.957031 192.675781 300.464844 197.859375 307.414062 C 201.566406 312.402344 204.824219 317.609375 206.902344 323.507812 C 207.222656 324.546875 208.085938 325.789062 207.0625 326.730469 C 206.105469 327.5625 204.824219 326.992188 203.835938 326.410156 C 197.214844 322.5 190.503906 318.871094 184.046875 314.785156 C 183.46875 314.402344 182.828125 313.953125 182.445312 313.34375 C 176.820312 304.957031 167.996094 299.929688 160.710938 293.34375 C 154.089844 287.398438 147.730469 281.171875 140.601562 275.785156 C 138.074219 273.855469 135.386719 272.195312 132.640625 270.59375 C 148.597656 280.4375 160.585938 295.070312 175.894531 305.679688 C 176.375 305.996094 176.695312 306.449219 177.078125 306.910156 C 177.71875 307.660156 178.707031 308.523438 178.101562 309.542969 C 177.332031 310.824219 175.988281 310.164062 175 309.707031 C 169.53125 307.019531 164.191406 304.242188 158.886719 301.335938 C 146.328125 294.53125 133.664062 287.914062 119.953125 283.664062 C 117.621094 282.929688 115.316406 282.226562 112.441406 281.679688 C 130.148438 290.144531 146.933594 299.253906 163.425781 308.917969 C 164.191406 309.371094 164.960938 309.765625 165.632812 310.34375 C 166.402344 310.960938 167.363281 311.609375 166.847656 312.773438 C 166.464844 313.632812 165.378906 313.796875 164.546875 313.601562 C 154.636719 311.558594 144.757812 315.386719 134.847656 313.710938 C 139.484375 314.785156 144.152344 314.558594 148.820312 313.839844 C 160.777344 312.046875 171.902344 313.601562 182.484375 319.988281 C 191.53125 325.390625 200.511719 330.886719 209.429688 336.414062 C 210.164062 336.890625 210.871094 337.390625 211.574219 337.914062 C 212.722656 338.777344 214.355469 339.769531 213.777344 341.285156 C 213.042969 343.21875 211.21875 341.910156 210.039062 341.558594 C 206.265625 340.539062 202.589844 341.222656 198.878906 341.847656 C 191.078125 343.15625 183.3125 344.769531 175.382812 345.425781 C 181.484375 345.40625 187.625 344.785156 193.410156 343.09375 C 206.007812 339.390625 217.390625 342.613281 228.164062 348.75 C 237.113281 353.761719 245.621094 359.484375 254.183594 365.109375 C 255.464844 365.992188 258.277344 367.011719 255.078125 369.136719 C 249.804688 368.589844 244.4375 368.546875 239.222656 367.601562 C 230.625 366.117188 224.039062 369.835938 217.515625 375.203125 C 219.273438 374.917969 220.101562 373.835938 221.09375 373.097656 C 226.941406 368.816406 233.277344 366.640625 240.5625 367.792969 C 245.105469 368.546875 249.707031 368.335938 254.277344 369.136719 C 258.335938 368.308594 261.695312 369.886719 265.179688 371.851562 C 273.238281 376.40625 280.6875 381.824219 288.578125 386.601562 C 289.316406 387.042969 290.019531 387.507812 290.59375 388.183594 C 291.171875 388.816406 291.746094 389.652344 291.328125 390.519531 C 290.882812 391.457031 289.824219 391.296875 289.058594 391.042969 C 287.074219 390.402344 285.03125 390.519531 283.113281 389.972656 C 274.097656 387.542969 265.148438 388.660156 255.078125 390.164062 C 258.976562 390.257812 261.792969 389.78125 264.539062 389.316406 C 274.449219 387.574219 283.976562 390.402344 293.628906 391.566406 C 296.671875 391.921875 299.191406 393.804688 301.65625 395.59375 C 311.945312 402.761719 321.410156 410.996094 331.035156 419.015625 C 331.671875 419.558594 332.3125 420.132812 332.761719 420.902344 C 333.144531 421.539062 333.460938 422.273438 333.019531 422.90625 C 332.570312 423.617188 331.734375 423.523438 331.066406 423.261719 C 330.105469 422.90625 329.148438 422.628906 328.191406 422.304688 C 318.632812 418.886719 309.679688 420.132812 301.398438 426.011719 C 304.851562 424.609375 308.015625 422.527344 311.785156 421.796875 C 325.214844 419.046875 336.65625 423.292969 346.695312 432.113281 C 347.945312 433.234375 349.289062 434.480469 349.027344 436.488281 Z M 349.027344 436.488281 " fill-opacity="1" fill-rule="evenodd"/><g clip-path="url(#1280381039)"><path fill="#dc5f2c" d="M 254.660156 368.914062 C 255.839844 368.464844 256.578125 367.851562 255.011719 366.949219 C 241.550781 359.042969 229.210938 349.132812 214.21875 343.824219 C 206.644531 341.113281 199.195312 343.574219 191.714844 344.785156 C 186.472656 345.617188 181.164062 346.289062 175.859375 347.011719 C 175.3125 347.09375 174.738281 347.027344 174.164062 346.960938 C 173.042969 346.835938 171.542969 346.960938 171.640625 345.367188 C 171.703125 344.101562 173.175781 344.183594 174.066406 344.101562 C 178.929688 343.828125 183.753906 343.210938 188.582031 342.265625 C 192.675781 341.515625 196.863281 341.117188 200.921875 340.207031 C 205.144531 339.296875 209.136719 339.648438 213.421875 340.636719 C 208.019531 337.1875 202.679688 333.640625 197.210938 330.316406 C 191.332031 326.734375 185.324219 323.320312 179.410156 319.792969 C 170.007812 314.226562 159.941406 313.285156 149.386719 315.078125 C 144.242188 315.972656 139.09375 315.941406 133.914062 315.207031 C 132.765625 315.011719 130.875 314.789062 131.136719 313.140625 C 131.355469 311.65625 133.082031 312.261719 134.105469 312.410156 C 141.042969 313.09375 147.914062 312.613281 154.789062 311.753906 C 158.59375 311.277344 162.492188 311.261719 164.476562 311.113281 C 147.789062 300.796875 128.285156 290.949219 109.007812 280.507812 C 134.296875 284.148438 154.980469 298.75 177.484375 309.167969 C 173.96875 304.660156 169.140625 301.910156 164.890625 298.394531 C 156.546875 291.402344 148.363281 284.199219 139.984375 277.308594 C 137.234375 275.003906 134.039062 273.28125 130.972656 271.398438 C 129.914062 270.722656 128.894531 270.003906 129.789062 268.75 C 130.523438 267.722656 131.578125 268.265625 132.503906 268.839844 C 139.21875 272.769531 145.195312 277.6875 150.921875 282.929688 C 158.75 290.085938 166.488281 297.308594 174.800781 303.90625 C 176.078125 304.882812 177.390625 305.777344 178.347656 307.019531 C 185.449219 316.769531 197.117188 319.867188 207.058594 327.214844 C 205.078125 319.515625 201.113281 314.148438 197.277344 308.648438 C 192 301.210938 186.722656 293.699219 181.480469 286.160156 C 180.910156 285.347656 179.628906 284.195312 180.972656 283.21875 C 182.25 282.257812 183.117188 283.703125 183.691406 284.542969 C 190.5 294.816406 199.671875 303.953125 203.925781 315.363281 C 208.335938 327.292969 216.648438 333.796875 226.71875 339.628906 C 234.039062 343.824219 241.007812 348.558594 248.648438 352.886719 C 245.804688 346.164062 244.300781 339.101562 242.222656 332.214844 C 240.496094 326.609375 238.644531 321.015625 236.785156 315.453125 C 236.339844 314.078125 235.285156 312.421875 237.238281 311.816406 C 239.152344 311.269531 239.375 313.28125 239.859375 314.558594 C 243.375 324.46875 245.867188 334.707031 248.488281 344.851562 C 250.214844 351.371094 252.582031 356.648438 259.390625 360.144531 C 271.632812 366.390625 283.078125 374.183594 295.386719 382.6875 C 292.09375 373.464844 291.132812 364.921875 290.941406 356.277344 C 290.878906 353.382812 290.589844 350.539062 290.589844 347.632812 C 290.589844 346.402344 289.984375 344.371094 292.316406 344.4375 C 294.332031 344.488281 294.238281 346.242188 294.140625 347.691406 C 293.597656 355.34375 294.429688 362.902344 294.871094 370.503906 C 295.480469 380.257812 300.308594 386.703125 308.429688 391.882812 C 318.464844 398.289062 327.257812 406.40625 336.367188 414.15625 C 337.652344 413.613281 337.167969 412.496094 336.976562 411.601562 C 335.378906 401.503906 337.519531 391.851562 340.238281 382.273438 C 340.554688 381.042969 340.75 378.941406 342.859375 379.808594 C 344.585938 380.507812 343.4375 382.042969 343.050781 383.210938 C 339.917969 392.6875 338.734375 402.414062 338.863281 412.425781 C 338.894531 416.550781 340.9375 418.34375 343.75 420.253906 C 349.351562 424.128906 352.769531 430.324219 358.585938 433.964844 C 365.109375 443.230469 372.65625 451.734375 378.023438 461.863281 C 383.582031 472.3125 388.765625 482.855469 392.25 494.132812 C 392.730469 495.695312 394.523438 498.03125 391.640625 498.828125 C 389.4375 499.53125 387.132812 498.828125 386.015625 496.140625 C 383.300781 489.660156 380.515625 483.171875 377.699219 476.71875 C 371.789062 462.851562 364.402344 449.941406 353.023438 439.71875 C 351.746094 438.566406 350.339844 437.546875 349.023438 436.484375 C 339.628906 425.976562 328.34375 420.289062 313.863281 422.589844 C 309.609375 423.257812 305.964844 425.210938 302.351562 427.285156 C 301.136719 427.953125 299.792969 429.488281 298.773438 427.636719 C 297.878906 426.074219 299.507812 425.210938 300.785156 424.441406 C 310.25 418.5625 320.03125 417.15625 330.261719 422.363281 C 330.902344 422.625 331.539062 423.039062 332.566406 422.460938 C 331.667969 419.847656 328.917969 418.949219 327.125 417.410156 C 318.046875 409.746094 309.003906 402.042969 299.1875 395.347656 C 296.503906 393.449219 293.496094 392.621094 290.363281 391.917969 C 279.847656 389.710938 269.296875 389.539062 258.71875 391.3125 C 257.597656 391.535156 256.414062 391.707031 255.328125 391.742188 C 254.308594 391.789062 253.027344 391.917969 252.835938 390.640625 C 252.644531 389.234375 253.925781 389.074219 254.882812 388.914062 C 264.152344 387.699219 273.359375 385.953125 282.628906 388.914062 C 285.183594 389.746094 287.90625 390.035156 291.195312 390.714844 C 289.726562 387.988281 287.390625 387.410156 285.601562 386.289062 C 277.480469 381.179688 269.296875 376.070312 261.210938 370.859375 C 258.972656 369.402344 256.378906 370.417969 254.144531 369.34375 C 254.082031 368.945312 254.273438 368.789062 254.660156 368.914062 Z M 254.660156 368.914062 " fill-opacity="1" fill-rule="evenodd"/></g><path fill="#dc5f2c" d="M 254.660156 368.914062 C 254.5 369.019531 254.308594 369.203125 254.148438 369.347656 C 249.097656 369.835938 244.046875 369.359375 239.0625 368.789062 C 231.707031 367.921875 225.917969 370.894531 220.484375 375.148438 C 219.785156 375.699219 219.175781 376.332031 218.472656 376.824219 C 217.417969 377.554688 216.234375 377.796875 215.464844 376.550781 C 214.765625 375.386719 215.753906 374.601562 216.550781 374.089844 C 223.109375 369.746094 229.28125 364.539062 238.105469 366.339844 C 243.566406 367.507812 249.289062 367.203125 254.660156 368.914062 Z M 254.660156 368.914062 " fill-opacity="1" fill-rule="evenodd"/><g clip-path="url(#16b9d7db5d)"><g clip-path="url(#b2c59f4b27)"><g clip-path="url(#f42e1416d9)"><g clip-path="url(#048ae0604f)"><path fill="#bd744c" d="M 271.5 646.777344 C 239.972656 660.847656 207.621094 663.816406 174.304688 654.351562 C 165.550781 651.863281 157.511719 647.742188 151.183594 641.003906 C 143.980469 633.425781 142.742188 624.914062 147.410156 615.523438 C 151.960938 606.429688 159.222656 599.816406 168.15625 594.171875 C 165.261719 592.394531 162.179688 593.125 159.371094 592.691406 C 138.648438 589.6875 120.339844 582.328125 107.359375 564.914062 C 103.523438 559.675781 101.085938 553.800781 99.792969 547.519531 C 96.1875 530.402344 104.582031 518.339844 121.960938 515.019531 C 130.59375 513.425781 138.988281 515.03125 148.273438 516.957031 C 142.695312 502.761719 139.089844 488.683594 137.851562 474.105469 C 136.503906 457.949219 134.472656 441.710938 138.542969 425.585938 C 143.675781 405.320312 159.128906 398.292969 177.878906 407.601562 C 192.617188 414.988281 202.234375 427.394531 210.960938 440.734375 C 218.40625 452.183594 224.640625 464.269531 230.617188 476.578125 C 233.078125 476.144531 232.757812 473.996094 233.320312 472.601562 C 237.570312 462.195312 242.992188 452.316406 249.269531 443.054688 C 255.761719 433.59375 267.421875 431.796875 276.371094 438.855469 C 283.300781 444.285156 286.710938 451.714844 288.074219 460.292969 C 290.542969 475.96875 286.542969 490.878906 282.652344 505.746094 C 280.488281 513.808594 278.097656 521.800781 275.617188 530.496094 C 280.351562 529.453125 283.703125 526.746094 287.234375 524.5 C 294.707031 519.820312 302.300781 515.378906 310.898438 513.097656 C 321.890625 510.253906 330.496094 514.765625 334.671875 525.230469 C 339.859375 538.121094 339.222656 551.15625 335.515625 564.058594 C 326.214844 596.683594 308.167969 623.257812 279.324219 641.992188 Z M 271.5 646.777344 " fill-opacity="1" fill-rule="evenodd"/></g></g></g></g><g clip-path="url(#0591892d21)"><g clip-path="url(#ccee66bc47)"><g clip-path="url(#6dd5570595)"><g clip-path="url(#77d006ca18)"><path fill="#f8a13e" d="M 271.285156 646.886719 C 270.1875 645.09375 269.128906 643.273438 268.105469 641.347656 C 261.339844 628.914062 259.609375 615.054688 243.390625 613.070312 C 226.046875 610.914062 208.933594 609.023438 191.617188 613.191406 C 188.917969 613.859375 183.851562 615.320312 183.34375 612.269531 C 182.675781 608.097656 187.871094 609.5625 190.457031 609.023438 C 208.300781 605.289062 226.222656 605.175781 244.15625 608.855469 C 246.394531 609.324219 248.789062 610.289062 251.972656 608.78125 C 245.289062 596.695312 239.898438 584.023438 232.175781 572.578125 C 230.597656 570.183594 228.132812 570.164062 225.796875 569.851562 C 206.847656 567.398438 187.742188 565.882812 169.042969 561.691406 C 159.164062 559.476562 149.285156 557.285156 139.769531 553.824219 C 137.203125 552.882812 134.449219 552.109375 132.027344 547.167969 C 164.046875 557.476562 195.1875 562.488281 227.785156 564.472656 C 224.011719 556.773438 221.179688 549.851562 214.328125 544.761719 C 196.128906 531.09375 178.296875 516.730469 161.660156 501.039062 C 159.359375 498.925781 155.300781 495.933594 157.964844 493.132812 C 160.09375 490.894531 163.15625 495.140625 165.335938 496.929688 C 180.164062 509.320312 194.890625 521.859375 209.625 534.34375 C 210.542969 535.171875 211.289062 536.375 213.632812 536.160156 C 212.351562 533.636719 211.179688 531.417969 210.117188 529.148438 C 196.914062 502.355469 183.714844 475.558594 170.527344 448.710938 C 169.019531 445.554688 167.453125 442.382812 166.042969 439.15625 C 165.058594 436.867188 164.28125 434.089844 167.121094 432.875 C 169.945312 431.644531 170.710938 434.585938 171.726562 436.410156 C 179.390625 450.238281 185.09375 465.042969 192.175781 479.171875 C 205.433594 505.714844 218.984375 532.128906 232.464844 558.574219 C 233.390625 560.398438 233.8125 562.746094 236.714844 563.992188 C 237.921875 550.640625 239.308594 537.652344 241.671875 524.777344 C 244.40625 509.609375 248.925781 494.914062 253.753906 480.289062 C 254.363281 478.457031 254.746094 475.992188 257.390625 476.375 C 260.5625 476.804688 260.121094 479.609375 259.683594 481.601562 C 258.6875 485.898438 257.5 490.175781 256.039062 494.265625 C 248.4375 515.578125 246.316406 537.851562 243.175781 560.097656 C 241.542969 571.894531 244.316406 581.28125 250.058594 590.804688 C 254.777344 598.65625 257.820312 607.511719 264.445312 615.546875 C 265.863281 610.839844 267.140625 606.925781 268.140625 602.992188 C 273.488281 582.328125 282.460938 563.355469 294.421875 545.703125 C 296.230469 543.011719 298.148438 540.171875 301.273438 538.730469 C 302.777344 538.027344 304.433594 536.375 306.019531 538.152344 C 307.449219 539.804688 306.183594 541.335938 305.058594 542.789062 C 301.597656 547.3125 297.949219 551.75 294.78125 556.511719 C 281.9375 575.8125 275.105469 597.671875 268.378906 619.535156 C 265.800781 627.960938 276.464844 637.777344 280.535156 644.191406 C 287.875 655.785156 295.578125 666.832031 303.65625 677.917969 C 305.609375 680.503906 308.046875 683.15625 304.769531 685.828125 C 301.003906 688.867188 298.792969 685.136719 296.902344 682.660156 C 287.925781 671.078125 278.773438 659.496094 271.285156 646.886719 Z M 271.285156 646.886719 " fill-opacity="1" fill-rule="evenodd"/></g></g></g></g><g clip-path="url(#434ca8287a)"><g clip-path="url(#81dd40402f)"><g clip-path="url(#54fe15ec9e)"><g clip-path="url(#cd74c14d62)"><path fill="#eb6c47" d="M 393.875 571.023438 C 393.886719 569.871094 393.890625 568.664062 393.875 567.453125 C 393.855469 568.628906 393.855469 569.8125 393.875 571.023438 Z M 471.097656 617.6875 C 470.488281 616.324219 469.742188 614.941406 468.859375 613.546875 C 469.570312 614.960938 470.316406 616.34375 471.097656 617.6875 Z M 471.113281 617.714844 C 479.109375 635.671875 464.984375 651.929688 446.367188 650.285156 C 414.460938 647.492188 394.597656 606.097656 393.890625 571.050781 C 392.9375 624.675781 343.496094 616.921875 325.332031 583.21875 C 305.074219 545.609375 310.378906 495.691406 342.570312 460.1875 C 344.148438 458.460938 345.769531 456.746094 347.464844 455.097656 C 388.902344 414.550781 446.265625 410.535156 474.671875 436.25 C 499.789062 458.976562 479.390625 481.308594 463.042969 487.023438 C 459.441406 487.699219 457.203125 488.3125 456.949219 488.375 C 458.835938 488.230469 460.90625 487.78125 463.042969 487.023438 C 474.15625 484.921875 498.191406 482.109375 516.296875 492.207031 C 546.335938 508.957031 540.03125 545.980469 507.171875 547.582031 C 508.640625 547.570312 520.867188 547.667969 537.765625 556.910156 C 559.398438 568.742188 587.628906 586.792969 577.386719 623 C 567.832031 656.667969 500.40625 668.605469 471.113281 617.714844 Z M 471.113281 617.714844 " fill-opacity="1" fill-rule="nonzero"/></g></g></g></g><g clip-path="url(#3e53b9ed1c)"><g clip-path="url(#5b15123867)"><g clip-path="url(#2cbce59d8a)"><g clip-path="url(#da552a51b8)"><path fill="#ab3512" d="M 495.828125 589.933594 C 485.761719 585.28125 476.148438 580.125 466.578125 574.742188 C 457.042969 569.328125 447.683594 563.632812 438.511719 557.636719 C 420.136719 545.664062 402.480469 532.535156 385.832031 518.097656 C 369.203125 503.667969 353.609375 487.914062 339.730469 470.589844 C 325.882812 453.253906 313.785156 434.3125 304.695312 413.761719 C 303.160156 410.277344 304.726562 406.207031 308.207031 404.667969 C 311.691406 403.128906 315.757812 404.695312 317.296875 408.179688 C 317.324219 408.234375 317.351562 408.3125 317.359375 408.363281 C 325.363281 427.882812 336.328125 446.25 349.160156 463.285156 C 362.007812 480.324219 376.746094 496.035156 392.558594 510.578125 C 408.398438 525.128906 425.386719 538.507812 443.125 550.789062 C 451.996094 556.929688 461.058594 562.820312 470.308594 568.410156 C 474.9375 571.183594 479.601562 573.921875 484.296875 576.550781 C 488.996094 579.175781 493.796875 581.765625 498.535156 584.097656 L 498.59375 584.140625 C 500.203125 584.925781 500.851562 586.867188 500.050781 588.449219 C 499.304688 590 497.429688 590.671875 495.828125 589.933594 Z M 495.828125 589.933594 " fill-opacity="1" fill-rule="nonzero"/></g></g></g></g><g clip-path="url(#037b22cb36)"><g clip-path="url(#94d62d2494)"><g clip-path="url(#b9caf1eed1)"><g clip-path="url(#31b5999404)"><path fill="#ab3512" d="M 477.984375 528.839844 C 476.976562 529.132812 475.832031 529.40625 474.757812 529.769531 C 473.65625 530.058594 472.578125 530.421875 471.492188 530.734375 C 469.324219 531.4375 467.175781 532.144531 465.074219 532.9375 C 460.855469 534.492188 456.710938 536.1875 452.792969 538.164062 C 448.867188 540.160156 445.121094 542.355469 441.601562 544.804688 C 438.144531 547.296875 434.925781 550.09375 432.046875 553.089844 L 433.597656 549.792969 C 433.5 550.519531 433.402344 551.484375 433.328125 552.359375 L 433.109375 555.082031 C 432.964844 556.90625 432.894531 558.730469 432.839844 560.582031 C 432.742188 564.238281 432.761719 567.90625 432.949219 571.554688 C 433.136719 575.203125 433.554688 578.800781 434.132812 582.402344 C 434.769531 585.972656 435.699219 589.4375 436.863281 592.976562 L 436.914062 593.132812 C 437.359375 594.496094 436.609375 595.972656 435.25 596.417969 C 434.199219 596.769531 433.105469 596.394531 432.445312 595.605469 C 429.769531 592.375 427.660156 588.675781 426.019531 584.828125 C 424.453125 580.960938 423.292969 576.929688 422.492188 572.882812 C 421.765625 568.816406 421.285156 564.726562 421.136719 560.617188 C 421.042969 558.554688 421.058594 556.527344 421.128906 554.46875 C 421.152344 553.433594 421.195312 552.410156 421.269531 551.367188 C 421.351562 550.304688 421.429688 549.335938 421.570312 548.148438 C 421.714844 546.867188 422.285156 545.738281 423.113281 544.875 L 423.140625 544.859375 C 426.757812 541.042969 430.707031 537.777344 434.992188 534.964844 C 439.339844 532.265625 443.878906 530.027344 448.574219 528.304688 C 453.265625 526.582031 458.074219 525.34375 462.9375 524.570312 C 465.367188 524.183594 467.8125 523.898438 470.242188 523.746094 C 471.464844 523.6875 472.691406 523.625 473.921875 523.613281 C 474.535156 523.609375 475.144531 523.625 475.777344 523.644531 C 476.414062 523.648438 476.988281 523.699219 477.683594 523.742188 C 479.121094 523.839844 480.191406 525.078125 480.09375 526.515625 C 480.023438 527.628906 479.257812 528.535156 478.25 528.824219 Z M 477.984375 528.839844 " fill-opacity="1" fill-rule="nonzero"/></g></g></g></g><g clip-path="url(#312c08ec98)"><g clip-path="url(#1a496be234)"><g clip-path="url(#7099a5e859)"><g clip-path="url(#2360d59efe)"><path fill="#ab3512" d="M 430.082031 472.3125 C 424.910156 473.585938 419.804688 475.019531 414.839844 476.707031 C 409.867188 478.414062 405.015625 480.351562 400.261719 482.503906 C 395.53125 484.664062 390.941406 487.074219 386.511719 489.726562 C 385.410156 490.414062 384.300781 491.054688 383.210938 491.769531 C 382.148438 492.492188 381.050781 493.15625 380 493.910156 C 378.949219 494.660156 377.882812 495.382812 376.863281 496.117188 L 375.367188 497.253906 L 373.910156 498.332031 L 375.695312 495.910156 C 373.648438 501.117188 371.890625 506.382812 370.472656 511.703125 C 369.074219 517.027344 368.007812 522.429688 367.367188 527.910156 C 366.726562 533.394531 366.460938 538.960938 366.5 544.621094 C 366.492188 550.269531 366.890625 555.988281 367.164062 561.8125 C 367.230469 563.25 366.109375 564.476562 364.679688 564.523438 C 363.507812 564.578125 362.472656 563.84375 362.101562 562.789062 C 360.140625 557.167969 358.714844 551.332031 357.699219 545.378906 C 356.710938 539.414062 356.25 533.273438 356.453125 527.117188 C 356.65625 520.964844 357.457031 514.796875 358.863281 508.8125 C 360.246094 502.816406 362.191406 496.992188 364.484375 491.367188 L 364.589844 491.089844 C 364.949219 490.203125 365.546875 489.460938 366.269531 488.941406 L 368.085938 487.59375 L 369.859375 486.324219 C 371.050781 485.5 372.242188 484.742188 373.421875 483.960938 C 375.816406 482.429688 378.289062 481.015625 380.796875 479.660156 C 385.820312 476.996094 391.03125 474.71875 396.375 472.882812 C 401.722656 471.027344 407.175781 469.601562 412.730469 468.632812 C 418.265625 467.660156 423.863281 467.105469 429.460938 467.1875 C 430.894531 467.214844 432.035156 468.382812 432.03125 469.820312 C 432.027344 471.027344 431.183594 472.027344 430.0625 472.308594 Z M 430.082031 472.3125 " fill-opacity="1" fill-rule="nonzero"/></g></g></g></g></svg>