<svg xmlns="http://www.w3.org/2000/svg" xmlns:xlink="http://www.w3.org/1999/xlink" width="1080" zoomAndPan="magnify" viewBox="0 0 810 809.999993" height="1080" preserveAspectRatio="xMidYMid meet" version="1.0"><defs><clipPath id="8c0791bed0"><path d="M 421.984375 649.066406 L 462.847656 649.066406 L 462.847656 729 L 421.984375 729 Z M 421.984375 649.066406 " clip-rule="nonzero"/></clipPath><clipPath id="e2d077c361"><path d="M 428.367188 649.066406 L 456.460938 649.066406 C 458.15625 649.066406 459.777344 649.742188 460.976562 650.9375 C 462.171875 652.136719 462.847656 653.757812 462.847656 655.453125 L 462.847656 722.613281 C 462.847656 726.140625 459.988281 729 456.460938 729 L 428.367188 729 C 426.675781 729 425.050781 728.328125 423.851562 727.128906 C 422.65625 725.933594 421.984375 724.308594 421.984375 722.613281 L 421.984375 655.453125 C 421.984375 651.925781 424.839844 649.066406 428.367188 649.066406 Z M 428.367188 649.066406 " clip-rule="nonzero"/></clipPath><clipPath id="18bd2a3253"><path d="M 219.480469 143.109375 L 664.980469 143.109375 L 664.980469 666.609375 L 219.480469 666.609375 Z M 219.480469 143.109375 " clip-rule="nonzero"/></clipPath><clipPath id="42464ab56d"><path d="M 252 641 L 397 641 L 397 742.410156 L 252 742.410156 Z M 252 641 " clip-rule="nonzero"/></clipPath><clipPath id="32ee8baa57"><path d="M 241.660156 610 L 407.410156 610 L 407.410156 654 L 241.660156 654 Z M 241.660156 610 " clip-rule="nonzero"/></clipPath><clipPath id="d9d5235029"><path d="M 320 610 L 329 610 L 329 742.410156 L 320 742.410156 Z M 320 610 " clip-rule="nonzero"/></clipPath><clipPath id="dcfea29d29"><path d="M 110 656 L 233 656 L 233 742.773438 L 110 742.773438 Z M 110 656 " clip-rule="nonzero"/></clipPath><clipPath id="bd0d9eb4b5"><path d="M 101.183594 630 L 241.433594 630 L 241.433594 667 L 101.183594 667 Z M 101.183594 630 " clip-rule="nonzero"/></clipPath><clipPath id="05a35eea95"><path d="M 168 630 L 175 630 L 175 742.773438 L 168 742.773438 Z M 168 630 " clip-rule="nonzero"/></clipPath><clipPath id="72daed87d9"><path d="M 407.066406 67 L 490.316406 67 L 490.316406 142.976562 L 407.066406 142.976562 Z M 407.066406 67 " clip-rule="nonzero"/></clipPath></defs><g clip-path="url(#8c0791bed0)"><g clip-path="url(#e2d077c361)"><path fill="#b06d29" d="M 421.984375 649.066406 L 462.847656 649.066406 L 462.847656 729.039062 L 421.984375 729.039062 Z M 421.984375 649.066406 " fill-opacity="1" fill-rule="nonzero"/></g></g><g clip-path="url(#18bd2a3253)"><path fill="#009656" d="M 318.773438 508.542969 C 314.84375 508.25 311.328125 508.078125 307.835938 507.699219 C 299.769531 506.835938 291.65625 506.277344 283.710938 504.480469 C 280.378906 503.722656 277.253906 502.519531 274.433594 500.546875 C 270.921875 498.09375 269.585938 494.742188 270.65625 490.652344 C 271.335938 488.054688 272.347656 485.515625 273.460938 483.066406 C 277.515625 474.101562 282.757812 465.8125 288.136719 457.59375 C 299.992188 439.46875 312.402344 421.738281 325.132812 404.210938 C 337.746094 386.839844 350.792969 369.828125 364.449219 353.273438 C 369.054688 347.6875 373.570312 342.027344 378.121094 336.390625 C 378.628906 335.769531 379.085938 335.109375 379.59375 334.429688 C 378.988281 333.726562 378.269531 334.003906 377.648438 333.980469 C 371.019531 333.671875 364.394531 333.4375 357.769531 333.078125 C 355.613281 332.960938 353.453125 332.648438 351.339844 332.210938 C 349.96875 331.929688 348.597656 331.410156 347.375 330.734375 C 344.46875 329.121094 343.257812 326.390625 344.066406 323.175781 C 344.578125 321.152344 345.335938 319.179688 346.117188 317.238281 C 346.945312 315.167969 347.855469 313.128906 348.851562 311.132812 C 357.773438 293.199219 366.933594 275.40625 377.84375 258.558594 C 381.550781 252.832031 384.714844 246.746094 388.105469 240.820312 C 391.765625 234.414062 395.460938 228.035156 399.039062 221.585938 C 402.253906 215.789062 405.46875 209.988281 408.421875 204.058594 C 411.226562 198.410156 414.28125 192.949219 417.847656 187.742188 C 427.449219 173.730469 436.945312 159.644531 446.5 145.605469 C 448.152344 143.171875 448.496094 143.128906 450.46875 145.417969 C 451.613281 146.738281 452.636719 148.191406 453.539062 149.6875 C 459.054688 158.839844 464.648438 167.941406 469.761719 177.335938 C 476.75 190.167969 484.148438 202.765625 491.71875 215.261719 C 499.152344 227.527344 505.996094 240.140625 513.222656 252.53125 C 516.792969 258.664062 520.742188 264.585938 524.335938 270.707031 C 532.027344 283.839844 539.617188 297.039062 547.214844 310.230469 C 548.902344 313.160156 550.171875 316.285156 551.234375 319.519531 C 553.144531 325.335938 549.726562 330.1875 544.816406 331.632812 C 540.453125 332.910156 536.019531 333.789062 531.511719 334.320312 C 527.554688 334.789062 523.589844 335.214844 519.449219 335.683594 C 519.730469 336.207031 519.929688 336.679688 520.21875 337.097656 C 527.277344 347.433594 534.386719 357.734375 541.40625 368.101562 C 551.992188 383.730469 562.707031 399.277344 573.015625 415.09375 C 580.921875 427.21875 588.085938 439.816406 594.902344 452.59375 C 599.941406 462.023438 604.898438 471.488281 609.8125 480.980469 C 611.703125 484.640625 613.433594 488.394531 615.097656 492.160156 C 615.6875 493.5 616.035156 495.007812 616.171875 496.460938 C 616.5 499.859375 615.140625 502.304688 611.960938 503.566406 C 609.023438 504.734375 605.980469 505.78125 602.882812 506.386719 C 592.367188 508.441406 581.722656 509.410156 571.019531 509.78125 C 569.570312 509.828125 568.117188 509.953125 566.324219 510.0625 C 566.792969 510.628906 566.976562 510.890625 567.199219 511.117188 C 575.359375 519.378906 582.449219 528.527344 589.28125 537.875 C 600.746094 553.550781 612.488281 569.03125 623.132812 585.289062 C 628.582031 593.609375 633.65625 602.175781 639.109375 610.492188 C 644.933594 619.378906 651.007812 628.089844 656.949219 636.898438 C 658.957031 639.867188 660.9375 642.859375 662.824219 645.902344 C 663.5625 647.101562 664.140625 648.433594 664.550781 649.777344 C 665.324219 652.320312 664.578125 654.589844 662.3125 655.945312 C 660.59375 656.976562 658.679688 657.769531 656.761719 658.347656 C 651.429688 659.945312 645.929688 660.726562 640.394531 661.199219 C 631.894531 661.929688 623.394531 662.582031 614.898438 663.296875 C 605.996094 664.039062 597.105469 664.964844 588.191406 665.519531 C 578.601562 666.121094 568.992188 666.648438 559.382812 666.746094 C 546.390625 666.875 533.390625 666.699219 520.394531 666.386719 C 513.90625 666.230469 507.4375 665.484375 500.960938 664.988281 C 497.046875 664.695312 493.117188 664.511719 489.230469 664.039062 C 481.144531 663.0625 473.03125 663.011719 464.910156 662.699219 C 455.972656 662.359375 447.046875 662.46875 438.113281 662.570312 C 431.34375 662.652344 424.574219 662.835938 417.804688 662.726562 C 405.757812 662.535156 393.710938 662.070312 381.660156 661.882812 C 369.886719 661.691406 358.101562 661.855469 346.324219 661.589844 C 330.828125 661.234375 315.339844 660.476562 299.84375 660.128906 C 287.121094 659.839844 274.390625 659.933594 261.664062 659.78125 C 252.730469 659.679688 243.800781 659.484375 234.867188 659.277344 C 232.503906 659.222656 230.132812 659.035156 227.78125 658.777344 C 226.65625 658.648438 225.511719 658.324219 224.472656 657.875 C 221.003906 656.375 219.449219 653.34375 220.140625 649.632812 C 220.640625 646.945312 221.726562 644.472656 223.003906 642.078125 C 226.980469 634.59375 231.609375 627.519531 236.605469 620.683594 C 254.625 596.050781 272.613281 571.398438 290.664062 546.789062 C 298.789062 535.707031 307.027344 524.71875 315.203125 513.675781 C 316.359375 512.113281 317.429688 510.480469 318.773438 508.542969 " fill-opacity="1" fill-rule="nonzero"/></g><path fill="#ff8bb5" d="M 373.5625 567.496094 C 371.976562 576.964844 346.886719 592.894531 337.992188 598.84375 C 335.808594 600.304688 333.507812 601.84375 331.28125 603.222656 C 329.191406 604.515625 329.402344 604.96875 329.898438 602.160156 C 331.902344 590.824219 335.597656 573.789062 343.1875 565.277344 C 347.734375 560.179688 352.4375 558.671875 359.179688 559.738281 C 362.226562 560.222656 365.277344 560.761719 368.179688 561.851562 C 369.488281 562.34375 370.75 562.917969 371.878906 563.75 C 373.246094 564.757812 373.855469 565.761719 373.5625 567.496094 Z M 380.691406 566.019531 L 380.691406 567.453125 C 380.320312 573.074219 375.796875 578.320312 372.03125 582.078125 C 367.511719 586.59375 362.324219 590.597656 357.152344 594.339844 C 351.878906 598.160156 346.4375 601.757812 340.984375 605.316406 C 338.746094 606.777344 330.640625 611.96875 328.816406 613.503906 C 327.394531 614.707031 326.441406 615.871094 324.375 615.855469 C 322.316406 615.84375 321.378906 614.660156 319.957031 613.46875 C 318.785156 612.488281 317.253906 611.535156 315.972656 610.667969 C 303.339844 602.121094 287.398438 592.710938 276.730469 582.046875 C 273.023438 578.339844 268.539062 573.09375 268.132812 567.535156 L 268.132812 565.917969 C 268.183594 565.234375 268.300781 564.554688 268.492188 563.867188 C 270.398438 557.160156 279.0625 554.523438 285.105469 553.339844 C 293.253906 551.746094 299.828125 551.582031 306.773438 556.757812 C 315.941406 563.589844 320.433594 577.03125 323.140625 587.890625 C 323.527344 589.4375 323.9375 591.15625 324.238281 592.730469 C 324.253906 592.820312 324.285156 593.007812 324.308594 593.085938 C 324.402344 593.40625 324.296875 593.207031 324.453125 593.363281 C 326.859375 581.253906 331.742188 564.40625 342.089844 556.71875 C 349.046875 551.546875 355.640625 551.765625 363.78125 553.359375 C 369.789062 554.535156 378.519531 557.226562 380.34375 563.9375 C 380.53125 564.636719 380.644531 565.328125 380.691406 566.019531 Z M 275.171875 567.324219 C 274.558594 561.949219 286.167969 560.261719 289.855469 559.699219 C 296.574219 558.671875 301.277344 560.335938 305.75 565.414062 C 312.636719 573.234375 316.050781 587.667969 318.066406 597.710938 C 318.375 599.246094 318.648438 600.773438 318.941406 602.308594 C 319.488281 605.15625 319.410156 604.359375 317.445312 603.164062 C 315.207031 601.804688 312.863281 600.203125 310.679688 598.742188 C 306.214844 595.753906 301.746094 592.867188 297.363281 589.75 C 291.785156 585.78125 275.953125 574.171875 275.171875 567.324219 Z M 275.171875 567.324219 " fill-opacity="1" fill-rule="evenodd"/><g clip-path="url(#42464ab56d)"><path fill="#df4316" d="M 262.292969 641.421875 L 386.527344 641.421875 C 387.164062 641.421875 387.792969 641.484375 388.414062 641.609375 C 389.039062 641.730469 389.644531 641.914062 390.230469 642.160156 C 390.820312 642.402344 391.375 642.699219 391.90625 643.054688 C 392.433594 643.40625 392.921875 643.808594 393.371094 644.257812 C 393.820312 644.707031 394.222656 645.195312 394.574219 645.722656 C 394.929688 646.25 395.226562 646.808594 395.46875 647.398438 C 395.714844 647.984375 395.898438 648.589844 396.019531 649.210938 C 396.144531 649.835938 396.207031 650.464844 396.207031 651.101562 L 396.207031 732.667969 C 396.207031 733.304688 396.144531 733.933594 396.019531 734.558594 C 395.898438 735.179688 395.714844 735.785156 395.46875 736.375 C 395.226562 736.960938 394.929688 737.519531 394.574219 738.046875 C 394.222656 738.574219 393.820312 739.0625 393.371094 739.511719 C 392.921875 739.960938 392.433594 740.363281 391.90625 740.71875 C 391.375 741.070312 390.820312 741.367188 390.230469 741.613281 C 389.644531 741.855469 389.039062 742.039062 388.414062 742.164062 C 387.792969 742.285156 387.164062 742.347656 386.527344 742.347656 L 262.292969 742.347656 C 261.65625 742.347656 261.027344 742.285156 260.402344 742.164062 C 259.78125 742.039062 259.175781 741.855469 258.585938 741.613281 C 258 741.367188 257.441406 741.070312 256.914062 740.71875 C 256.386719 740.363281 255.898438 739.960938 255.449219 739.511719 C 255 739.0625 254.597656 738.574219 254.242188 738.046875 C 253.890625 737.519531 253.59375 736.960938 253.347656 736.375 C 253.105469 735.785156 252.921875 735.179688 252.796875 734.558594 C 252.675781 733.933594 252.613281 733.304688 252.613281 732.667969 L 252.613281 651.101562 C 252.613281 650.464844 252.675781 649.835938 252.796875 649.210938 C 252.921875 648.589844 253.105469 647.984375 253.347656 647.398438 C 253.59375 646.808594 253.890625 646.25 254.242188 645.722656 C 254.597656 645.195312 255 644.707031 255.449219 644.257812 C 255.898438 643.808594 256.386719 643.40625 256.914062 643.054688 C 257.441406 642.699219 258 642.402344 258.585938 642.160156 C 259.175781 641.914062 259.78125 641.730469 260.402344 641.609375 C 261.027344 641.484375 261.65625 641.421875 262.292969 641.421875 Z M 262.292969 641.421875 " fill-opacity="1" fill-rule="evenodd"/></g><g clip-path="url(#32ee8baa57)"><path fill="#df4316" d="M 247.746094 610.273438 L 401.074219 610.273438 C 401.46875 610.273438 401.863281 610.3125 402.253906 610.386719 C 402.644531 610.464844 403.019531 610.582031 403.386719 610.730469 C 403.753906 610.882812 404.101562 611.070312 404.433594 611.289062 C 404.761719 611.511719 405.070312 611.761719 405.347656 612.042969 C 405.628906 612.324219 405.878906 612.628906 406.101562 612.960938 C 406.320312 613.289062 406.507812 613.636719 406.660156 614.003906 C 406.8125 614.371094 406.925781 614.75 407.003906 615.140625 C 407.082031 615.527344 407.121094 615.921875 407.121094 616.320312 L 407.121094 647.183594 C 407.121094 647.582031 407.082031 647.976562 407.003906 648.363281 C 406.925781 648.753906 406.8125 649.132812 406.660156 649.5 C 406.507812 649.867188 406.320312 650.214844 406.101562 650.542969 C 405.878906 650.875 405.628906 651.179688 405.347656 651.460938 C 405.070312 651.742188 404.761719 651.992188 404.433594 652.210938 C 404.101562 652.433594 403.753906 652.621094 403.386719 652.769531 C 403.019531 652.921875 402.644531 653.039062 402.253906 653.117188 C 401.863281 653.191406 401.46875 653.230469 401.074219 653.230469 L 247.746094 653.230469 C 247.351562 653.230469 246.957031 653.191406 246.566406 653.117188 C 246.179688 653.039062 245.800781 652.921875 245.433594 652.769531 C 245.066406 652.621094 244.71875 652.433594 244.386719 652.210938 C 244.058594 651.992188 243.753906 651.742188 243.472656 651.460938 C 243.191406 651.179688 242.941406 650.875 242.71875 650.542969 C 242.5 650.214844 242.3125 649.867188 242.160156 649.5 C 242.007812 649.132812 241.894531 648.753906 241.816406 648.363281 C 241.738281 647.976562 241.699219 647.582031 241.699219 647.183594 L 241.699219 616.320312 C 241.699219 615.921875 241.738281 615.527344 241.816406 615.140625 C 241.894531 614.75 242.007812 614.371094 242.160156 614.003906 C 242.3125 613.636719 242.5 613.289062 242.71875 612.960938 C 242.941406 612.628906 243.191406 612.324219 243.472656 612.042969 C 243.753906 611.761719 244.058594 611.511719 244.386719 611.289062 C 244.71875 611.070312 245.066406 610.882812 245.433594 610.730469 C 245.800781 610.582031 246.179688 610.464844 246.566406 610.386719 C 246.957031 610.3125 247.351562 610.273438 247.746094 610.273438 Z M 247.746094 610.273438 " fill-opacity="1" fill-rule="evenodd"/></g><path fill="#ff8bb5" d="M 250.8125 653.132812 L 398.007812 653.132812 L 398.007812 660.53125 L 250.8125 660.53125 Z M 250.8125 653.132812 " fill-opacity="1" fill-rule="evenodd"/><g clip-path="url(#d9d5235029)"><path fill="#ff8bb5" d="M 328.195312 610.085938 L 328.195312 742.351562 L 320.625 742.351562 L 320.625 610.085938 Z M 328.195312 610.085938 " fill-opacity="1" fill-rule="evenodd"/></g><path fill="#5ce1e6" d="M 213.210938 593.890625 C 211.863281 601.933594 190.554688 615.460938 182.996094 620.515625 C 181.144531 621.757812 179.191406 623.066406 177.300781 624.234375 C 175.523438 625.332031 175.703125 625.71875 176.125 623.332031 C 177.824219 613.707031 180.964844 599.238281 187.410156 592.007812 C 191.273438 587.679688 195.265625 586.398438 200.992188 587.304688 C 203.582031 587.714844 206.171875 588.171875 208.636719 589.097656 C 209.75 589.515625 210.816406 590.003906 211.777344 590.710938 C 212.9375 591.566406 213.457031 592.421875 213.210938 593.890625 Z M 219.261719 592.636719 L 219.261719 593.859375 C 218.949219 598.628906 215.105469 603.085938 211.910156 606.277344 C 208.066406 610.113281 203.664062 613.511719 199.269531 616.691406 C 194.792969 619.9375 190.171875 622.992188 185.539062 626.015625 C 183.640625 627.253906 176.753906 631.664062 175.207031 632.96875 C 173.996094 633.988281 173.1875 634.976562 171.433594 634.964844 C 169.683594 634.957031 168.890625 633.949219 167.679688 632.9375 C 166.6875 632.105469 165.386719 631.292969 164.296875 630.558594 C 153.566406 623.300781 140.027344 615.308594 130.96875 606.253906 C 127.820312 603.105469 124.011719 598.648438 123.664062 593.925781 L 123.664062 592.550781 C 123.710938 591.972656 123.808594 591.394531 123.972656 590.8125 C 125.589844 585.117188 132.949219 582.875 138.082031 581.871094 C 145 580.519531 150.585938 580.375 156.484375 584.773438 C 164.273438 590.574219 168.085938 601.992188 170.386719 611.214844 C 170.714844 612.527344 171.0625 613.988281 171.316406 615.324219 C 171.332031 615.402344 171.355469 615.5625 171.375 615.628906 C 171.457031 615.898438 171.367188 615.726562 171.5 615.863281 C 173.542969 605.578125 177.691406 591.269531 186.480469 584.738281 C 192.390625 580.347656 197.988281 580.53125 204.898438 581.886719 C 210.003906 582.886719 217.417969 585.171875 218.96875 590.871094 C 219.128906 591.464844 219.222656 592.054688 219.261719 592.636719 Z M 129.644531 593.746094 C 129.125 589.183594 138.984375 587.75 142.113281 587.269531 C 147.824219 586.398438 151.816406 587.8125 155.617188 592.125 C 161.464844 598.769531 164.363281 611.023438 166.078125 619.554688 C 166.339844 620.859375 166.570312 622.15625 166.820312 623.457031 C 167.285156 625.878906 167.21875 625.199219 165.546875 624.183594 C 163.648438 623.03125 161.65625 621.671875 159.800781 620.429688 C 156.011719 617.894531 152.214844 615.4375 148.492188 612.792969 C 143.757812 609.425781 130.308594 599.5625 129.644531 593.746094 Z M 129.644531 593.746094 " fill-opacity="1" fill-rule="evenodd"/><g clip-path="url(#dcfea29d29)"><path fill="#38b6ff" d="M 118.707031 656.679688 L 224.21875 656.679688 C 224.757812 656.679688 225.292969 656.730469 225.824219 656.835938 C 226.351562 656.941406 226.867188 657.097656 227.363281 657.304688 C 227.863281 657.511719 228.335938 657.761719 228.785156 658.0625 C 229.234375 658.363281 229.652344 658.703125 230.03125 659.085938 C 230.414062 659.46875 230.753906 659.882812 231.054688 660.332031 C 231.355469 660.78125 231.609375 661.253906 231.8125 661.753906 C 232.019531 662.25 232.175781 662.765625 232.28125 663.296875 C 232.386719 663.824219 232.441406 664.359375 232.441406 664.898438 L 232.441406 734.175781 C 232.441406 734.714844 232.386719 735.25 232.28125 735.777344 C 232.175781 736.308594 232.019531 736.820312 231.8125 737.320312 C 231.609375 737.820312 231.355469 738.292969 231.054688 738.742188 C 230.753906 739.191406 230.414062 739.605469 230.03125 739.988281 C 229.652344 740.367188 229.234375 740.710938 228.785156 741.007812 C 228.335938 741.308594 227.863281 741.5625 227.363281 741.769531 C 226.867188 741.976562 226.351562 742.132812 225.824219 742.238281 C 225.292969 742.34375 224.757812 742.394531 224.21875 742.394531 L 118.707031 742.394531 C 118.167969 742.394531 117.632812 742.34375 117.101562 742.238281 C 116.574219 742.132812 116.058594 741.976562 115.5625 741.769531 C 115.0625 741.5625 114.589844 741.308594 114.140625 741.007812 C 113.691406 740.710938 113.273438 740.367188 112.894531 739.988281 C 112.511719 739.605469 112.171875 739.191406 111.871094 738.742188 C 111.570312 738.292969 111.316406 737.820312 111.113281 737.320312 C 110.90625 736.820312 110.75 736.308594 110.644531 735.777344 C 110.539062 735.25 110.484375 734.714844 110.484375 734.175781 L 110.484375 664.898438 C 110.484375 664.359375 110.539062 663.824219 110.644531 663.296875 C 110.75 662.765625 110.90625 662.25 111.113281 661.753906 C 111.316406 661.253906 111.570312 660.78125 111.871094 660.332031 C 112.171875 659.882812 112.511719 659.46875 112.894531 659.085938 C 113.273438 658.703125 113.691406 658.363281 114.140625 658.0625 C 114.589844 657.761719 115.0625 657.511719 115.5625 657.304688 C 116.058594 657.097656 116.574219 656.941406 117.101562 656.835938 C 117.632812 656.730469 118.167969 656.679688 118.707031 656.679688 Z M 118.707031 656.679688 " fill-opacity="1" fill-rule="evenodd"/></g><g clip-path="url(#bd0d9eb4b5)"><path fill="#38b6ff" d="M 106.355469 630.222656 L 236.574219 630.222656 C 236.910156 630.222656 237.246094 630.253906 237.574219 630.320312 C 237.90625 630.386719 238.226562 630.484375 238.539062 630.613281 C 238.851562 630.742188 239.144531 630.902344 239.425781 631.089844 C 239.707031 631.273438 239.964844 631.488281 240.203125 631.726562 C 240.441406 631.964844 240.65625 632.222656 240.84375 632.503906 C 241.03125 632.785156 241.1875 633.082031 241.316406 633.394531 C 241.445312 633.703125 241.542969 634.023438 241.609375 634.355469 C 241.675781 634.6875 241.707031 635.019531 241.710938 635.359375 L 241.710938 661.574219 C 241.707031 661.910156 241.675781 662.242188 241.609375 662.574219 C 241.542969 662.90625 241.445312 663.226562 241.316406 663.539062 C 241.1875 663.847656 241.03125 664.144531 240.84375 664.425781 C 240.65625 664.707031 240.441406 664.964844 240.203125 665.203125 C 239.964844 665.441406 239.707031 665.65625 239.425781 665.84375 C 239.144531 666.03125 238.851562 666.1875 238.539062 666.316406 C 238.226562 666.445312 237.90625 666.542969 237.574219 666.609375 C 237.246094 666.675781 236.910156 666.707031 236.574219 666.707031 L 106.355469 666.707031 C 106.015625 666.707031 105.683594 666.675781 105.351562 666.609375 C 105.019531 666.542969 104.699219 666.445312 104.386719 666.316406 C 104.078125 666.1875 103.78125 666.03125 103.5 665.84375 C 103.21875 665.65625 102.960938 665.441406 102.722656 665.203125 C 102.484375 664.964844 102.269531 664.707031 102.082031 664.425781 C 101.898438 664.144531 101.738281 663.847656 101.609375 663.539062 C 101.480469 663.226562 101.382812 662.90625 101.316406 662.574219 C 101.25 662.242188 101.21875 661.910156 101.21875 661.574219 L 101.21875 635.359375 C 101.21875 635.019531 101.25 634.6875 101.316406 634.355469 C 101.382812 634.023438 101.480469 633.703125 101.609375 633.394531 C 101.738281 633.082031 101.898438 632.785156 102.082031 632.503906 C 102.269531 632.222656 102.484375 631.964844 102.722656 631.726562 C 102.960938 631.488281 103.21875 631.273438 103.5 631.089844 C 103.78125 630.902344 104.078125 630.742188 104.386719 630.613281 C 104.699219 630.484375 105.019531 630.386719 105.351562 630.320312 C 105.683594 630.253906 106.015625 630.222656 106.355469 630.222656 Z M 106.355469 630.222656 " fill-opacity="1" fill-rule="evenodd"/></g><path fill="#5ce1e6" d="M 108.957031 666.625 L 233.96875 666.625 L 233.96875 672.910156 L 108.957031 672.910156 Z M 108.957031 666.625 " fill-opacity="1" fill-rule="evenodd"/><g clip-path="url(#05a35eea95)"><path fill="#5ce1e6" d="M 174.679688 630.066406 L 174.679688 742.398438 L 168.25 742.398438 L 168.25 630.066406 Z M 174.679688 630.066406 " fill-opacity="1" fill-rule="evenodd"/></g><g clip-path="url(#72daed87d9)"><path fill="#ffde59" d="M 422.6875 138.203125 C 422.75 137.050781 423.066406 136.078125 423.34375 135.105469 C 424.058594 132.367188 425.113281 129.746094 425.707031 126.984375 C 426.222656 124.664062 427.015625 122.460938 427.75 120.214844 C 428.207031 118.847656 428.507812 117.417969 428.882812 116.007812 C 428.984375 115.691406 428.921875 115.453125 428.644531 115.292969 C 427.15625 114.378906 426.085938 113.011719 424.832031 111.839844 C 423.066406 110.171875 421.199219 108.621094 419.292969 107.132812 C 417.46875 105.703125 415.761719 104.15625 413.996094 102.648438 C 412.566406 101.394531 411.15625 100.125 409.863281 98.714844 C 409.367188 98.179688 408.871094 97.644531 408.59375 96.949219 C 408.476562 96.671875 408.238281 96.472656 408.039062 96.253906 C 407.203125 95.363281 407.066406 94.03125 407.679688 93.15625 C 407.878906 92.878906 408.15625 92.703125 408.4375 92.542969 C 409.191406 92.144531 410.003906 91.90625 410.859375 91.90625 C 411.117188 91.90625 411.355469 91.886719 411.59375 91.808594 C 413.023438 91.351562 414.46875 91.210938 415.980469 91.191406 C 418.042969 91.152344 420.109375 91.132812 422.171875 91.132812 C 423.464844 91.132812 424.753906 91.09375 426.042969 91.152344 C 428.425781 91.230469 430.789062 91.332031 433.171875 91.449219 C 434.003906 91.492188 434.839844 91.648438 435.671875 91.789062 C 435.871094 91.808594 435.988281 91.789062 436.050781 91.589844 C 436.566406 90.0625 437.417969 88.691406 438.09375 87.242188 C 438.910156 85.515625 439.664062 83.746094 440.316406 81.941406 C 441.628906 78.367188 443.078125 74.875 444.683594 71.421875 C 445.101562 70.507812 445.597656 69.632812 446.074219 68.738281 C 447.265625 66.476562 449.289062 66.8125 450.660156 68.125 C 451.515625 68.957031 452.089844 69.949219 452.527344 71.0625 C 454.074219 74.914062 455.902344 78.644531 457.507812 82.457031 C 458.742188 85.375 459.832031 88.355469 460.984375 91.3125 C 461.121094 91.6875 461.300781 91.867188 461.757812 91.925781 C 463.40625 92.125 465.054688 92.421875 466.703125 92.660156 C 467.613281 92.78125 468.546875 92.839844 469.460938 92.898438 C 471.109375 92.980469 472.757812 93.019531 474.402344 93.117188 C 476.210938 93.238281 478.015625 93.4375 479.824219 93.574219 C 480.4375 93.613281 481.054688 93.734375 481.6875 93.652344 C 482.484375 93.554688 483.21875 93.871094 483.972656 94.03125 C 485.324219 94.308594 486.691406 94.566406 488.023438 95.003906 C 488.777344 95.261719 489.390625 95.699219 489.769531 96.453125 C 490.246094 97.367188 490.167969 98.261719 489.472656 99.035156 C 488.617188 99.988281 487.605469 100.761719 486.554688 101.476562 C 482.703125 104.117188 478.453125 106.0625 474.382812 108.34375 C 472.933594 109.160156 471.484375 110.011719 470.035156 110.824219 C 469.71875 111.003906 469.621094 111.164062 469.757812 111.519531 C 470.789062 114.121094 471.167969 116.882812 471.523438 119.621094 C 471.960938 123.113281 472.398438 126.628906 472.777344 130.140625 C 473.035156 132.40625 473.3125 134.667969 473.171875 136.953125 C 473.113281 137.964844 473.273438 138.957031 473.390625 139.949219 C 473.550781 141.257812 473.152344 142.210938 472.21875 142.648438 C 471.722656 142.867188 471.226562 142.847656 470.710938 142.726562 C 469.261719 142.410156 468.070312 141.675781 466.917969 140.761719 C 465.488281 139.632812 464.339844 138.203125 462.96875 137.011719 C 459.515625 133.953125 456.179688 130.757812 452.945312 127.460938 C 452.726562 127.242188 452.527344 127.183594 452.25 127.304688 C 451.632812 127.582031 451.019531 127.839844 450.421875 128.195312 C 448.636719 129.269531 446.910156 130.421875 445.042969 131.332031 C 442.363281 132.664062 439.859375 134.3125 437.359375 135.957031 C 434.382812 137.902344 431.34375 139.75 428.207031 141.417969 C 427.453125 141.816406 426.679688 142.191406 425.867188 142.488281 C 424.238281 143.105469 422.949219 142.332031 422.789062 140.605469 C 422.769531 139.75 422.828125 138.917969 422.6875 138.203125 Z M 422.6875 138.203125 " fill-opacity="1" fill-rule="nonzero"/></g></svg>