<svg xmlns="http://www.w3.org/2000/svg" xmlns:xlink="http://www.w3.org/1999/xlink" width="1080" zoomAndPan="magnify" viewBox="0 0 810 809.999993" height="1080" preserveAspectRatio="xMidYMid meet" version="1.0"><defs><clipPath id="c853b17613"><path d="M 170 435 L 424 435 L 424 702.574219 L 170 702.574219 Z M 170 435 " clip-rule="nonzero"/></clipPath></defs><path fill="#ff5e41" d="M 355.917969 380.269531 C 357 380.589844 358.113281 379.933594 358.367188 378.835938 C 363.035156 358.710938 399.441406 193.292969 344.207031 151.789062 C 285.167969 107.421875 261.609375 193.53125 266.269531 228.742188 C 266.492188 230.410156 264.65625 231.546875 263.253906 230.617188 C 250.625 222.246094 222.675781 206.144531 199.84375 210.207031 C 185.074219 211.980469 172.121094 221.59375 166.285156 246.292969 C 149.539062 317.179688 334.683594 374.003906 355.917969 380.269531 Z M 355.917969 380.269531 " fill-opacity="1" fill-rule="nonzero"/><path fill="#ff5e41" d="M 557.847656 292.542969 C 557.847656 292.542969 571.480469 204.378906 506.039062 202.5625 C 446.050781 200.894531 470.835938 416.097656 477.480469 449.871094 C 477.941406 452.207031 480.492188 453.457031 482.628906 452.402344 C 507.28125 440.191406 640.601562 371.382812 658.738281 307.085938 C 678.734375 236.191406 585.113281 268.003906 557.847656 292.542969 Z M 557.847656 292.542969 " fill-opacity="1" fill-rule="nonzero"/><g clip-path="url(#c853b17613)"><path fill="#ff5e41" d="M 307 534.035156 C 307.003906 534.472656 306.484375 534.679688 306.195312 534.351562 C 297.675781 524.621094 225.273438 445.046875 179.703125 496.90625 C 131.292969 551.988281 280.84375 674.472656 368.058594 702.496094 C 368.292969 702.570312 368.53125 702.46875 368.628906 702.242188 C 372.769531 692.582031 453.625 501.933594 411.683594 451.011719 C 369.042969 399.238281 306.675781 487.472656 307 534.035156 Z M 307 534.035156 " fill-opacity="1" fill-rule="nonzero"/></g></svg>