<svg xmlns="http://www.w3.org/2000/svg" xmlns:xlink="http://www.w3.org/1999/xlink" width="1080" zoomAndPan="magnify" viewBox="0 0 810 809.999993" height="1080" preserveAspectRatio="xMidYMid meet" version="1.0"><defs><clipPath id="bd726d872d"><path d="M 186 303 L 527 303 L 527 671 L 186 671 Z M 186 303 " clip-rule="nonzero"/></clipPath><clipPath id="d7f703259f"><path d="M 0.00390625 403.058594 L 456.085938 -53.023438 L 806.105469 296.992188 L 350.019531 753.078125 Z M 0.00390625 403.058594 " clip-rule="nonzero"/></clipPath><clipPath id="4db93e4d84"><path d="M 0.00390625 403.058594 L 456.085938 -53.023438 L 806.105469 296.992188 L 350.019531 753.078125 Z M 0.00390625 403.058594 " clip-rule="nonzero"/></clipPath><clipPath id="a23a7d193d"><path d="M 0.00390625 403.058594 L 456.085938 -53.023438 L 806.105469 296.992188 L 350.019531 753.078125 Z M 0.00390625 403.058594 " clip-rule="nonzero"/></clipPath><clipPath id="ceb66d926b"><path d="M 432 85 L 669 85 L 669 342 L 432 342 Z M 432 85 " clip-rule="nonzero"/></clipPath><clipPath id="01f0b78a79"><path d="M 0.00390625 403.058594 L 456.085938 -53.023438 L 806.105469 296.992188 L 350.019531 753.078125 Z M 0.00390625 403.058594 " clip-rule="nonzero"/></clipPath><clipPath id="5a4e5ea407"><path d="M 0.00390625 403.058594 L 456.085938 -53.023438 L 806.105469 296.992188 L 350.019531 753.078125 Z M 0.00390625 403.058594 " clip-rule="nonzero"/></clipPath><clipPath id="6f7177f061"><path d="M 0.00390625 403.058594 L 456.085938 -53.023438 L 806.105469 296.992188 L 350.019531 753.078125 Z M 0.00390625 403.058594 " clip-rule="nonzero"/></clipPath><clipPath id="72ba8d232a"><path d="M 242 117 L 371 117 L 371 245 L 242 245 Z M 242 117 " clip-rule="nonzero"/></clipPath><clipPath id="906ea8686a"><path d="M 0.00390625 403.058594 L 456.085938 -53.023438 L 806.105469 296.992188 L 350.019531 753.078125 Z M 0.00390625 403.058594 " clip-rule="nonzero"/></clipPath><clipPath id="42872285ad"><path d="M 0.00390625 403.058594 L 456.085938 -53.023438 L 806.105469 296.992188 L 350.019531 753.078125 Z M 0.00390625 403.058594 " clip-rule="nonzero"/></clipPath><clipPath id="8a3fb4b44a"><path d="M 0.00390625 403.058594 L 456.085938 -53.023438 L 806.105469 296.992188 L 350.019531 753.078125 Z M 0.00390625 403.058594 " clip-rule="nonzero"/></clipPath></defs><g clip-path="url(#bd726d872d)"><g clip-path="url(#d7f703259f)"><g clip-path="url(#4db93e4d84)"><g clip-path="url(#a23a7d193d)"><path fill="#009656" d="M 523.359375 429.394531 C 531.546875 452.042969 522.296875 481.070312 504.21875 497.445312 C 520.914062 515.203125 528.246094 544.441406 518.253906 566.347656 C 502.726562 600.371094 453.390625 613.558594 417.558594 581.128906 C 400.230469 565.5 384.8125 546.042969 373.011719 529.136719 C 380.132812 547.53125 386.832031 569.113281 390.234375 590.378906 C 397.992188 639.820312 358.652344 675.335938 320.269531 669.488281 C 295.707031 665.769531 274.441406 642.804688 268.382812 618.242188 C 243.820312 624.941406 213.410156 616.4375 198.3125 596.445312 C 174.921875 565.613281 187.363281 514.894531 234.574219 498.09375 C 246.800781 493.734375 259.667969 490.4375 272.320312 487.992188 C 261.261719 484.800781 250.3125 481.078125 239.785156 476.507812 C 191.726562 455.667969 182.15625 401.867188 208.847656 371.140625 C 226.070312 351.363281 258.394531 344.554688 283.59375 353.167969 C 291.570312 327.96875 315.386719 305.425781 341.546875 303.296875 C 382.054688 300 420.757812 339.765625 409.058594 391.015625 C 405.761719 405.371094 400.976562 419.9375 395.554688 433.441406 C 404.488281 424.082031 414.480469 414.9375 424.796875 406.964844 C 463.179688 377.722656 510.601562 394.308594 523.359375 429.394531 Z M 523.359375 429.394531 " fill-opacity="1" fill-rule="nonzero"/></g></g></g></g><g clip-path="url(#ceb66d926b)"><g clip-path="url(#01f0b78a79)"><g clip-path="url(#5a4e5ea407)"><g clip-path="url(#6f7177f061)"><path fill="#4dab58" d="M 666.804688 173.25 C 672.4375 189.09375 666.058594 209.292969 653.40625 220.671875 C 664.996094 233.113281 670.097656 253.527344 663.1875 268.730469 C 652.445312 292.441406 617.996094 301.589844 592.902344 279.046875 C 580.78125 268.203125 570.042969 254.488281 561.75 242.792969 C 566.746094 255.65625 571.425781 270.753906 573.765625 285.429688 C 579.1875 319.984375 551.753906 344.652344 524.957031 340.613281 C 507.734375 338.0625 492.953125 322.007812 488.808594 304.886719 C 471.6875 309.460938 450.53125 303.613281 440.003906 289.683594 C 423.738281 268.101562 432.351562 232.695312 465.207031 221.101562 C 473.710938 218.125 482.75 215.679688 491.574219 214.085938 C 483.921875 211.957031 476.265625 209.195312 468.929688 206.109375 C 435.328125 191.652344 428.738281 154.011719 447.347656 132.640625 C 459.253906 118.816406 482.007812 114.136719 499.445312 120.089844 C 505.082031 102.546875 521.671875 86.808594 539.851562 85.214844 C 568.136719 82.875 595.140625 110.730469 586.953125 146.351562 C 584.613281 156.347656 581.316406 166.449219 577.488281 176.015625 C 583.761719 169.53125 590.675781 163.042969 597.90625 157.515625 C 624.804688 137.207031 657.980469 148.902344 666.804688 173.25 Z M 666.804688 173.25 " fill-opacity="1" fill-rule="nonzero"/></g></g></g></g><g clip-path="url(#72ba8d232a)"><g clip-path="url(#906ea8686a)"><g clip-path="url(#42872285ad)"><g clip-path="url(#8a3fb4b44a)"><path fill="#00a672" d="M 369.085938 207.285156 C 365.898438 215.363281 356.539062 220.894531 347.820312 221.105469 C 348.035156 229.824219 343.140625 239.394531 335.273438 243.011719 C 323.046875 248.433594 306.671875 240.355469 304.757812 223.128906 C 303.800781 214.730469 304.332031 205.902344 305.078125 198.566406 C 302.632812 205.265625 299.335938 212.601562 295.1875 219.089844 C 285.621094 234.1875 266.585938 234.507812 257.65625 223.875 C 251.914062 217.070312 251.59375 205.90625 255.847656 197.824219 C 247.769531 193.785156 241.496094 184.320312 242.132812 175.390625 C 243.195312 161.566406 258.507812 150.933594 275.09375 157.527344 C 279.347656 159.226562 283.707031 161.460938 287.640625 163.691406 C 285.410156 160.183594 283.390625 156.675781 281.582031 152.953125 C 273.5 135.941406 283.816406 119.246094 298.167969 117.226562 C 307.527344 115.949219 317.839844 121.796875 322.519531 130.09375 C 330.597656 125.199219 342.402344 124.882812 349.84375 130.410156 C 361.539062 139.128906 362.496094 159.011719 347.289062 169.964844 C 342.929688 173.046875 338.253906 175.8125 333.574219 178.152344 C 338.253906 177.726562 343.039062 177.621094 347.714844 178.042969 C 365.261719 179.214844 374.085938 194.84375 369.085938 207.285156 Z M 369.085938 207.285156 " fill-opacity="0.8" fill-rule="nonzero"/></g></g></g></g></svg>