<svg xmlns="http://www.w3.org/2000/svg" xmlns:xlink="http://www.w3.org/1999/xlink" width="1080" zoomAndPan="magnify" viewBox="0 0 810 809.999993" height="1080" preserveAspectRatio="xMidYMid meet" version="1.0"><defs><clipPath id="ef5c99858c"><path d="M 455 200.167969 L 476 200.167969 L 476 222 L 455 222 Z M 455 200.167969 " clip-rule="nonzero"/></clipPath><clipPath id="a8e494719e"><path d="M 455.257812 210.964844 C 455.257812 209.597656 455.519531 208.28125 456.042969 207.019531 C 456.566406 205.757812 457.308594 204.644531 458.277344 203.675781 C 459.242188 202.710938 460.355469 201.964844 461.621094 201.441406 C 462.882812 200.921875 464.195312 200.660156 465.5625 200.660156 C 466.929688 200.660156 468.246094 200.921875 469.507812 201.441406 C 470.769531 201.964844 471.882812 202.710938 472.851562 203.675781 C 473.816406 204.644531 474.5625 205.757812 475.082031 207.019531 C 475.605469 208.28125 475.867188 209.597656 475.867188 210.964844 C 475.867188 212.332031 475.605469 213.644531 475.082031 214.90625 C 474.5625 216.167969 473.816406 217.285156 472.851562 218.25 C 471.882812 219.21875 470.769531 219.960938 469.507812 220.484375 C 468.246094 221.007812 466.929688 221.269531 465.5625 221.269531 C 464.195312 221.269531 462.882812 221.007812 461.621094 220.484375 C 460.355469 219.960938 459.242188 219.21875 458.277344 218.25 C 457.308594 217.285156 456.566406 216.167969 456.042969 214.90625 C 455.519531 213.644531 455.257812 212.332031 455.257812 210.964844 Z M 455.257812 210.964844 " clip-rule="nonzero"/></clipPath><clipPath id="ecf277f8b6"><path d="M 460 205 L 471 205 L 471 217 L 460 217 Z M 460 205 " clip-rule="nonzero"/></clipPath><clipPath id="429c08e5a2"><path d="M 455.257812 210.964844 C 455.257812 209.597656 455.519531 208.28125 456.042969 207.019531 C 456.566406 205.757812 457.308594 204.644531 458.277344 203.675781 C 459.242188 202.710938 460.355469 201.964844 461.621094 201.441406 C 462.882812 200.921875 464.195312 200.660156 465.5625 200.660156 C 466.929688 200.660156 468.246094 200.921875 469.507812 201.441406 C 470.769531 201.964844 471.882812 202.710938 472.851562 203.675781 C 473.816406 204.644531 474.5625 205.757812 475.082031 207.019531 C 475.605469 208.28125 475.867188 209.597656 475.867188 210.964844 C 475.867188 212.332031 475.605469 213.644531 475.082031 214.90625 C 474.5625 216.167969 473.816406 217.285156 472.851562 218.25 C 471.882812 219.21875 470.769531 219.960938 469.507812 220.484375 C 468.246094 221.007812 466.929688 221.269531 465.5625 221.269531 C 464.195312 221.269531 462.882812 221.007812 461.621094 220.484375 C 460.355469 219.960938 459.242188 219.21875 458.277344 218.25 C 457.308594 217.285156 456.566406 216.167969 456.042969 214.90625 C 455.519531 213.644531 455.257812 212.332031 455.257812 210.964844 Z M 455.257812 210.964844 " clip-rule="nonzero"/></clipPath><clipPath id="f1f00668dc"><path d="M 206 149 L 395 149 L 395 337 L 206 337 Z M 206 149 " clip-rule="nonzero"/></clipPath><clipPath id="24a3b1c569"><path d="M 211.125 32.050781 L 511.453125 153.625 L 389.878906 453.949219 L 89.550781 332.375 Z M 211.125 32.050781 " clip-rule="nonzero"/></clipPath><clipPath id="c1a9adae01"><path d="M 211.125 32.050781 L 511.453125 153.625 L 389.878906 453.949219 L 89.550781 332.375 Z M 211.125 32.050781 " clip-rule="nonzero"/></clipPath><clipPath id="d18867b7e6"><path d="M 294 219 L 300 219 L 300 231 L 294 231 Z M 294 219 " clip-rule="nonzero"/></clipPath><clipPath id="5b286afaec"><path d="M 211.125 32.050781 L 511.453125 153.625 L 389.878906 453.949219 L 89.550781 332.375 Z M 211.125 32.050781 " clip-rule="nonzero"/></clipPath><clipPath id="4b52a5c68a"><path d="M 211.125 32.050781 L 511.453125 153.625 L 389.878906 453.949219 L 89.550781 332.375 Z M 211.125 32.050781 " clip-rule="nonzero"/></clipPath><clipPath id="df89658743"><path d="M 283 228 L 292 228 L 292 238 L 283 238 Z M 283 228 " clip-rule="nonzero"/></clipPath><clipPath id="771d7aa769"><path d="M 211.125 32.050781 L 511.453125 153.625 L 389.878906 453.949219 L 89.550781 332.375 Z M 211.125 32.050781 " clip-rule="nonzero"/></clipPath><clipPath id="6287ae3c91"><path d="M 211.125 32.050781 L 511.453125 153.625 L 389.878906 453.949219 L 89.550781 332.375 Z M 211.125 32.050781 " clip-rule="nonzero"/></clipPath><clipPath id="2a8e392a48"><path d="M 282 241 L 291 241 L 291 251 L 282 251 Z M 282 241 " clip-rule="nonzero"/></clipPath><clipPath id="380cffa2f6"><path d="M 211.125 32.050781 L 511.453125 153.625 L 389.878906 453.949219 L 89.550781 332.375 Z M 211.125 32.050781 " clip-rule="nonzero"/></clipPath><clipPath id="55abf09ad6"><path d="M 211.125 32.050781 L 511.453125 153.625 L 389.878906 453.949219 L 89.550781 332.375 Z M 211.125 32.050781 " clip-rule="nonzero"/></clipPath><clipPath id="df2c79d4c0"><path d="M 295 240 L 307 240 L 307 246 L 295 246 Z M 295 240 " clip-rule="nonzero"/></clipPath><clipPath id="1a45fe9bbf"><path d="M 211.125 32.050781 L 511.453125 153.625 L 389.878906 453.949219 L 89.550781 332.375 Z M 211.125 32.050781 " clip-rule="nonzero"/></clipPath><clipPath id="2bb2a2c8a7"><path d="M 211.125 32.050781 L 511.453125 153.625 L 389.878906 453.949219 L 89.550781 332.375 Z M 211.125 32.050781 " clip-rule="nonzero"/></clipPath><clipPath id="5f1e4e75d1"><path d="M 301 232 L 312 232 L 312 237 L 301 237 Z M 301 232 " clip-rule="nonzero"/></clipPath><clipPath id="a201423b7b"><path d="M 211.125 32.050781 L 511.453125 153.625 L 389.878906 453.949219 L 89.550781 332.375 Z M 211.125 32.050781 " clip-rule="nonzero"/></clipPath><clipPath id="a2e8b669b4"><path d="M 211.125 32.050781 L 511.453125 153.625 L 389.878906 453.949219 L 89.550781 332.375 Z M 211.125 32.050781 " clip-rule="nonzero"/></clipPath><clipPath id="68e923fdca"><path d="M 313 239 L 323 239 L 323 246 L 313 246 Z M 313 239 " clip-rule="nonzero"/></clipPath><clipPath id="fc01ba9c51"><path d="M 211.125 32.050781 L 511.453125 153.625 L 389.878906 453.949219 L 89.550781 332.375 Z M 211.125 32.050781 " clip-rule="nonzero"/></clipPath><clipPath id="67db10cf0f"><path d="M 211.125 32.050781 L 511.453125 153.625 L 389.878906 453.949219 L 89.550781 332.375 Z M 211.125 32.050781 " clip-rule="nonzero"/></clipPath><clipPath id="bbed1cb7f0"><path d="M 300 248 L 310 248 L 310 254 L 300 254 Z M 300 248 " clip-rule="nonzero"/></clipPath><clipPath id="a57fb525ee"><path d="M 211.125 32.050781 L 511.453125 153.625 L 389.878906 453.949219 L 89.550781 332.375 Z M 211.125 32.050781 " clip-rule="nonzero"/></clipPath><clipPath id="f4b9a65559"><path d="M 211.125 32.050781 L 511.453125 153.625 L 389.878906 453.949219 L 89.550781 332.375 Z M 211.125 32.050781 " clip-rule="nonzero"/></clipPath><clipPath id="2e064e1e7f"><path d="M 303 222 L 314 222 L 314 228 L 303 228 Z M 303 222 " clip-rule="nonzero"/></clipPath><clipPath id="1da4e25ee9"><path d="M 211.125 32.050781 L 511.453125 153.625 L 389.878906 453.949219 L 89.550781 332.375 Z M 211.125 32.050781 " clip-rule="nonzero"/></clipPath><clipPath id="4c8226350d"><path d="M 211.125 32.050781 L 511.453125 153.625 L 389.878906 453.949219 L 89.550781 332.375 Z M 211.125 32.050781 " clip-rule="nonzero"/></clipPath></defs><path fill="#feab82" d="M 244.371094 482.320312 C 210.804688 500.683594 95.285156 556.054688 108.972656 440.980469 C 123.378906 319.957031 231.195312 410.75 252.582031 430.085938 C 250.992188 431.804688 249.542969 433.632812 248.226562 435.566406 C 246.910156 437.5 245.742188 439.523438 244.722656 441.628906 C 243.703125 443.734375 242.847656 445.90625 242.148438 448.136719 C 241.449219 450.371094 240.917969 452.640625 240.554688 454.953125 C 240.191406 457.265625 240 459.589844 239.980469 461.929688 C 239.960938 464.269531 240.113281 466.597656 240.433594 468.914062 C 240.757812 471.230469 241.25 473.511719 241.910156 475.753906 C 242.570312 478 243.390625 480.183594 244.371094 482.308594 Z M 244.371094 482.320312 " fill-opacity="1" fill-rule="nonzero"/><path fill="#feab82" d="M 207.304688 623.222656 C 103.710938 567.246094 215.929688 503.144531 247.0625 487.324219 C 248.296875 489.316406 249.667969 491.203125 251.175781 492.992188 C 252.6875 494.78125 254.320312 496.449219 256.078125 498 C 257.835938 499.546875 259.695312 500.960938 261.660156 502.234375 C 263.625 503.507812 265.671875 504.632812 267.804688 505.605469 C 269.933594 506.578125 272.125 507.390625 274.375 508.042969 C 276.625 508.691406 278.910156 509.175781 281.230469 509.488281 C 283.550781 509.804688 285.882812 509.945312 288.226562 509.917969 C 290.570312 509.890625 292.894531 509.6875 295.207031 509.316406 C 299.660156 542.355469 312.546875 680.105469 207.304688 623.222656 Z M 207.304688 623.222656 " fill-opacity="1" fill-rule="nonzero"/><path fill="#feab82" d="M 306.886719 418.804688 C 304.800781 417.882812 302.65625 417.113281 300.457031 416.5 C 298.257812 415.882812 296.023438 415.429688 293.761719 415.136719 C 291.496094 414.84375 289.222656 414.710938 286.9375 414.742188 C 284.652344 414.777344 282.382812 414.972656 280.128906 415.328125 C 277.875 415.6875 275.65625 416.207031 273.472656 416.882812 C 271.292969 417.558594 269.171875 418.390625 267.109375 419.371094 C 265.046875 420.351562 263.066406 421.476562 261.167969 422.742188 C 259.265625 424.007812 257.46875 425.402344 255.769531 426.925781 C 234.15625 403.027344 143.976562 295.367188 263.699219 282.921875 C 382.511719 270.570312 322.714844 390.285156 306.886719 418.804688 Z M 306.886719 418.804688 " fill-opacity="1" fill-rule="nonzero"/><path fill="#feab82" d="M 416.707031 592.882812 C 327.363281 673.257812 305.476562 539.144531 301.683594 507.835938 C 303.75 507.195312 305.761719 506.421875 307.722656 505.507812 C 309.679688 504.597656 311.570312 503.554688 313.386719 502.386719 C 315.207031 501.21875 316.9375 499.933594 318.578125 498.527344 C 320.222656 497.125 321.761719 495.617188 323.199219 494.003906 C 324.636719 492.390625 325.960938 490.6875 327.164062 488.894531 C 328.371094 487.101562 329.449219 485.234375 330.402344 483.292969 C 331.355469 481.355469 332.171875 479.359375 332.851562 477.308594 C 333.53125 475.257812 334.070312 473.171875 334.464844 471.046875 C 356.175781 475.234375 510.425781 508.53125 416.707031 592.882812 Z M 416.707031 592.882812 " fill-opacity="1" fill-rule="nonzero"/><path fill="#feab82" d="M 335.105469 466.140625 C 335.175781 465.253906 335.21875 464.359375 335.238281 463.457031 C 335.289062 461.355469 335.203125 459.261719 334.976562 457.171875 C 334.746094 455.082031 334.382812 453.015625 333.882812 450.976562 C 333.378906 448.933594 332.746094 446.933594 331.980469 444.976562 C 331.214844 443.019531 330.320312 441.121094 329.300781 439.285156 C 328.28125 437.445312 327.148438 435.679688 325.894531 433.992188 C 324.640625 432.304688 323.28125 430.707031 321.816406 429.199219 C 320.351562 427.691406 318.792969 426.285156 317.140625 424.984375 C 315.492188 423.679688 313.761719 422.496094 311.949219 421.421875 C 326.273438 397.015625 404.960938 272.167969 452.957031 385.089844 C 499.945312 495.609375 366.03125 472.746094 335.105469 466.140625 Z M 335.105469 466.140625 " fill-opacity="1" fill-rule="nonzero"/><path fill="#ff5e41" d="M 335.238281 463.457031 C 335.238281 464.359375 335.175781 465.253906 335.105469 466.140625 C 334.96875 467.785156 334.753906 469.421875 334.449219 471.046875 C 334.054688 473.171875 333.515625 475.257812 332.835938 477.308594 C 332.15625 479.359375 331.34375 481.351562 330.390625 483.292969 C 329.4375 485.230469 328.359375 487.097656 327.15625 488.890625 C 325.949219 490.683594 324.628906 492.386719 323.191406 494 C 321.753906 495.613281 320.214844 497.121094 318.574219 498.523438 C 316.929688 499.929688 315.203125 501.214844 313.382812 502.386719 C 311.566406 503.554688 309.679688 504.59375 307.71875 505.507812 C 305.761719 506.417969 303.75 507.195312 301.683594 507.835938 C 299.566406 508.492188 297.414062 508.996094 295.222656 509.339844 C 292.910156 509.710938 290.582031 509.910156 288.242188 509.9375 C 285.898438 509.96875 283.566406 509.824219 281.246094 509.511719 C 278.925781 509.195312 276.636719 508.714844 274.386719 508.0625 C 272.136719 507.414062 269.949219 506.601562 267.816406 505.628906 C 265.6875 504.652344 263.640625 503.53125 261.675781 502.253906 C 259.710938 500.980469 257.847656 499.570312 256.09375 498.019531 C 254.335938 496.472656 252.703125 494.804688 251.191406 493.015625 C 249.679688 491.226562 248.308594 489.335938 247.078125 487.34375 C 246.078125 485.734375 245.179688 484.066406 244.386719 482.34375 C 243.40625 480.21875 242.582031 478.035156 241.921875 475.792969 C 241.265625 473.546875 240.773438 471.265625 240.449219 468.949219 C 240.125 466.632812 239.972656 464.304688 239.996094 461.964844 C 240.015625 459.625 240.207031 457.300781 240.570312 454.988281 C 240.933594 452.675781 241.464844 450.40625 242.160156 448.171875 C 242.859375 445.941406 243.71875 443.769531 244.738281 441.664062 C 245.753906 439.558594 246.921875 437.535156 248.238281 435.601562 C 249.554688 433.667969 251.007812 431.839844 252.59375 430.121094 C 253.617188 429.011719 254.6875 427.949219 255.8125 426.949219 C 257.511719 425.425781 259.308594 424.027344 261.210938 422.761719 C 263.109375 421.496094 265.089844 420.375 267.152344 419.390625 C 269.214844 418.410156 271.335938 417.582031 273.515625 416.902344 C 275.699219 416.226562 277.917969 415.710938 280.171875 415.351562 C 282.425781 414.992188 284.695312 414.796875 286.980469 414.765625 C 289.261719 414.730469 291.539062 414.863281 293.800781 415.15625 C 296.066406 415.453125 298.300781 415.90625 300.5 416.519531 C 302.699219 417.132812 304.84375 417.902344 306.929688 418.824219 C 308.671875 419.59375 310.359375 420.46875 311.992188 421.445312 C 313.800781 422.515625 315.527344 423.703125 317.175781 425.007812 C 318.824219 426.308594 320.382812 427.714844 321.84375 429.222656 C 323.304688 430.730469 324.664062 432.328125 325.914062 434.015625 C 327.164062 435.703125 328.296875 437.464844 329.316406 439.300781 C 330.332031 441.140625 331.222656 443.039062 331.988281 444.992188 C 332.753906 446.949219 333.386719 448.945312 333.886719 450.984375 C 334.386719 453.027344 334.75 455.089844 334.976562 457.175781 C 335.203125 459.265625 335.289062 461.359375 335.238281 463.457031 Z M 335.238281 463.457031 " fill-opacity="1" fill-rule="nonzero"/><path fill="#95c458" d="M 575.292969 378.644531 C 733.582031 467.234375 615.65625 560.164062 566.375 385.683594 C 615.65625 560.28125 466.523438 542.679688 555.109375 384.394531 C 466.523438 542.679688 373.589844 424.757812 548.070312 375.476562 C 373.472656 424.757812 391.074219 275.621094 549.363281 364.210938 C 391.074219 275.621094 508.996094 182.691406 558.277344 357.171875 C 508.996094 182.574219 658.132812 200.175781 569.542969 358.460938 C 658.132812 200.175781 751.0625 318.097656 576.582031 367.378906 C 751.179688 318.097656 733.582031 467.234375 575.292969 378.644531 Z M 575.292969 378.644531 " fill-opacity="1" fill-rule="nonzero"/><path fill="#126c3e" d="M 584.445312 371.488281 C 584.445312 372.210938 584.410156 372.929688 584.339844 373.648438 C 584.269531 374.367188 584.164062 375.082031 584.023438 375.789062 C 583.878906 376.5 583.707031 377.199219 583.496094 377.890625 C 583.285156 378.582031 583.042969 379.261719 582.765625 379.929688 C 582.488281 380.597656 582.179688 381.25 581.839844 381.886719 C 581.5 382.523438 581.128906 383.140625 580.726562 383.742188 C 580.328125 384.34375 579.894531 384.921875 579.4375 385.480469 C 578.980469 386.039062 578.496094 386.574219 577.984375 387.085938 C 577.472656 387.597656 576.9375 388.082031 576.378906 388.539062 C 575.820312 388.996094 575.242188 389.425781 574.640625 389.828125 C 574.039062 390.230469 573.421875 390.601562 572.785156 390.941406 C 572.148438 391.28125 571.496094 391.589844 570.828125 391.867188 C 570.160156 392.144531 569.480469 392.386719 568.789062 392.597656 C 568.097656 392.804688 567.398438 392.980469 566.691406 393.121094 C 565.980469 393.261719 565.265625 393.367188 564.546875 393.441406 C 563.828125 393.511719 563.109375 393.546875 562.386719 393.546875 C 561.664062 393.546875 560.941406 393.511719 560.222656 393.441406 C 559.503906 393.367188 558.792969 393.261719 558.082031 393.121094 C 557.375 392.980469 556.675781 392.804688 555.984375 392.597656 C 555.292969 392.386719 554.613281 392.144531 553.945312 391.867188 C 553.277344 391.589844 552.625 391.28125 551.988281 390.941406 C 551.351562 390.601562 550.730469 390.230469 550.128906 389.828125 C 549.53125 389.425781 548.949219 388.996094 548.390625 388.539062 C 547.832031 388.082031 547.296875 387.597656 546.789062 387.085938 C 546.277344 386.574219 545.792969 386.039062 545.335938 385.480469 C 544.875 384.921875 544.445312 384.34375 544.042969 383.742188 C 543.644531 383.140625 543.273438 382.523438 542.929688 381.886719 C 542.589844 381.25 542.28125 380.597656 542.007812 379.929688 C 541.730469 379.261719 541.488281 378.582031 541.277344 377.890625 C 541.066406 377.199219 540.890625 376.5 540.75 375.789062 C 540.609375 375.082031 540.503906 374.367188 540.433594 373.648438 C 540.363281 372.929688 540.328125 372.210938 540.328125 371.488281 C 540.328125 370.765625 540.363281 370.042969 540.433594 369.324219 C 540.503906 368.605469 540.609375 367.890625 540.75 367.183594 C 540.890625 366.472656 541.066406 365.773438 541.277344 365.082031 C 541.488281 364.390625 541.730469 363.710938 542.007812 363.042969 C 542.28125 362.378906 542.589844 361.726562 542.929688 361.089844 C 543.273438 360.449219 543.644531 359.832031 544.042969 359.230469 C 544.445312 358.628906 544.875 358.050781 545.335938 357.492188 C 545.792969 356.933594 546.277344 356.398438 546.789062 355.886719 C 547.296875 355.378906 547.832031 354.894531 548.390625 354.433594 C 548.949219 353.976562 549.53125 353.546875 550.128906 353.144531 C 550.730469 352.742188 551.351562 352.371094 551.988281 352.03125 C 552.625 351.691406 553.277344 351.382812 553.945312 351.105469 C 554.613281 350.828125 555.292969 350.585938 555.984375 350.378906 C 556.675781 350.167969 557.375 349.992188 558.082031 349.851562 C 558.792969 349.710938 559.503906 349.605469 560.222656 349.535156 C 560.941406 349.460938 561.664062 349.425781 562.386719 349.425781 C 563.109375 349.425781 563.828125 349.460938 564.546875 349.535156 C 565.265625 349.605469 565.980469 349.710938 566.691406 349.851562 C 567.398438 349.992188 568.097656 350.167969 568.789062 350.378906 C 569.480469 350.585938 570.160156 350.828125 570.828125 351.105469 C 571.496094 351.382812 572.148438 351.691406 572.785156 352.03125 C 573.421875 352.371094 574.039062 352.742188 574.640625 353.144531 C 575.242188 353.546875 575.820312 353.976562 576.378906 354.433594 C 576.9375 354.894531 577.472656 355.378906 577.984375 355.886719 C 578.496094 356.398438 578.980469 356.933594 579.4375 357.492188 C 579.894531 358.050781 580.328125 358.628906 580.726562 359.230469 C 581.128906 359.832031 581.5 360.449219 581.839844 361.085938 C 582.179688 361.726562 582.488281 362.378906 582.765625 363.042969 C 583.042969 363.710938 583.285156 364.390625 583.496094 365.082031 C 583.707031 365.773438 583.878906 366.472656 584.023438 367.183594 C 584.164062 367.890625 584.269531 368.605469 584.339844 369.324219 C 584.410156 370.042969 584.445312 370.765625 584.445312 371.488281 Z M 584.445312 371.488281 " fill-opacity="1" fill-rule="nonzero"/><path fill="#ffde59" d="M 476.113281 221.390625 C 600.144531 330.332031 402.996094 371.429688 456.609375 225.441406 C 402.996094 371.429688 303.011719 196.609375 446.671875 208.140625 C 302.886719 196.609375 438.328125 47.429688 460.042969 193.421875 C 438.207031 47.429688 621.980469 130.117188 478.199219 201.640625 C 622.105469 130.117188 600.265625 330.332031 476.113281 221.390625 Z M 476.113281 221.390625 " fill-opacity="1" fill-rule="nonzero"/><g clip-path="url(#ef5c99858c)"><g clip-path="url(#a8e494719e)"><path fill="#fffbce" d="M 455.257812 200.660156 L 475.867188 200.660156 L 475.867188 221.269531 L 455.257812 221.269531 Z M 455.257812 200.660156 " fill-opacity="1" fill-rule="nonzero"/><path fill="#fffbce" d="M 475.867188 210.964844 C 475.867188 211.640625 475.800781 212.308594 475.671875 212.972656 C 475.539062 213.636719 475.34375 214.28125 475.082031 214.90625 C 474.824219 215.53125 474.507812 216.125 474.132812 216.6875 C 473.753906 217.25 473.328125 217.773438 472.851562 218.25 C 472.371094 218.730469 471.851562 219.15625 471.289062 219.53125 C 470.726562 219.90625 470.132812 220.226562 469.507812 220.484375 C 468.882812 220.742188 468.238281 220.9375 467.574219 221.070312 C 466.910156 221.203125 466.238281 221.269531 465.5625 221.269531 C 464.886719 221.269531 464.214844 221.203125 463.554688 221.070312 C 462.890625 220.9375 462.246094 220.742188 461.621094 220.484375 C 460.996094 220.226562 460.402344 219.90625 459.839844 219.53125 C 459.273438 219.15625 458.753906 218.730469 458.277344 218.25 C 457.796875 217.773438 457.371094 217.25 456.996094 216.6875 C 456.617188 216.125 456.300781 215.53125 456.042969 214.90625 C 455.785156 214.28125 455.589844 213.636719 455.457031 212.972656 C 455.324219 212.308594 455.257812 211.640625 455.257812 210.964844 C 455.257812 210.285156 455.324219 209.617188 455.457031 208.953125 C 455.589844 208.289062 455.785156 207.644531 456.042969 207.019531 C 456.300781 206.394531 456.617188 205.800781 456.996094 205.238281 C 457.371094 204.675781 457.796875 204.15625 458.277344 203.675781 C 458.753906 203.199219 459.273438 202.769531 459.839844 202.394531 C 460.402344 202.019531 460.996094 201.703125 461.621094 201.441406 C 462.246094 201.183594 462.890625 200.988281 463.554688 200.855469 C 464.214844 200.722656 464.886719 200.660156 465.5625 200.660156 C 466.238281 200.660156 466.910156 200.722656 467.574219 200.855469 C 468.238281 200.988281 468.882812 201.183594 469.507812 201.441406 C 470.132812 201.703125 470.726562 202.019531 471.289062 202.394531 C 471.851562 202.769531 472.371094 203.199219 472.851562 203.675781 C 473.328125 204.15625 473.753906 204.675781 474.132812 205.238281 C 474.507812 205.800781 474.824219 206.394531 475.082031 207.019531 C 475.34375 207.644531 475.539062 208.289062 475.671875 208.953125 C 475.800781 209.617188 475.867188 210.285156 475.867188 210.964844 Z M 475.867188 210.964844 " fill-opacity="1" fill-rule="nonzero"/></g></g><g clip-path="url(#ecf277f8b6)"><g clip-path="url(#429c08e5a2)"><path fill="#fffbce" d="M 470.714844 210.964844 C 470.714844 211.300781 470.683594 211.636719 470.617188 211.96875 C 470.550781 212.300781 470.453125 212.621094 470.324219 212.9375 C 470.195312 213.25 470.035156 213.546875 469.847656 213.828125 C 469.660156 214.109375 469.445312 214.367188 469.207031 214.605469 C 468.96875 214.847656 468.707031 215.058594 468.425781 215.246094 C 468.144531 215.4375 467.847656 215.59375 467.535156 215.722656 C 467.222656 215.855469 466.898438 215.953125 466.570312 216.015625 C 466.238281 216.082031 465.902344 216.117188 465.5625 216.117188 C 465.226562 216.117188 464.890625 216.082031 464.558594 216.015625 C 464.226562 215.953125 463.902344 215.855469 463.589844 215.722656 C 463.277344 215.59375 462.980469 215.4375 462.699219 215.246094 C 462.417969 215.058594 462.160156 214.847656 461.917969 214.605469 C 461.679688 214.367188 461.46875 214.109375 461.277344 213.828125 C 461.089844 213.546875 460.933594 213.25 460.804688 212.9375 C 460.671875 212.621094 460.574219 212.300781 460.507812 211.96875 C 460.445312 211.636719 460.410156 211.300781 460.410156 210.964844 C 460.410156 210.625 460.445312 210.289062 460.507812 209.957031 C 460.574219 209.625 460.671875 209.304688 460.804688 208.992188 C 460.933594 208.679688 461.089844 208.382812 461.277344 208.101562 C 461.46875 207.820312 461.679688 207.558594 461.917969 207.320312 C 462.160156 207.082031 462.417969 206.867188 462.699219 206.679688 C 462.980469 206.492188 463.277344 206.332031 463.589844 206.203125 C 463.902344 206.074219 464.226562 205.976562 464.558594 205.910156 C 464.890625 205.84375 465.226562 205.8125 465.5625 205.8125 C 465.902344 205.8125 466.238281 205.84375 466.570312 205.910156 C 466.898438 205.976562 467.222656 206.074219 467.535156 206.203125 C 467.847656 206.332031 468.144531 206.492188 468.425781 206.679688 C 468.707031 206.867188 468.96875 207.082031 469.207031 207.320312 C 469.445312 207.558594 469.660156 207.820312 469.847656 208.101562 C 470.035156 208.382812 470.195312 208.679688 470.324219 208.992188 C 470.453125 209.304688 470.550781 209.625 470.617188 209.957031 C 470.683594 210.289062 470.714844 210.625 470.714844 210.964844 Z M 470.714844 210.964844 " fill-opacity="1" fill-rule="nonzero"/></g></g><path fill="#ff914d" d="M 458.21875 198.65625 C 458.382812 199.007812 458.527344 199.363281 458.65625 199.71875 C 458.785156 200.078125 458.894531 200.433594 458.984375 200.785156 C 459.074219 201.140625 459.144531 201.480469 459.1875 201.816406 C 459.234375 202.148438 459.261719 202.464844 459.261719 202.765625 C 459.265625 203.066406 459.242188 203.34375 459.199219 203.601562 C 459.15625 203.859375 459.09375 204.089844 459.007812 204.292969 C 458.921875 204.496094 458.816406 204.667969 458.691406 204.808594 C 458.5625 204.953125 458.421875 205.058594 458.261719 205.132812 C 458.101562 205.210938 457.925781 205.25 457.734375 205.253906 C 457.546875 205.257812 457.347656 205.230469 457.136719 205.164062 C 456.925781 205.101562 456.707031 205 456.480469 204.867188 C 456.257812 204.734375 456.03125 204.574219 455.800781 204.378906 C 455.574219 204.183594 455.347656 203.960938 455.121094 203.710938 C 454.894531 203.460938 454.675781 203.1875 454.464844 202.894531 C 454.253906 202.597656 454.050781 202.285156 453.859375 201.957031 C 453.667969 201.628906 453.488281 201.289062 453.328125 200.9375 C 453.164062 200.585938 453.015625 200.230469 452.886719 199.875 C 452.757812 199.515625 452.652344 199.160156 452.5625 198.808594 C 452.472656 198.457031 452.402344 198.113281 452.355469 197.78125 C 452.3125 197.445312 452.285156 197.128906 452.285156 196.828125 C 452.28125 196.527344 452.304688 196.25 452.347656 195.992188 C 452.386719 195.734375 452.453125 195.503906 452.539062 195.300781 C 452.625 195.097656 452.730469 194.925781 452.855469 194.785156 C 452.980469 194.644531 453.125 194.535156 453.285156 194.460938 C 453.445312 194.382812 453.621094 194.34375 453.8125 194.339844 C 454 194.335938 454.199219 194.363281 454.410156 194.429688 C 454.621094 194.496094 454.839844 194.59375 455.0625 194.726562 C 455.289062 194.859375 455.515625 195.023438 455.742188 195.214844 C 455.972656 195.410156 456.199219 195.632812 456.425781 195.882812 C 456.648438 196.132812 456.867188 196.40625 457.082031 196.703125 C 457.292969 196.996094 457.496094 197.308594 457.6875 197.636719 C 457.878906 197.964844 458.054688 198.304688 458.21875 198.65625 Z M 458.21875 198.65625 " fill-opacity="1" fill-rule="nonzero"/><path fill="#ff914d" d="M 450.933594 208.570312 C 451.289062 208.730469 451.628906 208.902344 451.960938 209.089844 C 452.292969 209.277344 452.609375 209.472656 452.90625 209.683594 C 453.203125 209.890625 453.480469 210.105469 453.730469 210.328125 C 453.984375 210.550781 454.210938 210.773438 454.410156 211 C 454.605469 211.226562 454.773438 211.449219 454.910156 211.671875 C 455.042969 211.894531 455.144531 212.113281 455.214844 212.320312 C 455.28125 212.53125 455.3125 212.730469 455.3125 212.921875 C 455.308594 213.109375 455.269531 213.285156 455.199219 213.449219 C 455.125 213.609375 455.019531 213.753906 454.878906 213.882812 C 454.738281 214.007812 454.566406 214.117188 454.367188 214.207031 C 454.164062 214.292969 453.933594 214.363281 453.679688 214.40625 C 453.421875 214.453125 453.144531 214.476562 452.84375 214.480469 C 452.542969 214.484375 452.226562 214.460938 451.890625 214.421875 C 451.558594 214.378906 451.214844 214.316406 450.859375 214.230469 C 450.507812 214.144531 450.148438 214.042969 449.789062 213.917969 C 449.429688 213.792969 449.074219 213.652344 448.722656 213.492188 C 448.367188 213.335938 448.027344 213.160156 447.695312 212.976562 C 447.363281 212.789062 447.046875 212.589844 446.75 212.382812 C 446.453125 212.171875 446.175781 211.957031 445.925781 211.738281 C 445.671875 211.515625 445.445312 211.289062 445.246094 211.066406 C 445.050781 210.839844 444.882812 210.613281 444.746094 210.390625 C 444.613281 210.167969 444.511719 209.953125 444.441406 209.742188 C 444.375 209.53125 444.34375 209.332031 444.34375 209.144531 C 444.347656 208.953125 444.386719 208.777344 444.457031 208.617188 C 444.53125 208.453125 444.636719 208.308594 444.777344 208.183594 C 444.917969 208.054688 445.089844 207.945312 445.289062 207.859375 C 445.492188 207.769531 445.722656 207.703125 445.976562 207.65625 C 446.234375 207.609375 446.511719 207.585938 446.8125 207.582031 C 447.113281 207.582031 447.429688 207.601562 447.765625 207.644531 C 448.097656 207.683594 448.441406 207.75 448.796875 207.832031 C 449.148438 207.917969 449.507812 208.023438 449.867188 208.148438 C 450.226562 208.269531 450.582031 208.410156 450.933594 208.570312 Z M 450.933594 208.570312 " fill-opacity="1" fill-rule="nonzero"/><path fill="#ff914d" d="M 454.972656 221.636719 C 455.324219 221.796875 455.667969 221.96875 456 222.15625 C 456.332031 222.34375 456.644531 222.539062 456.945312 222.75 C 457.242188 222.957031 457.519531 223.171875 457.769531 223.394531 C 458.023438 223.617188 458.25 223.839844 458.445312 224.066406 C 458.644531 224.292969 458.8125 224.515625 458.945312 224.738281 C 459.082031 224.960938 459.183594 225.179688 459.25 225.386719 C 459.320312 225.597656 459.351562 225.796875 459.347656 225.988281 C 459.347656 226.175781 459.308594 226.351562 459.238281 226.515625 C 459.164062 226.675781 459.058594 226.820312 458.917969 226.949219 C 458.777344 227.074219 458.605469 227.183594 458.402344 227.273438 C 458.203125 227.359375 457.972656 227.429688 457.714844 227.476562 C 457.460938 227.519531 457.183594 227.546875 456.882812 227.546875 C 456.582031 227.550781 456.261719 227.53125 455.929688 227.488281 C 455.597656 227.445312 455.253906 227.382812 454.898438 227.296875 C 454.546875 227.210938 454.1875 227.109375 453.828125 226.984375 C 453.46875 226.859375 453.113281 226.71875 452.757812 226.558594 C 452.40625 226.402344 452.0625 226.230469 451.734375 226.042969 C 451.402344 225.855469 451.085938 225.65625 450.789062 225.449219 C 450.492188 225.238281 450.214844 225.023438 449.960938 224.804688 C 449.710938 224.582031 449.484375 224.359375 449.285156 224.132812 C 449.089844 223.90625 448.921875 223.679688 448.785156 223.457031 C 448.648438 223.234375 448.546875 223.019531 448.480469 222.808594 C 448.414062 222.597656 448.378906 222.398438 448.382812 222.210938 C 448.386719 222.019531 448.421875 221.84375 448.496094 221.683594 C 448.570312 221.523438 448.675781 221.378906 448.816406 221.25 C 448.957031 221.121094 449.125 221.015625 449.328125 220.925781 C 449.53125 220.835938 449.757812 220.769531 450.015625 220.722656 C 450.273438 220.675781 450.550781 220.652344 450.851562 220.648438 C 451.152344 220.648438 451.46875 220.667969 451.804688 220.710938 C 452.136719 220.753906 452.480469 220.816406 452.832031 220.902344 C 453.1875 220.984375 453.542969 221.089844 453.90625 221.214844 C 454.265625 221.335938 454.621094 221.480469 454.972656 221.636719 Z M 454.972656 221.636719 " fill-opacity="1" fill-rule="nonzero"/><path fill="#ff914d" d="M 472.445312 213.605469 C 472.507812 213.773438 472.53125 213.949219 472.519531 214.140625 C 472.511719 214.328125 472.464844 214.523438 472.382812 214.730469 C 472.300781 214.933594 472.183594 215.144531 472.03125 215.355469 C 471.882812 215.570312 471.699219 215.78125 471.488281 215.992188 C 471.273438 216.207031 471.035156 216.414062 470.765625 216.617188 C 470.5 216.820312 470.207031 217.015625 469.898438 217.203125 C 469.585938 217.390625 469.257812 217.566406 468.914062 217.730469 C 468.570312 217.894531 468.214844 218.042969 467.855469 218.175781 C 467.492188 218.308594 467.125 218.425781 466.757812 218.523438 C 466.390625 218.621094 466.027344 218.703125 465.667969 218.761719 C 465.308594 218.820312 464.960938 218.859375 464.625 218.878906 C 464.289062 218.898438 463.972656 218.898438 463.671875 218.875 C 463.375 218.851562 463.097656 218.808594 462.84375 218.742188 C 462.59375 218.679688 462.367188 218.597656 462.171875 218.492188 C 461.976562 218.390625 461.8125 218.269531 461.683594 218.132812 C 461.550781 217.996094 461.457031 217.847656 461.394531 217.679688 C 461.332031 217.511719 461.308594 217.335938 461.320312 217.144531 C 461.328125 216.957031 461.375 216.761719 461.457031 216.554688 C 461.539062 216.351562 461.65625 216.140625 461.808594 215.929688 C 461.957031 215.714844 462.140625 215.503906 462.351562 215.292969 C 462.566406 215.082031 462.808594 214.871094 463.074219 214.667969 C 463.34375 214.464844 463.632812 214.269531 463.941406 214.082031 C 464.253906 213.894531 464.582031 213.71875 464.925781 213.554688 C 465.269531 213.394531 465.625 213.242188 465.988281 213.109375 C 466.347656 212.976562 466.714844 212.859375 467.082031 212.761719 C 467.449219 212.664062 467.8125 212.582031 468.171875 212.523438 C 468.53125 212.464844 468.878906 212.425781 469.214844 212.40625 C 469.550781 212.386719 469.867188 212.390625 470.167969 212.410156 C 470.46875 212.433594 470.742188 212.476562 470.996094 212.542969 C 471.246094 212.605469 471.472656 212.6875 471.667969 212.792969 C 471.863281 212.894531 472.027344 213.015625 472.15625 213.152344 C 472.289062 213.289062 472.382812 213.441406 472.445312 213.605469 Z M 472.445312 213.605469 " fill-opacity="1" fill-rule="nonzero"/><path fill="#ff914d" d="M 473.796875 202.988281 C 473.863281 203.125 473.894531 203.277344 473.898438 203.441406 C 473.898438 203.605469 473.871094 203.78125 473.808594 203.964844 C 473.75 204.148438 473.660156 204.339844 473.539062 204.535156 C 473.417969 204.734375 473.269531 204.933594 473.09375 205.132812 C 472.917969 205.335938 472.714844 205.535156 472.492188 205.734375 C 472.265625 205.933594 472.019531 206.125 471.753906 206.316406 C 471.488281 206.503906 471.210938 206.683594 470.914062 206.851562 C 470.617188 207.023438 470.3125 207.183594 470 207.328125 C 469.6875 207.476562 469.371094 207.605469 469.046875 207.722656 C 468.726562 207.839844 468.410156 207.9375 468.09375 208.019531 C 467.78125 208.101562 467.476562 208.164062 467.179688 208.210938 C 466.882812 208.253906 466.597656 208.28125 466.332031 208.285156 C 466.0625 208.289062 465.816406 208.277344 465.585938 208.242188 C 465.359375 208.207031 465.15625 208.15625 464.976562 208.082031 C 464.796875 208.011719 464.644531 207.921875 464.519531 207.8125 C 464.394531 207.707031 464.300781 207.582031 464.234375 207.445312 C 464.167969 207.304688 464.136719 207.152344 464.132812 206.988281 C 464.132812 206.824219 464.160156 206.648438 464.222656 206.464844 C 464.28125 206.28125 464.371094 206.089844 464.492188 205.894531 C 464.613281 205.699219 464.761719 205.5 464.9375 205.296875 C 465.113281 205.097656 465.316406 204.894531 465.539062 204.695312 C 465.765625 204.5 466.011719 204.304688 466.277344 204.117188 C 466.542969 203.929688 466.820312 203.75 467.117188 203.578125 C 467.414062 203.40625 467.71875 203.25 468.03125 203.101562 C 468.34375 202.957031 468.664062 202.824219 468.984375 202.707031 C 469.304688 202.59375 469.621094 202.492188 469.9375 202.410156 C 470.25 202.328125 470.558594 202.265625 470.855469 202.222656 C 471.152344 202.175781 471.433594 202.152344 471.699219 202.144531 C 471.96875 202.140625 472.214844 202.15625 472.445312 202.1875 C 472.671875 202.222656 472.875 202.277344 473.054688 202.347656 C 473.238281 202.421875 473.390625 202.511719 473.511719 202.617188 C 473.636719 202.726562 473.734375 202.847656 473.796875 202.988281 Z M 473.796875 202.988281 " fill-opacity="1" fill-rule="nonzero"/><path fill="#ff914d" d="M 484.335938 205.851562 C 484.679688 205.902344 485.015625 205.96875 485.347656 206.050781 C 485.675781 206.132812 485.996094 206.226562 486.304688 206.332031 C 486.613281 206.4375 486.902344 206.554688 487.171875 206.683594 C 487.445312 206.8125 487.691406 206.945312 487.917969 207.089844 C 488.144531 207.234375 488.34375 207.386719 488.511719 207.539062 C 488.683594 207.695312 488.824219 207.851562 488.933594 208.011719 C 489.042969 208.171875 489.121094 208.332031 489.164062 208.492188 C 489.207031 208.648438 489.21875 208.804688 489.195312 208.957031 C 489.171875 209.105469 489.117188 209.25 489.027344 209.390625 C 488.9375 209.527344 488.816406 209.65625 488.664062 209.777344 C 488.511719 209.894531 488.328125 210.003906 488.121094 210.101562 C 487.910156 210.195312 487.675781 210.28125 487.417969 210.347656 C 487.160156 210.417969 486.882812 210.472656 486.582031 210.515625 C 486.285156 210.554688 485.972656 210.578125 485.648438 210.589844 C 485.324219 210.597656 484.992188 210.589844 484.652344 210.570312 C 484.3125 210.546875 483.96875 210.511719 483.628906 210.457031 C 483.285156 210.40625 482.949219 210.335938 482.617188 210.257812 C 482.285156 210.175781 481.964844 210.082031 481.660156 209.976562 C 481.351562 209.867188 481.0625 209.75 480.789062 209.625 C 480.519531 209.496094 480.269531 209.359375 480.042969 209.214844 C 479.820312 209.070312 479.621094 208.921875 479.449219 208.765625 C 479.277344 208.613281 479.136719 208.453125 479.027344 208.292969 C 478.917969 208.132812 478.84375 207.976562 478.796875 207.816406 C 478.753906 207.65625 478.746094 207.503906 478.765625 207.351562 C 478.789062 207.199219 478.847656 207.054688 478.9375 206.917969 C 479.027344 206.78125 479.148438 206.652344 479.300781 206.53125 C 479.453125 206.410156 479.632812 206.304688 479.84375 206.207031 C 480.050781 206.109375 480.285156 206.027344 480.546875 205.957031 C 480.804688 205.886719 481.082031 205.832031 481.378906 205.792969 C 481.675781 205.753906 481.988281 205.726562 482.3125 205.71875 C 482.636719 205.707031 482.972656 205.714844 483.3125 205.738281 C 483.652344 205.757812 483.992188 205.796875 484.335938 205.851562 Z M 484.335938 205.851562 " fill-opacity="1" fill-rule="nonzero"/><path fill="#ff914d" d="M 478.3125 218.210938 C 478.414062 218.328125 478.484375 218.464844 478.53125 218.621094 C 478.578125 218.78125 478.597656 218.957031 478.589844 219.148438 C 478.582031 219.34375 478.546875 219.550781 478.484375 219.773438 C 478.421875 219.996094 478.332031 220.226562 478.214844 220.46875 C 478.101562 220.710938 477.960938 220.957031 477.800781 221.210938 C 477.636719 221.460938 477.453125 221.714844 477.246094 221.96875 C 477.042969 222.21875 476.820312 222.46875 476.585938 222.714844 C 476.347656 222.957031 476.09375 223.191406 475.832031 223.417969 C 475.570312 223.644531 475.300781 223.855469 475.023438 224.054688 C 474.746094 224.253906 474.46875 224.433594 474.1875 224.597656 C 473.90625 224.765625 473.628906 224.90625 473.355469 225.03125 C 473.082031 225.152344 472.816406 225.253906 472.558594 225.332031 C 472.304688 225.410156 472.058594 225.464844 471.832031 225.492188 C 471.601562 225.519531 471.390625 225.523438 471.199219 225.503906 C 471.007812 225.484375 470.835938 225.4375 470.6875 225.367188 C 470.539062 225.296875 470.414062 225.207031 470.3125 225.089844 C 470.214844 224.972656 470.140625 224.835938 470.09375 224.679688 C 470.046875 224.519531 470.027344 224.34375 470.035156 224.152344 C 470.042969 223.957031 470.078125 223.75 470.144531 223.527344 C 470.207031 223.304688 470.296875 223.074219 470.410156 222.832031 C 470.523438 222.589844 470.664062 222.34375 470.828125 222.089844 C 470.988281 221.839844 471.175781 221.585938 471.378906 221.332031 C 471.582031 221.082031 471.804688 220.832031 472.042969 220.589844 C 472.28125 220.34375 472.53125 220.109375 472.792969 219.882812 C 473.054688 219.65625 473.324219 219.445312 473.601562 219.246094 C 473.878906 219.046875 474.160156 218.867188 474.441406 218.703125 C 474.71875 218.539062 474.996094 218.394531 475.273438 218.269531 C 475.546875 218.148438 475.8125 218.046875 476.066406 217.96875 C 476.324219 217.890625 476.566406 217.835938 476.792969 217.808594 C 477.023438 217.78125 477.234375 217.777344 477.425781 217.796875 C 477.621094 217.816406 477.789062 217.863281 477.941406 217.933594 C 478.089844 218.003906 478.214844 218.09375 478.3125 218.210938 Z M 478.3125 218.210938 " fill-opacity="1" fill-rule="nonzero"/><path fill="#ff914d" d="M 472.445312 192.683594 C 472.507812 192.820312 472.542969 192.972656 472.542969 193.136719 C 472.546875 193.300781 472.519531 193.476562 472.457031 193.660156 C 472.398438 193.84375 472.304688 194.035156 472.1875 194.230469 C 472.066406 194.425781 471.917969 194.625 471.742188 194.828125 C 471.5625 195.03125 471.363281 195.230469 471.136719 195.429688 C 470.914062 195.628906 470.667969 195.820312 470.402344 196.007812 C 470.136719 196.199219 469.855469 196.375 469.5625 196.546875 C 469.265625 196.71875 468.960938 196.875 468.648438 197.023438 C 468.332031 197.167969 468.015625 197.300781 467.695312 197.417969 C 467.375 197.535156 467.058594 197.632812 466.742188 197.714844 C 466.429688 197.796875 466.121094 197.859375 465.824219 197.90625 C 465.527344 197.949219 465.246094 197.972656 464.976562 197.980469 C 464.710938 197.984375 464.460938 197.96875 464.234375 197.9375 C 464.007812 197.902344 463.800781 197.847656 463.621094 197.777344 C 463.441406 197.707031 463.289062 197.617188 463.164062 197.507812 C 463.039062 197.398438 462.945312 197.277344 462.882812 197.136719 C 462.816406 197 462.785156 196.847656 462.78125 196.683594 C 462.777344 196.519531 462.808594 196.34375 462.867188 196.160156 C 462.929688 195.976562 463.019531 195.785156 463.140625 195.589844 C 463.261719 195.390625 463.410156 195.191406 463.585938 194.992188 C 463.761719 194.789062 463.960938 194.589844 464.1875 194.390625 C 464.414062 194.191406 464.65625 194 464.921875 193.8125 C 465.1875 193.621094 465.46875 193.441406 465.765625 193.273438 C 466.058594 193.101562 466.363281 192.945312 466.679688 192.796875 C 466.992188 192.652344 467.308594 192.519531 467.628906 192.402344 C 467.949219 192.285156 468.269531 192.1875 468.582031 192.105469 C 468.898438 192.023438 469.203125 191.960938 469.5 191.914062 C 469.796875 191.871094 470.082031 191.847656 470.347656 191.839844 C 470.617188 191.835938 470.863281 191.847656 471.089844 191.882812 C 471.320312 191.917969 471.523438 191.96875 471.703125 192.042969 C 471.882812 192.113281 472.035156 192.203125 472.160156 192.3125 C 472.285156 192.417969 472.378906 192.542969 472.445312 192.683594 Z M 472.445312 192.683594 " fill-opacity="1" fill-rule="nonzero"/><g clip-path="url(#f1f00668dc)"><g clip-path="url(#24a3b1c569)"><g clip-path="url(#c1a9adae01)"><path fill="#ff8bb5" d="M 268.207031 288.183594 C 203.519531 378.511719 218.332031 256.679688 273.097656 247.59375 C 218.332031 256.679688 165.085938 146.058594 255.316406 210.707031 C 164.988281 146.019531 286.820312 160.832031 295.910156 215.597656 C 286.820312 160.832031 397.441406 107.585938 332.796875 197.816406 C 397.480469 107.488281 382.667969 229.320312 327.902344 238.410156 C 382.667969 229.320312 435.917969 339.941406 345.683594 275.292969 C 436.011719 339.980469 314.179688 325.167969 305.09375 270.402344 C 314.140625 325.265625 203.519531 378.511719 268.207031 288.183594 Z M 268.207031 288.183594 " fill-opacity="1" fill-rule="nonzero"/></g></g></g><g clip-path="url(#d18867b7e6)"><g clip-path="url(#5b286afaec)"><g clip-path="url(#4b52a5c68a)"><path fill="#eb1c26" d="M 299.191406 224.871094 C 299.210938 225.238281 299.214844 225.601562 299.203125 225.964844 C 299.1875 226.328125 299.160156 226.679688 299.113281 227.023438 C 299.070312 227.367188 299.007812 227.691406 298.933594 228.003906 C 298.859375 228.3125 298.769531 228.601562 298.667969 228.867188 C 298.566406 229.132812 298.453125 229.371094 298.328125 229.582031 C 298.203125 229.792969 298.066406 229.972656 297.921875 230.121094 C 297.78125 230.269531 297.628906 230.386719 297.472656 230.464844 C 297.316406 230.546875 297.15625 230.589844 296.992188 230.597656 C 296.828125 230.605469 296.664062 230.578125 296.5 230.515625 C 296.335938 230.453125 296.175781 230.355469 296.019531 230.222656 C 295.859375 230.089844 295.707031 229.921875 295.5625 229.726562 C 295.414062 229.527344 295.277344 229.300781 295.148438 229.046875 C 295.019531 228.792969 294.902344 228.515625 294.796875 228.214844 C 294.6875 227.914062 294.59375 227.597656 294.515625 227.257812 C 294.433594 226.921875 294.371094 226.574219 294.320312 226.214844 C 294.269531 225.855469 294.234375 225.492188 294.214844 225.125 C 294.195312 224.757812 294.195312 224.394531 294.207031 224.03125 C 294.21875 223.667969 294.25 223.316406 294.292969 222.972656 C 294.339844 222.628906 294.398438 222.304688 294.472656 221.992188 C 294.550781 221.683594 294.636719 221.394531 294.742188 221.128906 C 294.84375 220.863281 294.957031 220.625 295.082031 220.414062 C 295.207031 220.203125 295.339844 220.019531 295.484375 219.871094 C 295.628906 219.722656 295.777344 219.609375 295.9375 219.53125 C 296.09375 219.449219 296.253906 219.40625 296.414062 219.398438 C 296.578125 219.390625 296.742188 219.417969 296.90625 219.480469 C 297.070312 219.542969 297.230469 219.640625 297.390625 219.773438 C 297.546875 219.90625 297.699219 220.074219 297.847656 220.269531 C 297.992188 220.46875 298.132812 220.691406 298.261719 220.945312 C 298.390625 221.203125 298.507812 221.480469 298.613281 221.78125 C 298.71875 222.082031 298.8125 222.398438 298.894531 222.734375 C 298.972656 223.074219 299.039062 223.421875 299.089844 223.78125 C 299.140625 224.136719 299.175781 224.503906 299.191406 224.871094 Z M 299.191406 224.871094 " fill-opacity="1" fill-rule="nonzero"/></g></g></g><g clip-path="url(#df89658743)"><g clip-path="url(#771d7aa769)"><g clip-path="url(#6287ae3c91)"><path fill="#eb1c26" d="M 289.460938 231.042969 C 289.714844 231.308594 289.957031 231.582031 290.183594 231.867188 C 290.410156 232.148438 290.617188 232.433594 290.808594 232.722656 C 291 233.011719 291.167969 233.300781 291.3125 233.582031 C 291.457031 233.867188 291.578125 234.144531 291.675781 234.414062 C 291.773438 234.679688 291.84375 234.933594 291.886719 235.175781 C 291.929688 235.417969 291.945312 235.644531 291.933594 235.847656 C 291.921875 236.054688 291.882812 236.242188 291.816406 236.402344 C 291.75 236.566406 291.65625 236.703125 291.539062 236.816406 C 291.421875 236.929688 291.277344 237.015625 291.113281 237.074219 C 290.945312 237.132812 290.761719 237.164062 290.554688 237.167969 C 290.347656 237.171875 290.125 237.144531 289.882812 237.09375 C 289.644531 237.039062 289.394531 236.957031 289.128906 236.847656 C 288.867188 236.742188 288.59375 236.609375 288.316406 236.449219 C 288.039062 236.292969 287.761719 236.109375 287.480469 235.910156 C 287.199219 235.707031 286.925781 235.484375 286.652344 235.246094 C 286.378906 235.007812 286.113281 234.753906 285.859375 234.488281 C 285.605469 234.222656 285.367188 233.949219 285.136719 233.664062 C 284.910156 233.382812 284.703125 233.097656 284.515625 232.808594 C 284.324219 232.519531 284.15625 232.230469 284.007812 231.949219 C 283.863281 231.664062 283.742188 231.386719 283.644531 231.121094 C 283.550781 230.851562 283.480469 230.597656 283.4375 230.355469 C 283.394531 230.113281 283.378906 229.890625 283.390625 229.683594 C 283.402344 229.476562 283.441406 229.292969 283.507812 229.128906 C 283.574219 228.964844 283.664062 228.828125 283.785156 228.714844 C 283.902344 228.601562 284.042969 228.515625 284.210938 228.457031 C 284.375 228.398438 284.5625 228.367188 284.769531 228.363281 C 284.972656 228.359375 285.199219 228.386719 285.4375 228.441406 C 285.675781 228.492188 285.929688 228.574219 286.191406 228.683594 C 286.457031 228.789062 286.726562 228.925781 287.003906 229.082031 C 287.28125 229.242188 287.558594 229.421875 287.839844 229.625 C 288.121094 229.824219 288.398438 230.046875 288.671875 230.285156 C 288.941406 230.523438 289.207031 230.777344 289.460938 231.042969 Z M 289.460938 231.042969 " fill-opacity="1" fill-rule="nonzero"/></g></g></g><g clip-path="url(#2a8e392a48)"><g clip-path="url(#380cffa2f6)"><g clip-path="url(#55abf09ad6)"><path fill="#eb1c26" d="M 288.324219 243.984375 C 288.582031 244.25 288.820312 244.523438 289.046875 244.808594 C 289.273438 245.089844 289.480469 245.378906 289.671875 245.667969 C 289.863281 245.957031 290.03125 246.242188 290.175781 246.527344 C 290.320312 246.808594 290.445312 247.085938 290.539062 247.355469 C 290.636719 247.621094 290.707031 247.878906 290.75 248.117188 C 290.792969 248.359375 290.808594 248.585938 290.796875 248.792969 C 290.785156 248.996094 290.746094 249.183594 290.679688 249.34375 C 290.613281 249.507812 290.519531 249.644531 290.402344 249.757812 C 290.285156 249.871094 290.140625 249.957031 289.976562 250.015625 C 289.8125 250.078125 289.625 250.105469 289.417969 250.109375 C 289.210938 250.113281 288.988281 250.085938 288.75 250.035156 C 288.507812 249.980469 288.257812 249.898438 287.992188 249.789062 C 287.730469 249.683594 287.460938 249.550781 287.183594 249.390625 C 286.90625 249.234375 286.625 249.050781 286.34375 248.851562 C 286.066406 248.648438 285.789062 248.425781 285.515625 248.1875 C 285.242188 247.949219 284.980469 247.695312 284.722656 247.429688 C 284.46875 247.164062 284.230469 246.890625 284.003906 246.609375 C 283.777344 246.324219 283.566406 246.039062 283.378906 245.75 C 283.1875 245.460938 283.019531 245.175781 282.875 244.890625 C 282.726562 244.605469 282.605469 244.328125 282.511719 244.0625 C 282.414062 243.792969 282.34375 243.539062 282.300781 243.296875 C 282.257812 243.054688 282.242188 242.832031 282.253906 242.625 C 282.265625 242.417969 282.304688 242.234375 282.371094 242.070312 C 282.4375 241.90625 282.53125 241.769531 282.648438 241.65625 C 282.765625 241.542969 282.90625 241.457031 283.074219 241.398438 C 283.238281 241.339844 283.425781 241.308594 283.632812 241.304688 C 283.839844 241.304688 284.0625 241.328125 284.300781 241.382812 C 284.542969 241.4375 284.792969 241.515625 285.054688 241.625 C 285.320312 241.734375 285.589844 241.867188 285.867188 242.023438 C 286.144531 242.183594 286.425781 242.363281 286.703125 242.566406 C 286.984375 242.769531 287.261719 242.988281 287.535156 243.226562 C 287.808594 243.464844 288.070312 243.71875 288.324219 243.984375 Z M 288.324219 243.984375 " fill-opacity="1" fill-rule="nonzero"/></g></g></g><g clip-path="url(#df2c79d4c0)"><g clip-path="url(#1a45fe9bbf)"><g clip-path="url(#2bb2a2c8a7)"><path fill="#eb1c26" d="M 306.441406 242.878906 C 306.4375 243.042969 306.398438 243.203125 306.320312 243.359375 C 306.242188 243.519531 306.132812 243.671875 305.988281 243.820312 C 305.839844 243.964844 305.664062 244.101562 305.457031 244.234375 C 305.246094 244.363281 305.011719 244.480469 304.746094 244.589844 C 304.480469 244.695312 304.195312 244.789062 303.886719 244.871094 C 303.578125 244.953125 303.253906 245.019531 302.910156 245.070312 C 302.570312 245.125 302.21875 245.160156 301.855469 245.179688 C 301.492188 245.199219 301.128906 245.203125 300.761719 245.195312 C 300.390625 245.183594 300.027344 245.15625 299.667969 245.109375 C 299.308594 245.066406 298.960938 245.007812 298.621094 244.9375 C 298.28125 244.863281 297.960938 244.777344 297.660156 244.675781 C 297.355469 244.574219 297.078125 244.460938 296.820312 244.339844 C 296.5625 244.214844 296.335938 244.082031 296.132812 243.941406 C 295.933594 243.796875 295.765625 243.648438 295.628906 243.492188 C 295.492188 243.335938 295.390625 243.179688 295.324219 243.015625 C 295.257812 242.851562 295.226562 242.691406 295.234375 242.527344 C 295.238281 242.363281 295.28125 242.203125 295.355469 242.042969 C 295.433594 241.886719 295.542969 241.734375 295.691406 241.585938 C 295.835938 241.4375 296.011719 241.300781 296.222656 241.171875 C 296.429688 241.042969 296.667969 240.921875 296.929688 240.816406 C 297.195312 240.707031 297.480469 240.613281 297.789062 240.53125 C 298.097656 240.453125 298.425781 240.386719 298.765625 240.332031 C 299.109375 240.28125 299.460938 240.246094 299.820312 240.226562 C 300.183594 240.203125 300.546875 240.199219 300.917969 240.210938 C 301.285156 240.222656 301.648438 240.25 302.007812 240.292969 C 302.367188 240.335938 302.71875 240.394531 303.054688 240.46875 C 303.394531 240.542969 303.714844 240.628906 304.015625 240.730469 C 304.320312 240.828125 304.601562 240.941406 304.855469 241.066406 C 305.113281 241.1875 305.34375 241.324219 305.542969 241.464844 C 305.742188 241.605469 305.910156 241.757812 306.046875 241.910156 C 306.183594 242.066406 306.285156 242.226562 306.351562 242.390625 C 306.417969 242.550781 306.449219 242.714844 306.441406 242.878906 Z M 306.441406 242.878906 " fill-opacity="1" fill-rule="nonzero"/></g></g></g><g clip-path="url(#5f1e4e75d1)"><g clip-path="url(#a201423b7b)"><g clip-path="url(#a2e8b669b4)"><path fill="#eb1c26" d="M 311.246094 234.039062 C 311.261719 234.328125 311.152344 234.613281 310.917969 234.894531 C 310.683594 235.171875 310.34375 235.425781 309.898438 235.65625 C 309.449219 235.882812 308.929688 236.066406 308.339844 236.207031 C 307.75 236.347656 307.128906 236.4375 306.484375 236.46875 C 305.835938 236.503906 305.210938 236.480469 304.609375 236.398438 C 304.007812 236.320312 303.472656 236.191406 303.003906 236.007812 C 302.535156 235.828125 302.171875 235.609375 301.910156 235.355469 C 301.648438 235.101562 301.511719 234.832031 301.496094 234.542969 C 301.480469 234.253906 301.589844 233.96875 301.824219 233.691406 C 302.058594 233.410156 302.398438 233.15625 302.84375 232.929688 C 303.292969 232.703125 303.808594 232.515625 304.402344 232.375 C 304.992188 232.234375 305.613281 232.148438 306.257812 232.113281 C 306.90625 232.082031 307.53125 232.105469 308.132812 232.183594 C 308.734375 232.261719 309.269531 232.394531 309.738281 232.574219 C 310.207031 232.753906 310.570312 232.972656 310.832031 233.226562 C 311.09375 233.480469 311.230469 233.753906 311.246094 234.039062 Z M 311.246094 234.039062 " fill-opacity="1" fill-rule="nonzero"/></g></g></g><g clip-path="url(#68e923fdca)"><g clip-path="url(#fc01ba9c51)"><g clip-path="url(#67db10cf0f)"><path fill="#eb1c26" d="M 319.421875 240.425781 C 319.980469 240.757812 320.484375 241.125 320.941406 241.523438 C 321.398438 241.925781 321.773438 242.332031 322.0625 242.742188 C 322.351562 243.152344 322.53125 243.535156 322.609375 243.890625 C 322.683594 244.246094 322.648438 244.550781 322.5 244.796875 C 322.351562 245.046875 322.101562 245.222656 321.753906 245.324219 C 321.402344 245.425781 320.980469 245.449219 320.484375 245.390625 C 319.984375 245.332031 319.449219 245.199219 318.878906 244.988281 C 318.308594 244.777344 317.746094 244.503906 317.191406 244.171875 C 316.636719 243.84375 316.128906 243.476562 315.671875 243.074219 C 315.214844 242.671875 314.839844 242.269531 314.550781 241.859375 C 314.265625 241.449219 314.082031 241.066406 314.003906 240.707031 C 313.929688 240.351562 313.964844 240.050781 314.113281 239.800781 C 314.261719 239.554688 314.511719 239.378906 314.859375 239.273438 C 315.210938 239.171875 315.632812 239.148438 316.132812 239.207031 C 316.628906 239.265625 317.164062 239.402344 317.734375 239.613281 C 318.304688 239.824219 318.867188 240.09375 319.421875 240.425781 Z M 319.421875 240.425781 " fill-opacity="1" fill-rule="nonzero"/></g></g></g><g clip-path="url(#bbed1cb7f0)"><g clip-path="url(#a57fb525ee)"><g clip-path="url(#f4b9a65559)"><path fill="#eb1c26" d="M 309.773438 249.050781 C 309.867188 249.324219 309.835938 249.628906 309.6875 249.960938 C 309.539062 250.292969 309.28125 250.628906 308.910156 250.96875 C 308.542969 251.308594 308.09375 251.628906 307.5625 251.925781 C 307.03125 252.21875 306.460938 252.472656 305.847656 252.679688 C 305.234375 252.886719 304.625 253.03125 304.023438 253.117188 C 303.421875 253.203125 302.871094 253.222656 302.371094 253.175781 C 301.871094 253.128906 301.464844 253.019531 301.144531 252.84375 C 300.824219 252.671875 300.617188 252.445312 300.523438 252.171875 C 300.433594 251.898438 300.460938 251.597656 300.609375 251.261719 C 300.757812 250.929688 301.015625 250.59375 301.386719 250.253906 C 301.753906 249.914062 302.203125 249.597656 302.734375 249.300781 C 303.265625 249.003906 303.839844 248.753906 304.453125 248.546875 C 305.066406 248.339844 305.671875 248.191406 306.273438 248.105469 C 306.875 248.019531 307.425781 248 307.925781 248.046875 C 308.425781 248.09375 308.835938 248.207031 309.15625 248.378906 C 309.472656 248.554688 309.679688 248.777344 309.773438 249.050781 Z M 309.773438 249.050781 " fill-opacity="1" fill-rule="nonzero"/></g></g></g><g clip-path="url(#2e064e1e7f)"><g clip-path="url(#1da4e25ee9)"><g clip-path="url(#4c8226350d)"><path fill="#eb1c26" d="M 313.714844 224.625 C 313.730469 224.914062 313.621094 225.199219 313.386719 225.476562 C 313.152344 225.757812 312.8125 226.011719 312.367188 226.238281 C 311.921875 226.46875 311.402344 226.652344 310.808594 226.792969 C 310.21875 226.933594 309.597656 227.023438 308.953125 227.054688 C 308.308594 227.089844 307.683594 227.066406 307.078125 226.984375 C 306.476562 226.90625 305.941406 226.773438 305.472656 226.59375 C 305.007812 226.414062 304.640625 226.195312 304.378906 225.941406 C 304.121094 225.6875 303.980469 225.417969 303.964844 225.128906 C 303.953125 224.839844 304.0625 224.554688 304.292969 224.277344 C 304.527344 223.996094 304.867188 223.742188 305.316406 223.515625 C 305.761719 223.285156 306.28125 223.101562 306.871094 222.960938 C 307.464844 222.820312 308.082031 222.734375 308.730469 222.699219 C 309.375 222.664062 310 222.6875 310.601562 222.769531 C 311.207031 222.847656 311.742188 222.980469 312.207031 223.160156 C 312.675781 223.339844 313.039062 223.558594 313.300781 223.8125 C 313.5625 224.066406 313.699219 224.335938 313.714844 224.625 Z M 313.714844 224.625 " fill-opacity="1" fill-rule="nonzero"/></g></g></g><path fill="#38b6ff" d="M 520.597656 565.953125 C 643.886719 634.886719 552.09375 707.242188 513.757812 571.351562 C 552.09375 707.242188 436.003906 693.5625 504.9375 570.273438 C 436.003906 693.5625 363.648438 601.769531 499.539062 563.433594 C 363.648438 601.769531 377.328125 485.679688 500.617188 554.613281 C 377.328125 485.679688 469.121094 413.324219 507.457031 549.214844 C 469.121094 413.324219 585.210938 427.003906 516.277344 550.292969 C 585.210938 427.003906 657.566406 518.796875 521.675781 557.132812 C 657.386719 518.796875 643.707031 634.886719 520.597656 565.953125 Z M 520.597656 565.953125 " fill-opacity="1" fill-rule="nonzero"/></svg>