<svg xmlns="http://www.w3.org/2000/svg" xmlns:xlink="http://www.w3.org/1999/xlink" width="1080" zoomAndPan="magnify" viewBox="0 0 810 809.999993" height="1080" preserveAspectRatio="xMidYMid meet" version="1.0"><path fill="#fdc75f" d="M 554.710938 418.03125 C 543.957031 524.660156 431.832031 619.425781 324.53125 556.535156 C 277.679688 529.109375 252.585938 475.359375 252.214844 422.355469 C 251.347656 318.570312 340.847656 253.949219 440.980469 280.019531 C 479.179688 289.90625 516.019531 315.726562 537.777344 348.839844 C 553.476562 372.8125 557.058594 395.175781 554.710938 418.03125 Z M 554.710938 418.03125 " fill-opacity="1" fill-rule="nonzero"/><path fill="#fdc75f" d="M 436.65625 124.710938 L 430.71875 214.535156 C 429.484375 233.195312 400.1875 233.316406 401.421875 214.535156 L 407.355469 124.710938 C 408.714844 105.933594 437.890625 105.933594 436.65625 124.710938 Z M 505.882812 146.582031 L 469.785156 228.992188 C 462.242188 246.289062 489.8125 256.050781 497.351562 238.878906 L 533.449219 156.464844 C 540.988281 139.167969 513.421875 129.40625 505.882812 146.582031 Z M 591.179688 200.453125 L 529.121094 265.6875 C 516.140625 279.402344 538.765625 297.9375 551.621094 284.34375 L 613.679688 219.230469 C 626.65625 205.515625 604.035156 186.859375 591.179688 200.453125 Z M 652.867188 280.269531 L 572.390625 320.546875 C 555.578125 328.949219 570.410156 354.152344 587.222656 345.753906 L 667.699219 305.472656 C 684.511719 296.949219 669.679688 271.867188 652.867188 280.269531 Z M 683.894531 376.148438 L 594.515625 386.773438 C 575.851562 388.996094 581.289062 417.785156 599.832031 415.5625 L 689.210938 404.933594 C 708 402.710938 702.5625 373.921875 683.894531 376.148438 Z M 680.433594 476.96875 L 592.664062 456.582031 C 574.367188 452.257812 569.667969 481.167969 587.964844 485.492188 L 675.734375 505.878906 C 694.03125 510.082031 698.726562 481.167969 680.433594 476.96875 Z M 642.976562 570.5 L 567.445312 521.445312 C 551.621094 511.191406 537.40625 536.769531 553.226562 547.023438 L 628.757812 596.074219 C 644.460938 606.328125 658.675781 580.753906 642.976562 570.5 Z M 575.851562 645.867188 L 521.457031 574.082031 C 510.085938 559.132812 488.082031 578.28125 499.328125 593.234375 L 553.722656 665.019531 C 565.21875 679.96875 587.222656 660.816406 575.851562 645.867188 Z M 487.214844 693.804688 L 460.390625 607.9375 C 454.828125 589.898438 427.507812 600.523438 433.070312 618.4375 L 459.894531 704.433594 C 465.457031 722.347656 492.777344 711.722656 487.214844 693.804688 Z M 387.453125 708.878906 L 391.53125 618.933594 C 392.398438 600.152344 363.101562 600.769531 362.234375 619.550781 L 358.15625 709.496094 C 357.289062 728.402344 386.589844 727.660156 387.453125 708.878906 Z M 288.558594 689.234375 L 322.925781 606.082031 C 330.09375 588.660156 302.402344 579.394531 295.234375 596.691406 L 260.867188 679.84375 C 253.574219 697.265625 281.386719 706.53125 288.558594 689.234375 Z M 202.148438 637.09375 L 262.722656 570.5 C 275.453125 556.535156 252.460938 538.375 239.851562 552.335938 L 179.277344 618.933594 C 166.546875 632.769531 189.539062 650.933594 202.148438 637.09375 Z M 138.730469 558.636719 L 218.339844 516.628906 C 235.03125 507.855469 219.578125 483.023438 203.011719 491.671875 L 123.402344 533.679688 C 106.714844 542.574219 122.042969 567.410156 138.730469 558.636719 Z M 105.601562 463.5 L 194.730469 451.019531 C 213.398438 448.425781 207.339844 419.761719 188.796875 422.355469 L 99.667969 434.835938 C 81 437.429688 87.058594 466.09375 105.601562 463.5 Z M 106.835938 362.679688 L 194.976562 381.210938 C 213.398438 385.042969 217.476562 356.128906 199.058594 352.300781 L 110.914062 333.765625 C 92.621094 329.8125 88.539062 358.726562 106.835938 362.679688 Z M 142.316406 268.28125 L 218.960938 315.605469 C 235.03125 325.488281 248.628906 299.667969 232.679688 289.78125 L 156.039062 242.460938 C 140.089844 232.453125 126.367188 258.398438 142.316406 268.28125 Z M 207.835938 191.554688 L 263.710938 262.105469 C 275.453125 276.808594 297.085938 257.164062 285.34375 242.460938 L 229.46875 171.910156 C 217.847656 157.082031 196.214844 176.851562 207.835938 191.554688 Z M 295.480469 141.640625 L 324.160156 227.015625 C 330.09375 244.929688 357.167969 233.6875 351.234375 215.894531 L 322.554688 130.519531 C 316.496094 112.605469 289.546875 123.847656 295.480469 141.640625 Z M 295.480469 141.640625 " fill-opacity="1" fill-rule="nonzero"/></svg>