<svg xmlns="http://www.w3.org/2000/svg" xmlns:xlink="http://www.w3.org/1999/xlink" width="1080" zoomAndPan="magnify" viewBox="0 0 810 809.999993" height="1080" preserveAspectRatio="xMidYMid meet" version="1.0"><defs><clipPath id="e5af362f71"><path d="M 239 81 L 600.539062 81 L 600.539062 442 L 239 442 Z M 239 81 " clip-rule="nonzero"/></clipPath></defs><path fill="#61a60a" d="M 393.476562 600.753906 C 392.847656 596.597656 393.320312 592.367188 394.886719 588.449219 C 410.066406 551.101562 439.445312 520.375 473.453125 498.46875 C 503.304688 479.265625 536.683594 466.371094 570.847656 456.417969 C 580.183594 453.714844 588.65625 462.609375 585.515625 471.78125 C 565.160156 531.386719 520.835938 582.6875 464.316406 610.746094 C 453.253906 616.234375 441.566406 620.9375 429.25 621.878906 C 422.304688 622.425781 415.128906 621.601562 408.578125 619.289062 C 400.535156 616.429688 394.769531 609.21875 393.476562 600.753906 Z M 393.476562 600.753906 " fill-opacity="1" fill-rule="nonzero"/><path fill="#77cc0c" d="M 414.617188 600.753906 C 424.933594 595.425781 435.132812 589.78125 445.09375 583.785156 C 454.3125 578.257812 463.375 572.378906 472.238281 566.265625 C 480.984375 560.191406 489.535156 553.804688 497.929688 547.179688 C 506.167969 540.675781 514.207031 533.972656 522.09375 527.078125 C 530.40625 519.828125 538.527344 512.417969 546.605469 504.933594 C 547.625 503.953125 548.6875 503.015625 549.707031 502.035156 C 551.078125 500.742188 551.078125 498.273438 549.707031 496.980469 C 548.253906 495.644531 546.097656 495.605469 544.644531 496.980469 C 536.566406 504.503906 528.445312 511.988281 520.128906 519.277344 C 512.246094 526.214844 504.207031 533.035156 496.007812 539.617188 C 494.007812 541.222656 491.96875 542.832031 489.929688 544.398438 C 489.457031 544.75 488.988281 545.144531 488.515625 545.496094 C 489.066406 545.066406 488.359375 545.613281 488.164062 545.769531 C 487.886719 545.964844 487.613281 546.203125 487.339844 546.398438 C 486.320312 547.179688 485.300781 547.964844 484.242188 548.75 C 480.082031 551.882812 475.925781 554.941406 471.6875 557.917969 C 462.941406 564.109375 454 569.988281 444.859375 575.554688 C 435.09375 581.511719 425.128906 587.15625 414.972656 592.484375 C 413.636719 593.191406 412.304688 593.855469 410.96875 594.5625 C 409.324219 595.425781 408.695312 597.894531 409.675781 599.460938 C 410.8125 601.183594 412.851562 601.695312 414.617188 600.753906 Z M 414.617188 600.753906 " fill-opacity="1" fill-rule="nonzero"/><path fill="#61a60a" d="M 404.96875 536.207031 C 405.597656 532.054688 405.125 527.820312 403.558594 523.902344 C 388.378906 486.554688 359 455.828125 324.992188 433.921875 C 295.140625 414.71875 261.761719 401.824219 227.597656 391.871094 C 218.261719 389.167969 209.789062 398.0625 212.929688 407.234375 C 233.285156 466.839844 277.609375 518.140625 334.128906 546.203125 C 345.191406 551.6875 356.878906 556.390625 369.195312 557.332031 C 376.140625 557.878906 383.316406 557.058594 389.867188 554.746094 C 397.949219 551.921875 403.714844 544.710938 404.96875 536.207031 Z M 404.96875 536.207031 " fill-opacity="1" fill-rule="nonzero"/><path fill="#77cc0c" d="M 385.355469 531.152344 C 374.53125 525.585938 363.863281 519.707031 353.46875 513.4375 C 344.09375 507.796875 334.914062 501.839844 326.011719 495.488281 C 321.734375 492.472656 317.539062 489.375 313.378906 486.203125 C 313.144531 486.042969 312.949219 485.847656 312.714844 485.691406 C 312.597656 485.613281 312.480469 485.535156 312.359375 485.417969 C 311.96875 485.105469 312.832031 485.769531 312.398438 485.457031 C 311.890625 485.066406 311.378906 484.671875 310.832031 484.242188 C 309.851562 483.457031 308.871094 482.675781 307.851562 481.890625 C 305.890625 480.324219 303.925781 478.753906 302.003906 477.148438 C 294.160156 470.683594 286.550781 463.980469 279.136719 457.082031 C 271.488281 449.988281 263.996094 442.660156 256.625 435.292969 C 255.683594 434.351562 254.742188 433.375 253.800781 432.433594 C 252.464844 431.101562 250.035156 431.023438 248.738281 432.433594 C 247.40625 433.882812 247.328125 436.078125 248.738281 437.488281 C 256.191406 445.011719 263.722656 452.417969 271.410156 459.671875 C 278.824219 466.605469 286.394531 473.386719 294.199219 479.929688 C 302.242188 486.632812 310.476562 493.097656 318.949219 499.210938 C 327.777344 505.601562 336.796875 511.597656 346.054688 517.277344 C 356.292969 523.589844 366.804688 529.507812 377.472656 535.070312 C 378.886719 535.816406 380.296875 536.5625 381.707031 537.265625 C 383.355469 538.128906 385.671875 537.734375 386.613281 535.972656 C 387.515625 534.40625 387.121094 532.09375 385.355469 531.152344 Z M 385.355469 531.152344 " fill-opacity="1" fill-rule="nonzero"/><path fill="#61a60a" d="M 399.046875 312.433594 C 402.261719 326.347656 404.890625 340.375 406.8125 354.523438 C 406.695312 353.503906 406.539062 352.484375 406.421875 351.464844 C 410.226562 380.074219 410.890625 408.996094 408.382812 437.761719 C 407.753906 445.011719 406.929688 452.261719 405.949219 459.472656 C 406.066406 458.453125 406.222656 457.4375 406.339844 456.417969 C 402.183594 487.457031 395.085938 517.984375 389.867188 548.828125 C 384.21875 582.296875 381.160156 616.078125 383.75 649.976562 C 385.554688 673.253906 389.554688 696.296875 395.398438 718.910156 C 396.890625 724.710938 403.675781 728.789062 409.519531 726.90625 C 415.519531 724.984375 419.128906 719.027344 417.519531 712.796875 C 413.597656 697.671875 410.5 682.386719 408.382812 666.90625 C 408.5 667.925781 408.65625 668.945312 408.773438 669.964844 C 405.28125 644.097656 404.773438 617.917969 407.085938 591.898438 C 407.675781 585.117188 408.460938 578.375 409.363281 571.636719 C 409.246094 572.65625 409.085938 573.671875 408.96875 574.691406 C 413.128906 543.96875 420.148438 513.792969 425.285156 483.222656 C 431.132812 448.65625 434.269531 413.738281 432.035156 378.664062 C 430.464844 354.289062 426.660156 330.03125 421.167969 306.28125 C 419.796875 300.441406 412.773438 296.445312 407.046875 298.285156 C 400.96875 300.285156 397.59375 306.164062 399.046875 312.433594 Z M 399.046875 312.433594 " fill-opacity="1" fill-rule="nonzero"/><g clip-path="url(#e5af362f71)"><path fill="#fecb00" d="M 597.285156 230.371094 C 598.773438 228.761719 600.070312 226.765625 600.265625 224.296875 C 600.539062 220.886719 598.578125 217.398438 596.027344 215.476562 C 593.519531 213.558594 590.578125 212.890625 587.714844 212.421875 C 580.066406 211.128906 572.378906 210.929688 564.769531 210.929688 C 541.820312 210.929688 518.71875 212.617188 496.242188 217.046875 C 513.933594 197.488281 530.132812 176.640625 544.488281 154.222656 C 547.078125 150.148438 549.667969 145.953125 550.570312 141.015625 C 550.960938 138.898438 551 136.550781 549.902344 134.433594 C 548.371094 131.492188 544.882812 129.730469 541.78125 129.535156 C 538.683594 129.339844 535.859375 130.433594 533.230469 131.609375 C 526.171875 134.746094 519.660156 138.78125 513.304688 142.976562 C 496.910156 153.753906 481.0625 165.628906 466.550781 178.796875 C 472.160156 154.183594 475.964844 129.21875 477.535156 103.785156 C 477.847656 98.964844 478.042969 94.066406 476.394531 89.246094 C 475.691406 87.207031 474.589844 85.09375 472.550781 83.761719 C 469.726562 81.917969 465.765625 82.035156 462.902344 83.328125 C 460.039062 84.660156 458.078125 86.933594 456.3125 89.246094 C 451.605469 95.398438 447.800781 102.023438 444.191406 108.761719 C 435.015625 125.929688 426.855469 143.839844 420.5 162.257812 C 414.617188 140.15625 407.242188 118.441406 398.066406 97.203125 C 396.144531 92.773438 394.105469 88.304688 390.496094 84.738281 C 388.964844 83.25 387.003906 81.878906 384.574219 81.605469 C 381.199219 81.210938 377.707031 83.132812 375.785156 85.601562 C 373.824219 88.070312 373.117188 91.011719 372.570312 93.832031 C 371.15625 101.433594 370.765625 109.078125 370.609375 116.71875 C 370.175781 137.175781 371.117188 157.828125 374.140625 178.050781 C 358.960938 163.980469 342.25 151.402344 324.953125 140.074219 C 318.558594 135.882812 312.046875 131.886719 304.988281 128.75 C 302.359375 127.574219 299.535156 126.515625 296.398438 126.710938 C 293.296875 126.90625 289.769531 128.671875 288.199219 131.648438 C 287.0625 133.765625 287.101562 136.15625 287.492188 138.273438 C 288.394531 143.25 290.984375 147.445312 293.574219 151.519531 C 308.671875 175.230469 325.894531 197.136719 344.71875 217.671875 C 321.890625 212.773438 298.28125 210.734375 274.824219 210.460938 C 267.175781 210.382812 259.527344 210.539062 251.839844 211.714844 C 248.976562 212.144531 246.03125 212.8125 243.484375 214.695312 C 240.933594 216.574219 238.894531 220.023438 239.167969 223.472656 C 239.363281 225.941406 240.660156 227.941406 242.109375 229.546875 C 245.523438 233.308594 249.957031 235.542969 254.308594 237.621094 C 276.3125 248.082031 298.90625 256.507812 322.011719 263.328125 C 304.28125 268.578125 286.945312 275.476562 270.195312 283.316406 C 263.292969 286.527344 256.425781 290.015625 250.035156 294.40625 C 247.640625 296.050781 245.25 297.894531 243.796875 300.714844 C 242.347656 303.539062 241.992188 307.496094 243.71875 310.472656 C 244.933594 312.628906 246.972656 313.882812 249.015625 314.707031 C 253.722656 316.625 258.664062 316.703125 263.488281 316.664062 C 287.726562 316.546875 311.65625 314.394531 335.308594 310.550781 C 323.304688 324.113281 312.4375 338.769531 302.515625 353.855469 C 298.320312 360.207031 294.316406 366.710938 291.140625 373.765625 C 289.964844 376.390625 288.867188 379.214844 289.0625 382.308594 C 289.257812 385.40625 290.984375 388.894531 293.964844 390.421875 C 296.082031 391.519531 298.4375 391.480469 300.554688 391.085938 C 305.496094 390.148438 309.695312 387.597656 313.773438 385.011719 C 333.816406 372.199219 352.605469 357.894531 370.335938 342.414062 C 367.589844 363.578125 367.15625 385.128906 368.214844 406.449219 C 368.570312 414.054688 369.195312 421.695312 370.804688 429.257812 C 371.433594 432.082031 372.214844 434.980469 374.21875 437.410156 C 376.21875 439.839844 379.746094 441.640625 383.121094 441.171875 C 385.554688 440.820312 387.4375 439.410156 388.964844 437.878906 C 392.496094 434.234375 394.417969 429.691406 396.183594 425.222656 C 405.988281 400.6875 413.441406 375.527344 418.933594 349.976562 C 424.542969 371.414062 432.660156 392.339844 442.113281 412.367188 C 445.371094 419.265625 448.820312 426.085938 453.253906 432.472656 C 454.902344 434.863281 456.746094 437.253906 459.53125 438.703125 C 462.3125 440.152344 466.277344 440.464844 469.179688 438.78125 C 471.296875 437.527344 472.511719 435.488281 473.296875 433.492188 C 475.179688 428.789062 475.179688 423.851562 475.140625 419.03125 C 474.789062 391.949219 471.925781 365.261719 467.019531 338.925781 C 484.984375 354.679688 504.046875 369.179688 524.40625 382.152344 C 528.484375 384.738281 532.683594 387.324219 537.664062 388.226562 C 539.78125 388.617188 542.136719 388.65625 544.292969 387.519531 C 547.273438 385.953125 549.039062 382.464844 549.234375 379.332031 C 549.429688 376.234375 548.371094 373.414062 547.195312 370.746094 C 544.058594 363.695312 540.054688 357.148438 535.859375 350.800781 C 524.917969 334.105469 512.796875 317.960938 499.304688 303.222656 C 524.996094 307.535156 551 309.925781 577.359375 309.847656 C 582.183594 309.847656 587.125 309.730469 591.832031 307.769531 C 593.832031 306.945312 595.871094 305.652344 597.089844 303.535156 C 598.773438 300.558594 598.421875 296.5625 596.929688 293.777344 C 595.441406 290.996094 593.046875 289.15625 590.65625 287.507812 C 584.222656 283.160156 577.359375 279.75 570.414062 276.574219 C 556.765625 270.304688 542.722656 264.660156 528.40625 259.996094 C 547.585938 254.078125 566.453125 246.945312 584.890625 238.441406 C 589.398438 236.25 593.832031 234.09375 597.285156 230.371094 Z M 597.285156 230.371094 " fill-opacity="1" fill-rule="nonzero"/></g><path fill="#871f02" d="M 453.253906 201.917969 C 423.445312 185.613281 393.242188 198.351562 390.808594 199.449219 C 386.925781 201.171875 357.78125 214.65625 350.605469 247.652344 C 345.78125 269.714844 351.074219 295.816406 369.941406 311.0625 C 394.457031 330.8125 423.640625 327.757812 429.132812 326.894531 C 431.914062 326.464844 476.75 318.78125 489.027344 279.632812 C 498.792969 248.515625 479.023438 216.027344 453.253906 201.917969 Z M 453.253906 201.917969 " fill-opacity="1" fill-rule="nonzero"/><path fill="#6d1501" d="M 476.59375 271.792969 C 471.453125 271.675781 466.316406 271.558594 461.136719 271.441406 C 461.371094 267.089844 461.570312 262.742188 461.6875 258.390625 C 466.707031 258.429688 471.726562 258.507812 476.789062 258.546875 C 478.277344 258.546875 479.730469 257.214844 479.652344 255.6875 C 479.574219 254.117188 478.394531 252.824219 476.789062 252.824219 C 471.808594 252.785156 466.824219 252.707031 461.84375 252.667969 C 461.921875 248.90625 461.921875 245.105469 461.921875 241.34375 C 461.921875 240.324219 461.882812 239.304688 461.882812 238.285156 C 464.785156 238.285156 467.6875 238.246094 470.550781 238.246094 C 472.042969 238.246094 473.492188 236.953125 473.414062 235.386719 C 473.335938 233.859375 472.160156 232.523438 470.550781 232.523438 C 467.609375 232.523438 464.707031 232.5625 461.765625 232.5625 C 461.6875 230.09375 461.609375 227.625 461.53125 225.117188 C 461.453125 223.628906 460.234375 222.179688 458.667969 222.257812 C 457.175781 222.335938 455.726562 223.511719 455.804688 225.117188 C 455.921875 227.585938 456 230.09375 456.039062 232.5625 C 449.371094 232.601562 442.703125 232.644531 436.035156 232.644531 C 435.367188 225.589844 434.503906 218.574219 433.445312 211.597656 C 433.210938 210.070312 431.289062 209.207031 429.914062 209.597656 C 428.269531 210.03125 427.679688 211.597656 427.914062 213.125 C 428.894531 219.59375 429.679688 226.136719 430.308594 232.683594 C 423.5625 232.722656 416.816406 232.761719 410.066406 232.761719 C 410.105469 227.941406 410.144531 223.082031 410.1875 218.261719 C 410.1875 216.769531 408.851562 215.320312 407.320312 215.398438 C 405.753906 215.476562 404.457031 216.652344 404.457031 218.261719 C 404.417969 223.121094 404.378906 227.941406 404.339844 232.800781 C 401.398438 232.800781 398.417969 232.839844 395.476562 232.839844 C 391.984375 232.839844 388.535156 232.878906 385.042969 232.878906 C 385.238281 230.839844 385.472656 228.839844 385.710938 226.804688 C 385.90625 225.3125 384.257812 223.863281 382.847656 223.941406 C 381.121094 224.019531 380.179688 225.195312 379.984375 226.804688 C 379.707031 228.839844 379.472656 230.839844 379.277344 232.878906 C 377.550781 232.878906 375.824219 232.878906 374.097656 232.917969 C 372.609375 232.917969 371.15625 234.210938 371.234375 235.777344 C 371.316406 237.304688 372.492188 238.640625 374.097656 238.640625 C 375.667969 238.640625 377.238281 238.640625 378.804688 238.597656 C 378.492188 242.949219 378.335938 247.339844 378.21875 251.6875 C 373.277344 251.648438 368.332031 251.570312 363.351562 251.53125 C 361.863281 251.53125 360.410156 252.863281 360.488281 254.394531 C 360.566406 255.960938 361.742188 257.253906 363.351562 257.253906 C 368.292969 257.292969 373.199219 257.371094 378.140625 257.410156 C 378.101562 261.40625 378.140625 265.40625 378.21875 269.363281 C 373.117188 269.246094 368.058594 269.128906 362.960938 269.011719 C 361.46875 268.972656 360.019531 270.34375 360.097656 271.871094 C 360.175781 273.4375 361.351562 274.695312 362.960938 274.734375 C 368.097656 274.851562 373.238281 274.96875 378.375 275.085938 C 378.492188 278.457031 378.648438 281.824219 378.804688 285.15625 C 378.886719 286.644531 379.003906 288.136719 379.082031 289.625 C 376.726562 289.507812 374.414062 289.351562 372.058594 289.195312 C 370.570312 289.078125 369.117188 290.566406 369.195312 292.054688 C 369.273438 293.699219 370.453125 294.796875 372.058594 294.914062 C 374.53125 295.070312 377.003906 295.230469 379.472656 295.347656 C 379.589844 297.109375 379.746094 298.914062 379.90625 300.675781 C 380.023438 302.164062 381.121094 303.617188 382.769531 303.539062 C 384.21875 303.457031 385.789062 302.28125 385.632812 300.675781 C 385.472656 298.992188 385.355469 297.304688 385.238281 295.621094 C 391.398438 295.894531 397.554688 296.089844 403.714844 296.207031 C 403.675781 301.1875 403.636719 306.164062 403.597656 311.140625 C 403.597656 312.628906 404.929688 314.078125 406.460938 314 C 408.027344 313.921875 409.324219 312.746094 409.324219 311.140625 C 409.363281 306.203125 409.402344 301.226562 409.441406 296.285156 C 416.5 296.328125 423.5625 296.246094 430.621094 296.050781 C 430.347656 299.460938 430.03125 302.832031 429.640625 306.242188 C 429.484375 307.730469 431.09375 309.179688 432.503906 309.101562 C 434.191406 309.023438 435.210938 307.847656 435.367188 306.242188 C 435.757812 302.792969 436.074219 299.34375 436.347656 295.894531 C 439.683594 295.777344 443.015625 295.621094 446.3125 295.425781 C 448.664062 295.308594 451.058594 295.152344 453.410156 294.992188 C 453.292969 296.011719 453.214844 297.03125 453.097656 298.089844 C 452.941406 299.578125 454.546875 301.027344 455.960938 300.949219 C 457.648438 300.871094 458.667969 299.695312 458.824219 298.089844 C 458.941406 296.914062 459.058594 295.777344 459.175781 294.601562 C 461.804688 294.40625 464.472656 294.210938 467.101562 293.976562 C 468.589844 293.855469 470.042969 292.761719 469.964844 291.113281 C 469.882812 289.664062 468.707031 288.097656 467.101562 288.253906 C 464.667969 288.488281 462.195312 288.644531 459.726562 288.839844 C 460.078125 284.921875 460.390625 281.003906 460.667969 277.085938 C 465.921875 277.203125 471.179688 277.320312 476.433594 277.476562 C 477.925781 277.515625 479.375 276.144531 479.296875 274.613281 C 479.375 273.085938 478.199219 271.832031 476.59375 271.792969 Z M 454.078125 289.3125 C 448.351562 289.703125 442.585938 290.015625 436.820312 290.210938 C 437.09375 285.667969 437.328125 281.121094 437.445312 276.574219 C 442.152344 276.691406 446.859375 276.808594 451.566406 276.925781 C 452.703125 276.964844 453.882812 276.964844 455.019531 277.003906 C 454.902344 278.691406 454.785156 280.335938 454.664062 282.023438 C 454.507812 284.453125 454.3125 286.882812 454.078125 289.3125 Z M 392.964844 290.332031 C 390.261719 290.25 387.554688 290.132812 384.886719 290.015625 C 384.574219 285.117188 384.296875 280.21875 384.101562 275.320312 C 390.730469 275.476562 397.320312 275.632812 403.949219 275.789062 C 403.910156 280.730469 403.871094 285.667969 403.832031 290.605469 C 400.183594 290.527344 396.574219 290.449219 392.964844 290.332031 Z M 383.828125 257.527344 C 390.574219 257.605469 397.320312 257.683594 404.105469 257.761719 C 404.066406 261.878906 404.027344 265.953125 403.988281 270.070312 C 398.652344 269.953125 393.28125 269.792969 387.945312 269.675781 C 386.613281 269.636719 385.277344 269.597656 383.90625 269.597656 C 383.828125 265.5625 383.789062 261.527344 383.828125 257.527344 Z M 431.835938 270.734375 C 424.464844 270.539062 417.089844 270.382812 409.714844 270.1875 C 409.753906 266.070312 409.792969 261.917969 409.832031 257.800781 C 417.089844 257.882812 424.34375 257.960938 431.601562 258.039062 Z M 409.675781 275.910156 C 417.050781 276.105469 424.386719 276.261719 431.757812 276.457031 C 431.679688 279.59375 431.5625 282.726562 431.40625 285.824219 C 431.328125 287.351562 431.25 288.878906 431.132812 290.410156 C 423.953125 290.605469 416.734375 290.683594 409.558594 290.644531 C 409.597656 285.746094 409.636719 280.808594 409.675781 275.910156 Z M 437.5625 270.851562 C 437.601562 266.582031 437.601562 262.347656 437.484375 258.078125 C 442.230469 258.117188 446.976562 258.195312 451.722656 258.234375 C 453.136719 258.234375 454.507812 258.273438 455.921875 258.273438 C 455.804688 262.621094 455.605469 266.933594 455.371094 271.246094 C 449.449219 271.128906 443.527344 271.007812 437.5625 270.851562 Z M 456.078125 252.550781 C 449.839844 252.472656 443.566406 252.433594 437.328125 252.355469 C 437.132812 247.691406 436.859375 242.988281 436.503906 238.324219 C 440.742188 238.285156 444.9375 238.285156 449.175781 238.246094 C 451.488281 238.246094 453.804688 238.207031 456.117188 238.207031 C 456.15625 243.027344 456.15625 247.808594 456.078125 252.550781 Z M 431.367188 247.496094 L 431.484375 252.316406 C 424.265625 252.238281 417.089844 252.160156 409.871094 252.082031 C 409.910156 247.652344 409.949219 243.261719 409.988281 238.835938 C 409.988281 238.71875 409.988281 238.597656 409.988281 238.480469 C 416.933594 238.441406 423.835938 238.402344 430.777344 238.363281 C 431.011719 241.421875 431.210938 244.4375 431.367188 247.496094 Z M 404.144531 252.003906 C 398.890625 251.964844 393.632812 251.886719 388.378906 251.847656 C 386.886719 251.847656 385.433594 251.804688 383.945312 251.804688 C 384.023438 248.632812 384.140625 245.457031 384.296875 242.324219 C 384.375 241.109375 384.453125 239.855469 384.53125 238.640625 C 391.121094 238.597656 397.671875 238.558594 404.261719 238.558594 C 404.222656 242.988281 404.183594 247.496094 404.144531 252.003906 Z M 404.144531 252.003906 " fill-opacity="1" fill-rule="nonzero"/></svg>