<svg xmlns="http://www.w3.org/2000/svg" xmlns:xlink="http://www.w3.org/1999/xlink" width="1080" zoomAndPan="magnify" viewBox="0 0 810 809.999993" height="1080" preserveAspectRatio="xMidYMid meet" version="1.0"><defs><clipPath id="eca3f389fb"><path d="M 606 57 L 622 57 L 622 74 L 606 74 Z M 606 57 " clip-rule="nonzero"/></clipPath><clipPath id="64bea74b65"><path d="M 118.21875 108.980469 L 624.757812 56.496094 L 691.542969 701.042969 L 185.003906 753.53125 Z M 118.21875 108.980469 " clip-rule="nonzero"/></clipPath><clipPath id="e6ab06d041"><path d="M 118.21875 108.980469 L 624.757812 56.496094 L 691.542969 701.042969 L 185.003906 753.53125 Z M 118.21875 108.980469 " clip-rule="nonzero"/></clipPath><clipPath id="bc89d8dcfc"><path d="M 520 60 L 644 60 L 644 282 L 520 282 Z M 520 60 " clip-rule="nonzero"/></clipPath><clipPath id="da8fb7aad2"><path d="M 118.21875 108.980469 L 624.757812 56.496094 L 691.542969 701.042969 L 185.003906 753.53125 Z M 118.21875 108.980469 " clip-rule="nonzero"/></clipPath><clipPath id="a224eb75ea"><path d="M 118.21875 108.980469 L 624.757812 56.496094 L 691.542969 701.042969 L 185.003906 753.53125 Z M 118.21875 108.980469 " clip-rule="nonzero"/></clipPath><clipPath id="515546e7d8"><path d="M 397 60 L 618 60 L 618 184 L 397 184 Z M 397 60 " clip-rule="nonzero"/></clipPath><clipPath id="f8422f5c28"><path d="M 118.21875 108.980469 L 624.757812 56.496094 L 691.542969 701.042969 L 185.003906 753.53125 Z M 118.21875 108.980469 " clip-rule="nonzero"/></clipPath><clipPath id="5c333c987b"><path d="M 118.21875 108.980469 L 624.757812 56.496094 L 691.542969 701.042969 L 185.003906 753.53125 Z M 118.21875 108.980469 " clip-rule="nonzero"/></clipPath><clipPath id="54cc7ef705"><path d="M 375 183 L 644 183 L 644 369 L 375 369 Z M 375 183 " clip-rule="nonzero"/></clipPath><clipPath id="a359b60bc3"><path d="M 118.21875 108.980469 L 624.757812 56.496094 L 691.542969 701.042969 L 185.003906 753.53125 Z M 118.21875 108.980469 " clip-rule="nonzero"/></clipPath><clipPath id="e0c4fa3a44"><path d="M 118.21875 108.980469 L 624.757812 56.496094 L 691.542969 701.042969 L 185.003906 753.53125 Z M 118.21875 108.980469 " clip-rule="nonzero"/></clipPath><clipPath id="4cf37d7267"><path d="M 375 86 L 521 86 L 521 369 L 375 369 Z M 375 86 " clip-rule="nonzero"/></clipPath><clipPath id="f6db13f486"><path d="M 118.21875 108.980469 L 624.757812 56.496094 L 691.542969 701.042969 L 185.003906 753.53125 Z M 118.21875 108.980469 " clip-rule="nonzero"/></clipPath><clipPath id="f534bec1e4"><path d="M 118.21875 108.980469 L 624.757812 56.496094 L 691.542969 701.042969 L 185.003906 753.53125 Z M 118.21875 108.980469 " clip-rule="nonzero"/></clipPath><clipPath id="6d9f7ca64c"><path d="M 396 85 L 646 85 L 646 283 L 396 283 Z M 396 85 " clip-rule="nonzero"/></clipPath><clipPath id="41100bc7dc"><path d="M 118.21875 108.980469 L 624.757812 56.496094 L 691.542969 701.042969 L 185.003906 753.53125 Z M 118.21875 108.980469 " clip-rule="nonzero"/></clipPath><clipPath id="a42a73dde2"><path d="M 118.21875 108.980469 L 624.757812 56.496094 L 691.542969 701.042969 L 185.003906 753.53125 Z M 118.21875 108.980469 " clip-rule="nonzero"/></clipPath><clipPath id="daf3108c6e"><path d="M 373 59 L 620 59 L 620 371 L 373 371 Z M 373 59 " clip-rule="nonzero"/></clipPath><clipPath id="3a39a1f004"><path d="M 118.21875 108.980469 L 624.757812 56.496094 L 691.542969 701.042969 L 185.003906 753.53125 Z M 118.21875 108.980469 " clip-rule="nonzero"/></clipPath><clipPath id="f8cde53354"><path d="M 118.21875 108.980469 L 624.757812 56.496094 L 691.542969 701.042969 L 185.003906 753.53125 Z M 118.21875 108.980469 " clip-rule="nonzero"/></clipPath><clipPath id="714c4be255"><path d="M 393 82 L 409 82 L 409 97 L 393 97 Z M 393 82 " clip-rule="nonzero"/></clipPath><clipPath id="587e9d73f1"><path d="M 118.21875 108.980469 L 624.757812 56.496094 L 691.542969 701.042969 L 185.003906 753.53125 Z M 118.21875 108.980469 " clip-rule="nonzero"/></clipPath><clipPath id="6d330a0b17"><path d="M 118.21875 108.980469 L 624.757812 56.496094 L 691.542969 701.042969 L 185.003906 753.53125 Z M 118.21875 108.980469 " clip-rule="nonzero"/></clipPath><clipPath id="4e0b2045bd"><path d="M 632 271 L 649 271 L 649 286 L 632 286 Z M 632 271 " clip-rule="nonzero"/></clipPath><clipPath id="90c6d92adb"><path d="M 118.21875 108.980469 L 624.757812 56.496094 L 691.542969 701.042969 L 185.003906 753.53125 Z M 118.21875 108.980469 " clip-rule="nonzero"/></clipPath><clipPath id="72899f322a"><path d="M 118.21875 108.980469 L 624.757812 56.496094 L 691.542969 701.042969 L 185.003906 753.53125 Z M 118.21875 108.980469 " clip-rule="nonzero"/></clipPath><clipPath id="8600667b9e"><path d="M 632.046875 271.40625 L 647.175781 269.839844 L 648.820312 285.726562 L 633.691406 287.292969 Z M 632.046875 271.40625 " clip-rule="nonzero"/></clipPath><clipPath id="c9783d052a"><path d="M 632.046875 271.40625 L 647.136719 269.84375 L 648.78125 285.730469 L 633.691406 287.292969 Z M 632.046875 271.40625 " clip-rule="nonzero"/></clipPath><clipPath id="d76580093e"><path d="M 370 356 L 386 356 L 386 372 L 370 372 Z M 370 356 " clip-rule="nonzero"/></clipPath><clipPath id="a6b3c2e4c6"><path d="M 118.21875 108.980469 L 624.757812 56.496094 L 691.542969 701.042969 L 185.003906 753.53125 Z M 118.21875 108.980469 " clip-rule="nonzero"/></clipPath><clipPath id="3de9ec8ee2"><path d="M 118.21875 108.980469 L 624.757812 56.496094 L 691.542969 701.042969 L 185.003906 753.53125 Z M 118.21875 108.980469 " clip-rule="nonzero"/></clipPath><clipPath id="d2cea46add"><path d="M 183 367 L 377 367 L 377 740 L 183 740 Z M 183 367 " clip-rule="nonzero"/></clipPath><clipPath id="b892c541b5"><path d="M 118.21875 108.980469 L 624.757812 56.496094 L 691.542969 701.042969 L 185.003906 753.53125 Z M 118.21875 108.980469 " clip-rule="nonzero"/></clipPath><clipPath id="356f9de4e3"><path d="M 118.21875 108.980469 L 624.757812 56.496094 L 691.542969 701.042969 L 185.003906 753.53125 Z M 118.21875 108.980469 " clip-rule="nonzero"/></clipPath><clipPath id="a4bd96a393"><path d="M 340 337 L 410 337 L 410 401 L 340 401 Z M 340 337 " clip-rule="nonzero"/></clipPath><clipPath id="27db3529fd"><path d="M 118.21875 108.980469 L 624.757812 56.496094 L 691.542969 701.042969 L 185.003906 753.53125 Z M 118.21875 108.980469 " clip-rule="nonzero"/></clipPath><clipPath id="5fc553c066"><path d="M 118.21875 108.980469 L 624.757812 56.496094 L 691.542969 701.042969 L 185.003906 753.53125 Z M 118.21875 108.980469 " clip-rule="nonzero"/></clipPath><clipPath id="328c84cf8b"><path d="M 282 459 L 352 459 L 352 508 L 282 508 Z M 282 459 " clip-rule="nonzero"/></clipPath><clipPath id="d42f1dd073"><path d="M 118.21875 108.980469 L 624.757812 56.496094 L 691.542969 701.042969 L 185.003906 753.53125 Z M 118.21875 108.980469 " clip-rule="nonzero"/></clipPath><clipPath id="4cb9810fc6"><path d="M 118.21875 108.980469 L 624.757812 56.496094 L 691.542969 701.042969 L 185.003906 753.53125 Z M 118.21875 108.980469 " clip-rule="nonzero"/></clipPath><clipPath id="be62a5a403"><path d="M 251 599 L 318 599 L 318 639 L 251 639 Z M 251 599 " clip-rule="nonzero"/></clipPath><clipPath id="05797264d2"><path d="M 118.21875 108.980469 L 624.757812 56.496094 L 691.542969 701.042969 L 185.003906 753.53125 Z M 118.21875 108.980469 " clip-rule="nonzero"/></clipPath><clipPath id="365ced63ad"><path d="M 118.21875 108.980469 L 624.757812 56.496094 L 691.542969 701.042969 L 185.003906 753.53125 Z M 118.21875 108.980469 " clip-rule="nonzero"/></clipPath><clipPath id="e17f0e0dfb"><path d="M 187 680 L 252 680 L 252 750 L 187 750 Z M 187 680 " clip-rule="nonzero"/></clipPath><clipPath id="463e10dfe4"><path d="M 118.21875 108.980469 L 624.757812 56.496094 L 691.542969 701.042969 L 185.003906 753.53125 Z M 118.21875 108.980469 " clip-rule="nonzero"/></clipPath><clipPath id="e36e243a6c"><path d="M 118.21875 108.980469 L 624.757812 56.496094 L 691.542969 701.042969 L 185.003906 753.53125 Z M 118.21875 108.980469 " clip-rule="nonzero"/></clipPath><clipPath id="cc7e95d818"><path d="M 185.359375 683.175781 L 246.636719 676.828125 L 253.847656 746.421875 L 192.574219 752.773438 Z M 185.359375 683.175781 " clip-rule="nonzero"/></clipPath><clipPath id="ba7f445c34"><path d="M 185.359375 683.175781 L 246.636719 676.828125 L 253.839844 746.324219 L 192.5625 752.675781 Z M 185.359375 683.175781 " clip-rule="nonzero"/></clipPath></defs><g clip-path="url(#eca3f389fb)"><g clip-path="url(#64bea74b65)"><g clip-path="url(#e6ab06d041)"><path fill="#646464" d="M 621.089844 62.648438 L 612.914062 73.019531 L 606.5 67.957031 L 614.675781 57.589844 L 621.089844 62.648438 " fill-opacity="1" fill-rule="nonzero"/></g></g></g><g clip-path="url(#bc89d8dcfc)"><g clip-path="url(#da8fb7aad2)"><g clip-path="url(#a224eb75ea)"><path fill="#b689d1" d="M 644 281.125 L 617.9375 60.789062 L 520.800781 183.988281 Z M 644 281.125 " fill-opacity="1" fill-rule="nonzero"/></g></g></g><g clip-path="url(#515546e7d8)"><g clip-path="url(#f8422f5c28)"><g clip-path="url(#5c333c987b)"><path fill="#8fc5d1" d="M 617.9375 60.789062 L 397.601562 86.851562 L 520.800781 183.988281 Z M 617.9375 60.789062 " fill-opacity="1" fill-rule="nonzero"/></g></g></g><g clip-path="url(#54cc7ef705)"><g clip-path="url(#a359b60bc3)"><g clip-path="url(#e0c4fa3a44)"><path fill="#8fc5d1" d="M 644 281.125 L 520.800781 183.988281 L 375.097656 368.789062 L 644 281.125 " fill-opacity="1" fill-rule="nonzero"/></g></g></g><g clip-path="url(#4cf37d7267)"><g clip-path="url(#f6db13f486)"><g clip-path="url(#f534bec1e4)"><path fill="#b689d1" d="M 397.601562 86.851562 L 375.097656 368.789062 L 520.800781 183.988281 L 397.601562 86.851562 " fill-opacity="1" fill-rule="nonzero"/></g></g></g><g clip-path="url(#6d9f7ca64c)"><g clip-path="url(#41100bc7dc)"><g clip-path="url(#a42a73dde2)"><path fill="#646464" d="M 642.542969 282.972656 L 396.144531 88.699219 L 399.058594 85.003906 L 645.457031 279.277344 L 642.542969 282.972656 " fill-opacity="1" fill-rule="nonzero"/></g></g></g><g clip-path="url(#daf3108c6e)"><g clip-path="url(#3a39a1f004)"><g clip-path="url(#f8cde53354)"><path fill="#646464" d="M 376.945312 370.246094 L 373.25 367.332031 L 616.089844 59.332031 L 619.785156 62.242188 L 376.945312 370.246094 " fill-opacity="1" fill-rule="nonzero"/></g></g></g><g clip-path="url(#714c4be255)"><g clip-path="url(#587e9d73f1)"><g clip-path="url(#6d330a0b17)"><path fill="#646464" d="M 403.449219 96.957031 L 393.082031 88.785156 L 398.140625 82.367188 L 408.511719 90.542969 L 403.449219 96.957031 " fill-opacity="1" fill-rule="nonzero"/></g></g></g><g clip-path="url(#4e0b2045bd)"><g clip-path="url(#90c6d92adb)"><g clip-path="url(#72899f322a)"><g clip-path="url(#8600667b9e)"><g clip-path="url(#c9783d052a)"><path fill="#646464" d="M 643.078125 285.890625 L 632.707031 277.714844 L 637.765625 271.296875 L 648.132812 279.472656 L 643.078125 285.890625 " fill-opacity="1" fill-rule="nonzero"/></g></g></g></g></g><g clip-path="url(#d76580093e)"><g clip-path="url(#a6b3c2e4c6)"><g clip-path="url(#3de9ec8ee2)"><path fill="#646464" d="M 385.535156 361.410156 L 377.359375 371.78125 L 370.941406 366.71875 L 379.117188 356.351562 L 385.535156 361.410156 " fill-opacity="1" fill-rule="nonzero"/></g></g></g><g clip-path="url(#d2cea46add)"><g clip-path="url(#b892c541b5)"><g clip-path="url(#356f9de4e3)"><path fill="#646464" d="M 185.144531 739.804688 L 183.140625 735.546875 C 183.769531 735.253906 246.167969 705.351562 272.027344 647.863281 C 280.585938 628.839844 284.988281 604.296875 290.089844 575.882812 C 300.765625 516.421875 314.054688 442.414062 373.25 367.332031 L 376.945312 370.246094 C 318.476562 444.402344 305.308594 517.765625 294.722656 576.714844 C 289.566406 605.433594 285.113281 630.238281 276.316406 649.796875 C 249.734375 708.898438 185.789062 739.507812 185.144531 739.804688 " fill-opacity="1" fill-rule="nonzero"/></g></g></g><g clip-path="url(#a4bd96a393)"><g clip-path="url(#27db3529fd)"><g clip-path="url(#5fc553c066)"><path fill="#8fc5d1" d="M 409.449219 375.894531 L 378.980469 363.859375 L 360.167969 337.042969 L 340.742188 361.683594 L 373.15625 371.25 L 390.023438 400.535156 L 409.449219 375.894531 " fill-opacity="1" fill-rule="nonzero"/></g></g></g><g clip-path="url(#328c84cf8b)"><g clip-path="url(#d42f1dd073)"><g clip-path="url(#4cb9810fc6)"><path fill="#b689d1" d="M 351.148438 477.316406 L 318.390625 477.488281 L 290.949219 459.597656 L 282.082031 489.695312 L 315.726562 486.515625 L 342.285156 507.421875 L 351.148438 477.316406 " fill-opacity="1" fill-rule="nonzero"/></g></g></g><g clip-path="url(#be62a5a403)"><g clip-path="url(#05797264d2)"><g clip-path="url(#365ced63ad)"><path fill="#8fc5d1" d="M 317.652344 607.292969 L 285.375 612.878906 L 255.347656 599.773438 L 251.589844 630.925781 L 284.246094 622.222656 L 313.890625 638.441406 L 317.652344 607.292969 " fill-opacity="1" fill-rule="nonzero"/></g></g></g><g clip-path="url(#e17f0e0dfb)"><g clip-path="url(#463e10dfe4)"><g clip-path="url(#e36e243a6c)"><g clip-path="url(#cc7e95d818)"><g clip-path="url(#ba7f445c34)"><path fill="#b689d1" d="M 251.835938 729.132812 L 224.648438 710.859375 L 212.007812 680.640625 L 187.757812 700.550781 L 217.371094 716.832031 L 227.589844 749.046875 L 251.835938 729.132812 " fill-opacity="1" fill-rule="nonzero"/></g></g></g></g></g></svg>