<!DOCTYPE svg PUBLIC "-//W3C//DTD SVG 1.1//EN" "http://www.w3.org/Graphics/SVG/1.1/DTD/svg11.dtd">
<!-- Uploaded to: SVG Repo, www.svgrepo.com, Transformed by: SVG Repo Mixer Tools -->
<svg height="800px" width="800px" version="1.1" id="_x32_" xmlns="http://www.w3.org/2000/svg" xmlns:xlink="http://www.w3.org/1999/xlink" viewBox="0 0 512 512" xml:space="preserve" fill="#809671">
<g id="SVGRepo_bgCarrier" stroke-width="0"/>
<g id="SVGRepo_tracerCarrier" stroke-linecap="round" stroke-linejoin="round"/>
<g id="SVGRepo_iconCarrier"> <style type="text/css"> .st0{fill:#809671;} </style> <g> <path class="st0" d="M451.59,111.282C367.282,77.566,320.072,0,256,0C191.928,0,144.718,77.566,60.409,111.282 c-57.474,23.001-77.566,80.933-30.356,128.151c34.356,34.349,100.844,52.622,161.794,60.035c-0.56,8.627-1.31,16.592-2.313,24.048 c-3.077,22.66-8.256,40.758-17.633,60.907c-6.693,14.352-10.09,29.599-10.097,44.54c0,18.113,5.042,35.92,15.626,50.608 c5.288,7.332,11.958,13.843,19.873,19.066c7.922,5.237,17.073,9.187,27.22,11.573c5.078,1.192,10.112,1.797,15.044,1.789 c6.779,0.008,13.334-1.134,19.422-3.237c10.708-3.68,19.874-10.198,27.533-18.157c5.761-5.994,10.737-12.831,15.072-20.214 c6.496-11.079,11.574-23.409,15.444-36.219c3.862-12.803,6.503-26.1,7.95-39.106c1.885-16.978,2.837-37.623,2.837-59.046 c0-12.425-0.334-25.082-1.004-37.404c59.075-7.914,122.019-26.078,155.124-59.183C529.156,192.216,509.065,134.284,451.59,111.282z M295.943,391.843c-1.28,11.457-3.652,23.293-7.042,34.408c-2.546,8.336-5.666,16.279-9.26,23.372 c-5.375,10.656-11.864,19.313-18.644,24.864c-3.39,2.793-6.83,4.845-10.337,6.212c-3.514,1.353-7.1,2.066-11.093,2.073 c-2.575,0-5.339-0.305-8.351-1.011c-7.006-1.652-12.854-4.241-17.8-7.507c-7.398-4.903-12.846-11.348-16.629-19.051 c-3.753-7.704-5.754-16.68-5.747-26.238c-0.007-10.49,2.415-21.612,7.347-32.181c10.57-22.572,16.782-44.336,20.114-69.382 c1.07-7.995,1.862-16.317,2.459-25.155c12.323,0.859,24.122,1.259,35.04,1.259c12.875,0,26.98-0.568,41.718-1.761 c0.582,11.268,0.88,22.878,0.88,34.277C298.605,356.542,297.66,376.356,295.943,391.843z"/> </g> </g>
</svg>