<svg width="66" height="58" viewBox="0 0 66 58" fill="none" xmlns="http://www.w3.org/2000/svg">
<path d="M20.4994 28.5182C17 37 11.554 45.7779 20.4994 55.9994H41.1388C54.862 55.9994 40.8308 34.6867 38.7977 28.5182C36.7647 22.3497 25.6085 16.1351 20.4994 28.5182Z" fill="white" stroke="#C02222" stroke-width="3"/>
<path d="M0.367319 24.287C2.80699 31.6887 35.7697 31.7893 42.7982 29.5188C47.5 28 57.0296 33.4841 64.6535 22.4695C72.2775 11.455 45.8478 0 27.5488 0C13.863 0 -2.68227 15.0348 0.367319 24.287Z" fill="#C02222"/>
<circle cx="23" cy="9" r="1" fill="white"/>
<circle cx="15" cy="15" r="4" fill="white"/>
<circle cx="35" cy="7" r="2" fill="white"/>
<circle cx="51" cy="12" r="1" fill="white"/>
<circle cx="40.5" cy="14.5" r="1.5" fill="white"/>
<circle cx="17.5" cy="23.5" r="1.5" fill="white"/>
<circle cx="30" cy="18" r="3" fill="white"/>
<circle cx="53" cy="19" r="3" fill="white"/>
</svg>
