<svg width="36" height="32" viewBox="0 0 36 32" fill="none" xmlns="http://www.w3.org/2000/svg">
<path d="M10.9401 15.3336C9.0726 19.86 6.16623 24.5445 10.9401 29.9994H21.9548C29.2784 29.9994 21.7903 18.6255 20.7054 15.3336C19.6204 12.0416 13.6667 8.72508 10.9401 15.3336Z" fill="white" stroke="#C02222" stroke-width="3"/>
<path d="M0.196027 13.0755C1.498 17.0256 19.0892 17.0792 22.8401 15.8676C25.3493 15.057 30.4349 17.9837 34.5036 12.1056C38.5723 6.22745 24.4675 0.114258 14.702 0.114258C7.39824 0.114258 -1.43144 8.13784 0.196027 13.0755Z" fill="#C02222"/>
<circle cx="12.2744" cy="4.91746" r="0.533669" fill="white"/>
<circle cx="8.00479" cy="8.11905" r="2.13468" fill="white"/>
<circle cx="18.6787" cy="3.85005" r="1.06734" fill="white"/>
<circle cx="27.2173" cy="6.51804" r="0.533669" fill="white"/>
<circle cx="21.6135" cy="7.85226" r="0.800504" fill="white"/>
<circle cx="9.33908" cy="12.6555" r="0.800504" fill="white"/>
<circle cx="16.0102" cy="9.72015" r="1.60101" fill="white"/>
<circle cx="28.2846" cy="10.2538" r="1.60101" fill="white"/>
</svg>
