<svg width="128" height="61" viewBox="0 0 128 61" fill="none" xmlns="http://www.w3.org/2000/svg">
<path d="M84.4999 31.5188C80.7726 39.743 75.5544 48.7785 84.4999 59H105.139C118.862 59 104.831 37.6873 102.798 31.5188C100.765 25.3503 117.03 35.4841 124.654 24.4695C132.277 13.455 105.848 2 87.5488 2C73.863 2 57.3177 17.0348 60.3673 26.287C62.807 33.6887 87.5488 24.7914 84.4999 31.5188Z" stroke="#809671" stroke-width="4"/>
<path d="M17.962 40.6792C15.5337 46.162 12.1339 52.1857 17.962 59H31.4089C40.3498 59 31.2082 44.7916 29.8836 40.6792C28.5591 36.5669 39.1556 43.3227 44.1227 35.9797C49.0899 28.6367 31.8705 21 19.9485 21C11.0319 21 0.252464 31.0232 2.23931 37.1913C3.82879 42.1258 19.9485 36.1943 17.962 40.6792Z" stroke="#809671" stroke-width="4"/>
</svg>
